<svg xmlns="http://www.w3.org/2000/svg" xmlns:xlink="http://www.w3.org/1999/xlink" xmlns:lucid="lucid" width="1789.15" height="1519.93"><g transform="translate(0 0)" lucid:page-tab-id="0_0"><path d="M0 0h1789.15v1519.93H0z" fill="#fff"/><path d="M623.25 465c0-2.76 2.24-5 5-5h230c2.76 0 5 2.24 5 5v50c0 2.76-2.24 5-5 5h-230c-2.76 0-5-2.24-5-5z" fill="none"/><use xlink:href="#a" transform="matrix(1,0,0,1,623.2500000000001,460) translate(43.176000000000016 35.616)"/><use xlink:href="#b" transform="matrix(1,0,0,1,623.2500000000001,460) translate(115.50000000000001 35.616)"/><use xlink:href="#c" transform="matrix(1,0,0,1,623.2500000000001,460) translate(174.54 35.616)"/><path d="M400 435c0-2.76 2.24-5 5-5h150c2.76 0 5 2.24 5 5v60c0 2.76-2.24 5-5 5H405c-2.76 0-5-2.24-5-5z" stroke="#000" stroke-opacity="0" fill="#a5ceff"/><use xlink:href="#d" transform="matrix(1,0,0,1,400,430) translate(46.245999999999995 29.325)"/><use xlink:href="#e" transform="matrix(1,0,0,1,400,430) translate(25.339000000000006 50.492999999999995)"/><use xlink:href="#f" transform="matrix(1,0,0,1,400,430) translate(117.697 50.492999999999995)"/><path d="M460 555c0-2.76 2.24-5 5-5h30c2.76 0 5 2.24 5 5v70c0 2.76-2.24 5-5 5h-30c-2.76 0-5-2.24-5-5z" stroke="#000" stroke-opacity="0" fill="#d6d6d6"/><path d="M480 500.5v32.12" stroke="#333" fill="none"/><path d="M480.5 500.5h-1v-.5h1z" fill="#333"/><path d="M480 547.38l-4.64-14.26h9.28z" stroke="#333" fill="#333"/><path d="M723 555c0-2.76 2.24-5 5-5h30c2.76 0 5 2.24 5 5v100c0 2.76-2.24 5-5 5h-30c-2.76 0-5-2.24-5-5z" stroke="#000" stroke-opacity="0" fill="#d6d6d6"/><path d="M763.5 573.33H815c2.76 0 5 2.24 5 5v23.34c0 2.76-2.24 5-5 5h-35.62" stroke="#333" fill="none"/><path d="M763.5 573.83h-.5v-1h.5zM778.88 611.3l-14.26-4.63 14.26-4.64z" fill="#333"/><path d="M779.38 612L763 606.66l16.38-5.33zm-13.14-5.33l12.14 3.94v-7.88z" fill="#333"/><use xlink:href="#g" transform="matrix(1,0,0,1,763.3165628006725,550.6527316220534) translate(0 16.2)"/><use xlink:href="#h" transform="matrix(1,0,0,1,763.3165628006725,550.6527316220534) translate(86.74199999999999 16.2)"/><use xlink:href="#i" transform="matrix(1,0,0,1,763.3165628006725,550.6527316220534) translate(97.91999999999999 16.2)"/><path d="M480 630.5v669" fill="none"/><path d="M480 630.5v2m0 3.97v4m0 3.97v3.98m0 3.98v3.98m0 4v3.97m0 3.98v3.98m0 4v3.98m0 3.98v3.98m0 3.98v4m0 3.97v3.97m0 3.98v3.98m0 4v3.97m0 3.98v3.98m0 3.98v4m0 3.97v4m0 3.97v4m0 3.97v3.98m0 3.98v3.98m0 4v3.97m0 3.98v3.98m0 4v3.98m0 3.98v3.98m0 3.98v4m0 3.97v3.97m0 3.98v3.98m0 4v3.97m0 3.98v3.98m0 3.98v4m0 3.97v4m0 3.97v4m0 3.97v3.98m0 3.98v3.98m0 4v3.97m0 3.98v3.98m0 4v3.98m0 3.98v3.98m0 3.98v4m0 3.97v3.97m0 3.98v3.98m0 4v3.97m0 3.98v3.98m0 3.98v4m0 3.97v4m0 3.97v4m0 3.97v3.98m0 3.98v3.98m0 4v3.97m0 3.98v3.98m0 4v3.98m0 3.98v3.98m0 3.98v4m0 3.97v3.97m0 3.98v3.98m0 4v3.97m0 3.98v3.98m0 3.98v4m0 3.97v4m0 3.97v4m0 3.97v3.98m0 3.98v3.98m0 4v3.97m0 3.98v3.98m0 4v3.98m0 3.98v3.98m0 3.98v4m0 3.97v3.97m0 3.98v3.98m0 4v3.97m0 3.98v3.98m0 3.98v4m0 3.97v4m0 3.97v4m0 3.97v3.98m0 3.98v3.98m0 4v3.97m0 3.98v3.98m0 4v3.98m0 3.98v3.98m0 3.98v4m0 3.97v3.97m0 3.98v3.98m0 4v3.97m0 3.98v3.98m0 3.98v4m0 3.97v2" stroke="#333" fill="none"/><path d="M480.5 630.5h-1v-.5h1z" fill="#333"/><path d="M480 1299.5v.5" stroke="#333" fill="none"/><path d="M743 660.5v639" fill="none"/><path d="M743 660.5v2m0 4v3.98m0 4v4m0 4v3.98m0 4v4m0 3.98v4m0 4v3.98m0 4v4m0 3.98v4m0 4v3.98m0 4v4m0 4v3.98m0 4v4m0 3.98v4m0 4v3.98m0 4v4m0 3.98v4m0 4v3.98m0 4v4m0 4v3.98m0 4v4m0 3.98v4m0 4v3.98m0 4v4m0 3.98v4m0 4v3.98m0 4v4m0 4v3.98m0 4v4m0 3.98v4m0 4v3.98m0 4v4m0 3.98v4m0 4v3.98m0 4v4m0 4v3.98m0 4v4m0 3.98v4m0 4V966m0 4v4m0 3.98v4m0 4v3.98m0 4v4m0 4v3.98m0 4v4m0 3.98v4m0 4v3.98m0 4v4m0 3.98v4m0 4v3.98m0 4v4m0 4v3.98m0 4v4m0 3.98v4m0 4v3.98m0 4v4m0 3.98v4m0 4v3.98m0 4v4m0 4v3.98m0 4v4m0 3.98v4m0 4v3.98m0 4v4m0 3.98v4m0 4v3.98m0 4v4m0 4v3.98m0 4v4m0 3.98v4m0 4v3.98m0 4v4m0 3.98v4m0 4v3.98m0 4v4m0 4v3.98m0 4v4m0 3.98v4m0 4v3.98m0 4v4m0 3.98v2" stroke="#333" fill="none"/><path d="M743.5 660.5h-1v-.5h1z" fill="#333"/><path d="M743 1299.5v.5" stroke="#333" fill="none"/><path d="M1006.5 500.5v396.25c0 1.8-1.46 3.25-3.25 3.25-1.8 0-3.25 1.46-3.25 3.25v396.25" fill="none"/><path d="M1006.5 500.5v1.98m0 3.96v3.97m0 3.97v3.96m0 3.96v3.96m0 3.96v3.96m0 3.96v3.97m0 3.97v3.96m0 3.96v3.96m0 3.96v3.96m0 3.96v3.97m0 3.97v3.96m0 3.96v3.96m0 3.96v3.96m0 3.96v3.97m0 3.97v3.96m0 3.96v3.96m0 3.96v3.96m0 3.96v3.97m0 3.97v3.96m0 3.96v3.96m0 3.96v3.96m0 3.96v3.97m0 3.97v3.96m0 3.96v3.96m0 3.96v3.96m0 3.96v3.97m0 3.97v3.96m0 3.96v3.96m0 3.96v3.96m0 3.96v3.97m0 3.97v3.96m0 3.96v3.96m0 3.96v3.96m0 3.96V764m0 3.97v3.96m0 3.96v3.96m0 3.96v3.96m0 3.96v3.97m0 3.97v3.96m0 3.96v3.96m0 3.96v3.96m0 3.96v3.97m0 3.97v3.96m0 3.96v3.96m0 3.96v3.96m0 3.96v3.97m0 3.97v3.96m0 3.96v3.96m0 3.96v3.96m0 3.96v3.97m0 3.97v1.98l-.95 2.3-2.3.95-2.3.95-.95 2.3v1.98m0 3.96v3.96m0 3.96v3.96m0 3.96V929m0 3.97v3.96m0 3.96v3.96m0 3.96v3.96m0 3.96v3.97m0 3.97v3.96m0 3.96v3.96m0 3.96v3.96m0 3.96v3.97m0 3.97v3.96m0 3.96v3.96m0 3.96v3.96m0 3.96v3.97m0 3.97v3.96m0 3.96v3.96m0 3.96v3.96m0 3.96v3.97m0 3.97v3.96m0 3.96v3.96m0 3.96v3.96m0 3.96v3.97m0 3.97v3.96m0 3.96v3.96m0 3.96v3.96m0 3.96v3.97m0 3.97v3.96m0 3.96v3.96m0 3.96v3.96m0 3.96v3.97m0 3.97v3.96m0 3.96v3.96m0 3.96v3.96m0 3.96v3.97m0 3.97v3.96m0 3.96v3.96m0 3.96v3.96m0 3.96v3.97m0 3.97v3.96m0 3.96v3.96m0 3.96v3.96m0 3.96v3.97m0 3.97v3.96m0 3.96v3.96m0 3.96v3.96m0 3.96v3.97m0 3.97v3.96m0 3.96v3.96m0 3.96v1.98M1006.5 500.5v-.5M1000 1299.5v.5" stroke="#333" fill="none"/><path d="M986.5 745c0-2.76 2.24-5 5-5h30c2.76 0 5 2.24 5 5v90c0 2.76-2.24 5-5 5h-30c-2.76 0-5-2.24-5-5z" stroke="#000" stroke-opacity="0" fill="#d6d6d6"/><path d="M1269.75 500.5v799" fill="none"/><path d="M1269.75 500.5v2m0 4v4m0 3.98v4m0 4v4m0 3.98v4m0 4v4m0 3.98v4m0 4v4m0 3.98v4m0 4v4m0 3.98v4m0 4v4m0 3.98v4m0 4v4m0 3.98v4m0 4v4m0 3.98v4m0 4v4m0 3.98v4m0 4v4m0 3.98v4m0 4v4m0 3.98v4m0 4v4m0 3.98v4m0 4v4m0 3.98v4m0 4v4m0 3.98v4m0 4v4m0 3.98v4m0 4v4m0 3.98v4m0 4v4m0 3.98v4m0 4v4m0 3.98v4m0 4v4m0 3.98v4m0 4v4m0 3.98v4m0 4v4m0 3.98v4m0 4v4m0 3.98v4m0 4v4m0 3.98v4m0 4v4m0 3.98v4m0 4v4m0 3.98v4m0 4v4m0 3.98v4m0 4v4m0 3.98v4m0 4v4m0 3.98v4m0 4v4m0 3.98v4m0 4v4m0 3.98v4m0 4v4m0 3.98v4m0 4v4m0 3.98v4m0 4v4m0 3.98v4m0 4v4m0 3.98v4m0 4v4m0 3.98v4m0 4v4m0 3.98v4m0 4v4m0 3.98v4m0 4v4m0 3.98v4m0 4v4m0 3.98v4m0 4v4m0 3.98v4m0 4v4m0 3.98v4m0 4v4m0 3.98v4m0 4v4m0 3.98v4m0 4v4m0 3.98v4m0 4v4m0 3.98v4m0 4v4m0 3.98v4m0 4v4m0 3.98v4m0 4v4m0 3.98v4m0 4v4m0 3.98v4m0 4v4m0 3.98v2M1269.75 500.5v-.5M1269.75 1299.5v.5" stroke="#333" fill="none"/><path d="M1250 925c0-2.76 2.24-5 5-5h30c2.76 0 5 2.24 5 5v90c0 2.76-2.24 5-5 5h-30c-2.76 0-5-2.24-5-5z" stroke="#000" stroke-opacity="0" fill="#d6d6d6"/><path d="M230.13 428.5c0 4.7-3.8 8.5-8.5 8.5s-8.5-3.8-8.5-8.5 3.8-8.5 8.5-8.5 8.5 3.8 8.5 8.5z" stroke="#333" fill="#d6d6d6"/><path d="M200 425c0-2.76 2.24-5 5-5h33.25c2.76 0 5 2.24 5 5v58c0 2.76-2.24 5-5 5H205c-2.76 0-5-2.24-5-5z" fill="none"/><path d="M221.63 437v18.8c0 2.76 1.4 6.75 3.1 8.9l18.52 23.3m-21.63-27.2L200 488m0-42.5h43.25" stroke="#333" fill="none"/><use xlink:href="#j" transform="matrix(1,0,0,1,120,488) translate(74.88300000000001 16.616)"/><path d="M757.77 449.7c-6 0-12.18-1.06-15.48-3.23v27.44c0 3.37 6.95 6.1 15.47 6.1s15.48-2.73 15.48-6.1v-27.43c-3.3 2.03-9.48 3.22-15.48 3.22z" stroke="#000" stroke-opacity="0" fill="#2a3282"/><path d="M773.25 442.7c0-2.74-6.96-4.9-15.48-4.9s-15.48 2.16-15.48 4.9c0 2.72 6.95 4.96 15.47 4.96s15.48-2.24 15.48-4.97z" stroke="#000" stroke-opacity="0" fill="#2a3282"/><path d="M738.4 463v-20.32c0-4.6 6.17-7.13 13.55-7.97v-21.27c0-1.9-1.74-3.43-3.9-3.43H717.1c-2.1 0-3.85 1.54-3.85 3.43v66.43h29.4c-2.7-1.75-4.26-3.78-4.26-6.16v-.63h-19.33v-3.43h19.32v-3.43h-19.33v-3.35h19.32v.14zm-19.33-42.57h27.06v3.36h-27.06v-3.37z" stroke="#000" stroke-opacity="0" fill="#2a3282"/><path d="M880 465c0-2.76 2.24-5 5-5h230c2.76 0 5 2.24 5 5v50c0 2.76-2.24 5-5 5H885c-2.76 0-5-2.24-5-5z" fill="none"/><use xlink:href="#a" transform="matrix(1,0,0,1,880,460) translate(38.57700000000001 35.616)"/><use xlink:href="#k" transform="matrix(1,0,0,1,880,460) translate(110.90100000000001 35.616)"/><use xlink:href="#c" transform="matrix(1,0,0,1,880,460) translate(179.139 35.616)"/><path d="M1014.52 449.7c-6 0-12.18-1.06-15.48-3.23v27.44c0 3.37 6.96 6.1 15.48 6.1s15.48-2.73 15.48-6.1v-27.43c-3.3 2.03-9.48 3.22-15.48 3.22z" stroke="#000" stroke-opacity="0" fill="#2a3282"/><path d="M1030 442.7c0-2.74-6.96-4.9-15.48-4.9s-15.48 2.16-15.48 4.9c0 2.72 6.96 4.96 15.48 4.96s15.48-2.24 15.48-4.97z" stroke="#000" stroke-opacity="0" fill="#2a3282"/><path d="M995.14 463v-20.32c0-4.6 6.18-7.13 13.56-7.97v-21.27c0-1.9-1.74-3.43-3.9-3.43h-30.96c-2.1 0-3.84 1.54-3.84 3.43v66.43h29.4c-2.7-1.75-4.26-3.78-4.26-6.16v-.63h-19.32v-3.43h19.32v-3.43h-19.32v-3.35h19.32v.14zm-19.32-42.57h27.06v3.36h-27.06v-3.37z" stroke="#000" stroke-opacity="0" fill="#2a3282"/><path d="M1140 465c0-2.76 2.24-5 5-5h230c2.76 0 5 2.24 5 5v50c0 2.76-2.24 5-5 5h-230c-2.76 0-5-2.24-5-5z" fill="none"/><use xlink:href="#a" transform="matrix(1,0,0,1,1140,460) translate(54.17400000000001 35.616)"/><use xlink:href="#l" transform="matrix(1,0,0,1,1140,460) translate(126.498 35.616)"/><use xlink:href="#c" transform="matrix(1,0,0,1,1140,460) translate(163.542 35.616)"/><path d="M1274.52 449.7c-6 0-12.18-1.06-15.48-3.23v27.44c0 3.37 6.96 6.1 15.48 6.1s15.48-2.73 15.48-6.1v-27.43c-3.3 2.03-9.48 3.22-15.48 3.22z" stroke="#000" stroke-opacity="0" fill="#2a3282"/><path d="M1290 442.7c0-2.74-6.96-4.9-15.48-4.9s-15.48 2.16-15.48 4.9c0 2.72 6.96 4.96 15.48 4.96s15.48-2.24 15.48-4.97z" stroke="#000" stroke-opacity="0" fill="#2a3282"/><path d="M1255.14 463v-20.32c0-4.6 6.18-7.13 13.56-7.97v-21.27c0-1.9-1.74-3.43-3.9-3.43h-30.96c-2.1 0-3.84 1.54-3.84 3.43v66.43h29.4c-2.7-1.75-4.26-3.78-4.26-6.16v-.63h-19.32v-3.43h19.32v-3.43h-19.32v-3.35h19.32v.14zm-19.32-42.57h27.06v3.36h-27.06v-3.37z" stroke="#000" stroke-opacity="0" fill="#2a3282"/><path d="M1460 400h80v80h-80v-80z" stroke="#fff" stroke-opacity="0" fill="#d6242d"/><path d="M1511.74 465.6c-.24 0-.43-.1-.62-.2-.3-.2-.45-.5-.45-.86v-49.08c0-.36.2-.72.5-.92.33-.2.73-.2 1.07-.05l13.88 6.8c.37.15.6.5.6.92v37.7c0 .52-.28.93-.75 1.08l-13.86 4.6h-.36zm1.08-48.4v45.85l11.72-3.9V422.9zM1488.26 465.6h-.34l-13.87-4.6c-.45-.15-.73-.6-.72-1.07v-37.7c0-.42.23-.78.6-.93l13.86-6.8c.35-.17.73-.17 1.07.04.32.2.5.56.5.92v49.08c0 .35-.16.66-.45.87-.2.16-.4.2-.66.2zm-12.8-6.4l11.74 3.9v-45.9l-11.74 5.74z" stroke="#fff" stroke-opacity="0" fill="#fff"/><path d="M1510.67 429.33h-3.2v-2.13h3.2zm-6.4 0h-3.2v-2.13h3.2zm-6.4 0h-3.2v-2.13h3.2zm-6.4 0h-3.2v-2.13h3.2zM1510.67 452.8h-3.2v-2.13h3.2zm-6.4 0h-3.2v-2.13h3.2zm-6.4 0h-3.2v-2.13h3.2zm-6.4 0h-3.2v-2.13h3.2zM1495.32 443.67l-4-3.42c-.46-.38-.5-1.06-.13-1.5.03-.05.06-.1.1-.13l4-3.42 1.4 1.62-3.06 2.65 3.05 2.6zM1504.7 443.67l-1.4-1.62 3.05-2.58-3.05-2.6 1.38-1.67 4 3.4c.46.4.5 1.07.13 1.52-.03.04-.06.08-.1.1z" stroke="#fff" stroke-opacity="0" fill="#fff"/><path d="M1496.86 445.9l4.24-12.52 2.02.7-4.23 12.52-2.04-.7z" stroke="#fff" stroke-opacity="0" stroke-width=".32" fill="#fff"/><use xlink:href="#m" transform="matrix(1,0,0,1,1430,489) translate(8.053000000000004 16.2)"/><use xlink:href="#k" transform="matrix(1,0,0,1,1430,489) translate(37.879000000000005 16.2)"/><use xlink:href="#n" transform="matrix(1,0,0,1,1430,489) translate(106.11699999999999 16.2)"/><path d="M1504.13 510c-2.28 0-4.13 1.85-4.13 4.13v785.37" fill="none"/><path d="M1504.13 510l-1.47.6m-2.08 2.07l-.57 1.25v2.2m0 4.02v4m0 4v4.02m0 4v4m0 4.02v4m0 4v4.02m0 4v4m0 4.02v4m0 4v4.02m0 4v4m0 4.02v4m0 4.02v4m0 4v4.02m0 4v4m0 4.02v4m0 4v4.02m0 4v4m0 4.02v4m0 4v4.02m0 4v4.02m0 4v4m0 4.02v4m0 4v4.02m0 4v4m0 4.02v4m0 4v4.02m0 4v4m0 4.02v4m0 4v4.02m0 4v4.02m0 4v4m0 4.02v4m0 4v4.02m0 4v4m0 4.02v4m0 4v4.02m0 4v4m0 4.02v4m0 4v4.02m0 4v4.02m0 4v4m0 4.02v4m0 4v4.02m0 4v4m0 4.02v4m0 4v4.02m0 4v4m0 4.02v4m0 4v4.02m0 4v4.02m0 4v4m0 4.02v4m0 4v4.02m0 4v4m0 4.02v4m0 4v4.02m0 4v4m0 4.02v4m0 4.02v4m0 4v4.02m0 4v4m0 4.02v4m0 4v4.02m0 4v4m0 4.02v4m0 4v4.02m0 4v4m0 4.02v4m0 4.02v4m0 4v4.02m0 4v4m0 4.02v4m0 4v4.02m0 4v4m0 4.02v4m0 4v4.02m0 4v4m0 4.02v4m0 4.02v4m0 4v4.02m0 4v4m0 4.02v4m0 4v4.02m0 4v4m0 4.02v4m0 4v4.02m0 4v4.02m0 4v4m0 4.02v4m0 4v4.02m0 4v4m0 4.02v4m0 4v4.02m0 4v4m0 4.02v4m0 4v4.02m0 4v4.02m0 4v4m0 4.02v2M1504.1 510h.53M1500 1299.5v.5" stroke="#333" fill="none"/><path d="M1480 1085c0-2.76 2.24-5 5-5h30c2.76 0 5 2.24 5 5v70c0 2.76-2.24 5-5 5h-30c-2.76 0-5-2.24-5-5z" stroke="#000" stroke-opacity="0" fill="#d6d6d6"/><path d="M237.5 582.06l221.97-.76M237.5 582.06h-.5" stroke="#333" fill="none"/><path d="M460 580.87l-.5.86-18.12-10.63.5-.86z" fill="#333"/><use xlink:href="#o" transform="matrix(1,0,0,1,278.86223830512074,556.514220309394) translate(0 16.2)"/><use xlink:href="#h" transform="matrix(1,0,0,1,278.86223830512074,556.514220309394) translate(61.884 16.2)"/><use xlink:href="#p" transform="matrix(1,0,0,1,278.86223830512074,556.514220309394) translate(73.062 16.2)"/><path d="M500.5 589.34h206.12" stroke="#333" fill="none"/><path d="M500.5 589.84h-.5v-1h.5zM721.38 589.34l-14.26 4.63v-9.27z" fill="#333"/><path d="M723 589.34l-16.38 5.32V584zm-15.38 3.94l12.14-3.94-12.14-3.95z" fill="#333"/><path d="M722.5 646.47l-241.52-.35" stroke="#333" fill="none"/><path d="M723 645.97v1h-.5v-1z" fill="#333"/><path d="M499.07 635.46l-18.1 10.66 18.07 10.72" stroke="#333" fill="none"/><use xlink:href="#q" transform="matrix(1,0,0,1,540.2529517345115,621.1273522353207) translate(0 16.2)"/><path d="M240.5 781.5l238.97-.34M240.5 781.5h-.5M461.65 770.5l18.1 10.66" stroke="#333" fill="none"/><use xlink:href="#r" transform="matrix(1,0,0,1,273.12184428138573,756.1691956781076) translate(0 16.2)"/><path d="M480.5 781.16H738c0-2.76 2.24-5 5-5s5 2.24 5 5h222.12M480.5 781.16h-.5" stroke="#333" fill="none"/><path d="M984.88 781.16l-14.26 4.64v-9.27z" fill="#333"/><path d="M986.5 781.16l-16.38 5.33v-10.66zm-15.38 3.95l12.14-3.94-12.14-3.94z" fill="#333"/><path d="M1027 756.85h65c2.76 0 5 2.24 5 5v26.48c0 2.76-2.24 5-5 5h-35.62" stroke="#333" fill="none"/><path d="M1027 757.35h-.5v-1h.5z" fill="#333"/><path d="M1041.62 793.33l14.26-4.63v9.27z" stroke="#333" fill="#333"/><use xlink:href="#s" transform="matrix(1,0,0,1,1026.7535884133745,732.3153334763437) translate(0 16.2)"/><path d="M986 813.63l-238 .2c0-2.76-2.24-5-5-5-2.77 0-5 2.25-5 5l-257.02.23" stroke="#333" fill="none"/><path d="M986.5 814.13h-.5v-1h.5z" fill="#333"/><path d="M499.05 803.35l-18.07 10.7 18.1 10.68" stroke="#333" fill="none"/><use xlink:href="#q" transform="matrix(1,0,0,1,671.2454440236174,788.6756100663576) translate(0 16.2)"/><path d="M240.5 947.02l238.97.35M240.5 947.02h-.5M461.7 936.65l18.05 10.72" stroke="#333" fill="none"/><use xlink:href="#t" transform="matrix(1,0,0,1,290.2011511384879,922.0277295576464) translate(0 16.2)"/><path d="M480.5 949.1L738 948c0-2.76 2.22-5 4.98-5.02 2.76 0 5 2.22 5.02 4.98l247-1.06c0-2.76 2.22-5 4.98-5.02 2.76 0 5 2.22 5.02 4.98l228.62-.97M480.5 949.1h-.5" stroke="#333" fill="none"/><path d="M1248.38 945.82l-14.24 4.7-.04-9.27z" fill="#333"/><path d="M1250 945.82l-16.36 5.4-.05-10.66zm-15.37 4l12.13-4-12.16-3.88z" fill="#333"/><path d="M1249.5 983.03l-244.5-.77c0-2.76-2.22-5-4.98-5-2.77-.02-5 2.2-5.02 4.97l-247-.78c0-2.76-2.22-5-4.98-5-2.77-.02-5 2.2-5.02 4.97l-257.02-.8" stroke="#333" fill="none"/><path d="M1250 982.53v1h-.5v-1z" fill="#333"/><path d="M499.1 969.98l-18.12 10.63 18.04 10.76" stroke="#333" fill="none"/><use xlink:href="#q" transform="matrix(1,0,0,1,804.3271171148978,956.654980763227) translate(0 16.2)"/><path d="M1290.5 939.6h84.5c2.76 0 5 2.23 5 5v26.88c0 2.76-2.24 5-5 5h-35.62" stroke="#333" fill="none"/><path d="M1290.5 940.1h-.5v-1h.5z" fill="#333"/><path d="M1324.62 976.48l14.26-4.63v9.27z" stroke="#333" fill="#333"/><use xlink:href="#u" transform="matrix(1,0,0,1,1290.838787731252,914.4257211449675) translate(0 16.2)"/><path d="M240.5 1106.48l238.97.17M240.5 1106.48h-.5M461.68 1095.95l18.07 10.7" stroke="#333" fill="none"/><use xlink:href="#v" transform="matrix(1,0,0,1,301.94251414106475,1081.3971691529173) translate(0 16.2)"/><path d="M222.13 510H235c2.76 0 5 2.24 5 5v62.05c-2.76 0-5 2.24-5 5s2.24 5 5 5v712.45" fill="none"/><path d="M222.13 510h1.6m3.22 0h3.22m3.22 0h1.6l1.84.6m2.7 2.55l.2.27.26 1.58v1.94m0 3.88v3.88m0 3.87v3.88m0 3.88v3.88m0 3.9v3.87m0 3.87v3.88m0 3.88v3.88m0 3.88v3.88m0 3.87v1.95l-1.84.6m-2.7 2.55l-.2.27-.26 1.58.6 1.84m2.55 2.7l.27.2 1.58.25v2m0 4v4m0 4v4m0 4.02v4m0 4v4m0 4v4m0 4v4m0 4.02v4m0 4v4m0 4v4m0 4v4m0 4v4m0 4v4m0 4.02v4m0 4v4m0 4v4m0 4v4m0 4.02v4m0 4v4m0 4v4m0 4v4.02m0 4v4m0 4v4m0 4v4m0 4v4.02m0 4v4m0 4v4m0 4v4m0 4v4.02m0 4v4m0 4v4m0 4v4m0 4v4.02m0 4v4m0 4v4m0 4v4m0 4v4.02m0 4v4m0 4v4m0 4v4m0 4v4.02m0 4v4m0 4v4m0 4v4m0 4v4.02m0 4v4m0 4v4m0 4v4m0 4v4.02m0 4v4m0 4v4m0 4v4m0 4v4.02m0 4v4m0 4v4m0 4v4m0 4v4.02m0 4v4m0 4v4m0 4v4m0 4v4.02m0 4v4m0 4v4m0 4v4m0 4v4.02m0 4v4m0 4v4m0 4v4m0 4v4.02m0 4v4m0 4v4m0 4v4m0 4v4.02m0 4v4m0 4v4m0 4v4m0 4v4.02m0 4v4m0 4v4m0 4v4m0 4v4.02m0 4v4m0 4v4m0 4v4m0 4v4.02m0 4v4m0 4v4m0 4v4m0 4v4.02m0 4v2" stroke="#333" fill="none"/><path d="M222.14 510.5h-3.5v-1h3.5z" fill="#333"/><path d="M240 1299.5v.5" stroke="#333" fill="none"/><path d="M980 1085c0-2.76 2.24-5 5-5h30c2.76 0 5 2.24 5 5v70c0 2.76-2.24 5-5 5h-30c-2.76 0-5-2.24-5-5z" stroke="#000" stroke-opacity="0" fill="#d6d6d6"/><path d="M480.5 1106.65l257.5.1c0-2.77 2.24-5 5-5s5 2.23 5 5l247 .08c0-2.76 2.24-5 5-5s5 2.25 5 5l259.75.1c0-2.76 2.24-5 5-5s5 2.24 5 5l188.87.07M480.5 1106.65h-.5" stroke="#333" fill="none"/><path d="M1478.38 1107l-14.27 4.64.02-9.27z" fill="#333"/><path d="M1480 1107l-16.4 5.33.02-10.65zm-15.4 3.95l12.16-3.94-12.14-3.94z" fill="#333"/><path d="M1520.25 1083.42H1625c2.76 0 5 2.24 5 5V1115c0 2.76-2.24 5-5 5h-48.62" stroke="#333" fill="none"/><path d="M1520.26 1083.92h-.43l-.08-.5-.37-.5h.88z" fill="#333"/><path d="M1561.62 1120l14.26-4.64v9.28z" stroke="#333" fill="#333"/><use xlink:href="#w" transform="matrix(1,0,0,1,1513.1657535998152,1058.251613) translate(0 16.2)"/><path d="M1479.5 1140h-204.75c0-2.76-2.24-5-5-5s-5 2.24-5 5h-243.77" stroke="#333" fill="none"/><path d="M1480 1140.5h-.5v-1h.5zM1039.3 1129.74l-17.34 10.26 17.35 10.26-.5.86L1020 1140l18.8-11.12z" fill="#333"/><use xlink:href="#x" transform="matrix(1,0,0,1,1056.5752382271469,1143.9999999999998) translate(0.0049999999999954525 16.2)"/><path d="M979.5 1140l-231.5-1.02c0-2.76-2.22-5-4.98-5.02-2.76 0-5 2.22-5.02 4.98l-257.02-1.12" stroke="#333" fill="none"/><path d="M980 1139.5v1h-.52v-1z" fill="#333"/><path d="M499.1 1127.2l-18.12 10.62 18.03 10.76" stroke="#333" fill="none"/><use xlink:href="#y" transform="matrix(1,0,0,1,620.8645903073768,1142.684010290381) translate(0 16.2)"/><path d="M500 180h720v60H500z" fill="none"/><use xlink:href="#z" transform="matrix(1,0,0,1,500,180) translate(126.37537037037033 36.333333333333336)"/><use xlink:href="#A" transform="matrix(1,0,0,1,500,180) translate(251.85685185185184 36.333333333333336)"/><use xlink:href="#B" transform="matrix(1,0,0,1,500,180) translate(354.005 36.333333333333336)"/><use xlink:href="#C" transform="matrix(1,0,0,1,500,180) translate(487.11611111111114 36.333333333333336)"/><path d="M1480 1225c0-2.76 2.24-5 5-5h30c2.76 0 5 2.24 5 5v70c0 2.76-2.24 5-5 5h-30c-2.76 0-5-2.24-5-5z" stroke="#000" stroke-opacity="0" fill="#d6d6d6"/><path d="M1520.5 1226.34h124.75c2.77 0 5 2.24 5 5v30.28c0 2.76-2.23 5-5 5h-68.87" stroke="#333" fill="none"/><path d="M1520.5 1226.84h-.5v-1h.5z" fill="#333"/><path d="M1561.62 1266.62l14.26-4.63v9.26z" stroke="#333" fill="#333"/><g><use xlink:href="#D" transform="matrix(1,0,0,1,1546.6299564623578,1201.17405067313) translate(0 16.2)"/></g><path d="M1479.5 1240l-204.75.18c0-2.76-2.24-5-5-5-2.77 0-5 2.24-5 5l-263.77.23" stroke="#333" fill="none"/><path d="M1480 1240.5h-.5v-1h.5z" fill="#333"/><path d="M1019.05 1229.7l-18.07 10.7 18.1 10.7" stroke="#333" fill="none"/><g><use xlink:href="#E" transform="matrix(1,0,0,1,1080.461783731019,1244.3058912679746) translate(0.005000000000002558 16.2)"/></g><path d="M999.5 1241.37L748 1240.3c0-2.75-2.22-5-4.98-5-2.76-.02-5 2.2-5.02 4.97l-257.02-1.08M999.5 1241.37h.5" stroke="#333" fill="none"/><path d="M499.1 1228.57l-18.12 10.62 18.03 10.75" stroke="#333" fill="none"/><g><use xlink:href="#F" transform="matrix(1,0,0,1,635.8785964704251,1244.055925446882) translate(0 16.2)"/></g><g><use xlink:href="#G" transform="matrix(1,0,0,1,435.46152362047053,1214.0165540304624) translate(0.005000000000002558 16.2)"/></g><defs><path fill="#333" d="M222-231c6 38 10 79 17 116l17-118 144-467h40l145 469c6 38 10 79 18 116l18-118 118-467h81L625 11h-46L437-458l-18-106h-5l-18 107L254 11h-46L8-700h88" id="H"/><path fill="#333" d="M94-500h80V0H94v-500zm38-99c-31 0-55-23-55-53s24-56 55-56 58 26 58 56-28 53-58 53" id="I"/><path fill="#333" d="M203-225h-46V0H77v-700h80v426l41-14 155-212h93L293-299l-41 33 50 40L469 0h-99" id="J"/><path fill="#333" d="M189 12C123 10 86-25 86-100v-600h80v577c-10 72 59 74 108 54l9 63c-18 10-66 18-94 18" id="K"/><path fill="#333" d="M568-442c-74 2-103 45-118 108V0h-80v-283c0-87-6-159-94-159-65 0-104 47-119 98V0H77v-500h56l15 61h4c37-41 77-74 155-73 72 1 105 26 126 83 28-48 82-81 155-83 130-3 155 82 155 212V0h-80v-301c1-83-12-143-95-141" id="L"/><path fill="#333" d="M268 12C112 12 51-93 49-250c-1-158 69-262 219-262 156 0 217 105 219 262 1 158-69 262-219 262zm136-262c0-105-32-190-136-192-91-2-136 63-136 192 0 105 33 189 136 192 91 2 136-63 136-192" id="M"/><g id="a"><use transform="matrix(0.018,0,0,0.018,0,0)" xlink:href="#H"/><use transform="matrix(0.018,0,0,0.018,14.903999999999998,0)" xlink:href="#I"/><use transform="matrix(0.018,0,0,0.018,19.727999999999998,0)" xlink:href="#J"/><use transform="matrix(0.018,0,0,0.018,28.349999999999998,0)" xlink:href="#I"/><use transform="matrix(0.018,0,0,0.018,33.174,0)" xlink:href="#K"/><use transform="matrix(0.018,0,0,0.018,38.43,0)" xlink:href="#I"/><use transform="matrix(0.018,0,0,0.018,43.254,0)" xlink:href="#L"/><use transform="matrix(0.018,0,0,0.018,57.87,0)" xlink:href="#M"/><path fill="#333" d="M-.9.9h74.12v.9H-.9z"/></g><path fill="#333" d="M85-700h381v74H168v239h278v74H168V0H85v-700" id="N"/><path fill="#333" d="M422-354c0 120-19 253 8 356h-59l-21-70h-5C315-22 265 8 189 8 98 8 39-43 39-134c0-147 152-157 302-151 10-93 1-159-99-153-57 4-110 14-148 35l-25-60c48-30 118-45 194-45 108-1 159 51 159 154zM122-142c-2 47 40 81 89 80 67-1 109-32 130-79v-83c-95-3-214-10-219 82" id="O"/><path fill="#333" d="M152-439c26-60 97-88 178-61l-17 77c-74-29-156 5-156 73V0H77v-500h56l15 61h4" id="P"/><path fill="#333" d="M293-58c43 0 98-19 119-40l30 58C404-9 338 12 270 12 112 10 51-92 49-250c-1-159 70-258 220-262 155-4 211 110 184 270H132c0 116 45 184 161 184zm88-247c1-92-30-137-111-137-89 0-129 46-137 137h248" id="Q"/><g id="b"><use transform="matrix(0.018,0,0,0.018,0,0)" xlink:href="#N"/><use transform="matrix(0.018,0,0,0.018,9.306,0)" xlink:href="#O"/><use transform="matrix(0.018,0,0,0.018,18.233999999999998,0)" xlink:href="#P"/><use transform="matrix(0.018,0,0,0.018,24.354,0)" xlink:href="#L"/><use transform="matrix(0.018,0,0,0.018,38.97,0)" xlink:href="#Q"/><use transform="matrix(0.018,0,0,0.018,48.114,0)" xlink:href="#P"/><path fill="#333" d="M-.9.9h60.84v.9H-.9z"/></g><path fill="#333" d="M262 9C206 9 136 6 85 1v-701c55-8 125-8 187-8 221 0 326 133 326 353C598-133 489 9 262 9zm248-364c0-173-76-287-264-279-26 1-55 2-78 5v560c27 3 67 4 96 4 176 0 246-117 246-290" id="R"/><path fill="#333" d="M85-694c171-23 429-43 422 154-3 92-55 144-132 165v4c90 17 153 67 153 172C528-40 396 12 227 8 178 7 125 5 85-5v-689zm83 623c126 19 272 6 272-122 0-133-136-132-272-129v251zm251-452c4-121-140-121-251-107v238c64-1 139 3 178-24 36-24 71-50 73-107" id="S"/><g id="c"><use transform="matrix(0.018,0,0,0.018,0,0)" xlink:href="#R"/><use transform="matrix(0.018,0,0,0.018,11.771999999999998,0)" xlink:href="#S"/><path fill="#333" d="M-.9.9h24.08v.9H-.9z"/></g><g id="d"><use transform="matrix(0.018,0,0,0.018,0,0)" xlink:href="#H"/><use transform="matrix(0.018,0,0,0.018,14.903999999999998,0)" xlink:href="#I"/><use transform="matrix(0.018,0,0,0.018,19.727999999999998,0)" xlink:href="#J"/><use transform="matrix(0.018,0,0,0.018,28.349999999999998,0)" xlink:href="#I"/><use transform="matrix(0.018,0,0,0.018,33.174,0)" xlink:href="#K"/><use transform="matrix(0.018,0,0,0.018,38.43,0)" xlink:href="#I"/><use transform="matrix(0.018,0,0,0.018,43.254,0)" xlink:href="#L"/><use transform="matrix(0.018,0,0,0.018,57.87,0)" xlink:href="#M"/><path fill="#333" d="M-.9.9h69.32v.9H-.9z"/></g><path fill="#333" d="M418-194H160L90 0H8l265-711h38L577 0h-87zm-231-72h206c-37-104-80-202-104-319-21 119-66 215-102 319" id="T"/><path fill="#333" d="M262 12c-51 0-69-5-105-20v208H77v-700h55l15 60h4c28-43 75-72 143-72 149 0 198 89 198 252 0 161-73 272-230 272zm147-273c-1-103-28-181-130-181-75 0-107 41-122 107v248c27 20 53 30 102 29 104-2 152-86 150-203" id="U"/><path fill="#333" d="M281-58c46 1 86-17 111-36l26 61c-37 28-94 45-157 45C104 12 53-93 49-250c-5-188 108-294 299-254 22 5 42 12 60 21l-23 69c-29-16-66-28-111-28-95 0-142 64-142 192 0 110 39 189 149 192" id="V"/><path fill="#333" d="M200 12C109 10 89-39 89-138v-292H11v-70h78v-99l80-23v122h136v70H169v277c1 59 6 93 57 95 38 1 55-9 84-20l18 61c-35 17-77 30-128 29" id="W"/><path fill="#333" d="M313-512c130 0 165 79 165 210V0h-80v-285c-2-94-16-155-105-157-72-1-118 46-136 100V0H77v-500h56l15 61h4c32-42 86-73 161-73" id="X"/><g id="e"><use transform="matrix(0.018,0,0,0.018,0,0)" xlink:href="#T"/><use transform="matrix(0.018,0,0,0.018,10.53,0)" xlink:href="#U"/><use transform="matrix(0.018,0,0,0.018,20.268000000000004,0)" xlink:href="#U"/><use transform="matrix(0.018,0,0,0.018,30.006,0)" xlink:href="#K"/><use transform="matrix(0.018,0,0,0.018,35.262,0)" xlink:href="#I"/><use transform="matrix(0.018,0,0,0.018,40.086,0)" xlink:href="#V"/><use transform="matrix(0.018,0,0,0.018,48.20399999999999,0)" xlink:href="#O"/><use transform="matrix(0.018,0,0,0.018,57.13199999999999,0)" xlink:href="#W"/><use transform="matrix(0.018,0,0,0.018,63.23399999999999,0)" xlink:href="#I"/><use transform="matrix(0.018,0,0,0.018,68.05799999999999,0)" xlink:href="#M"/><use transform="matrix(0.018,0,0,0.018,77.70599999999999,0)" xlink:href="#X"/><path fill="#333" d="M-.9.9h94.16v.9H-.9z"/></g><path fill="#333" d="M336-65c119-3 151-64 151-191v-444h80v467C566-76 490 8 335 9 175 10 85-60 85-217v-483h83v444c-2 124 45 193 168 191" id="Y"/><path fill="#333" d="M104-700h83V0h-83v-700" id="Z"/><g id="f"><use transform="matrix(0.018,0,0,0.018,0,0)" xlink:href="#Y"/><use transform="matrix(0.018,0,0,0.018,11.735999999999999,0)" xlink:href="#Z"/><path fill="#333" d="M-.9.9h18.77v.9H-.9z"/></g><path fill="#333" d="M63-93c59 36 240 71 234-43-5-91-121-82-179-124-34-24-62-54-62-113 0-97 59-138 155-139 66-1 112 13 154 32l-19 66c-52-26-221-63-210 39 9 83 124 74 178 118 33 27 64 57 63 118-3 103-68 149-174 151C134 13 81-3 39-25" id="aa"/><g id="g"><use transform="matrix(0.018,0,0,0.018,0,0)" xlink:href="#V"/><use transform="matrix(0.018,0,0,0.018,8.117999999999999,0)" xlink:href="#P"/><use transform="matrix(0.018,0,0,0.018,14.237999999999996,0)" xlink:href="#Q"/><use transform="matrix(0.018,0,0,0.018,23.381999999999998,0)" xlink:href="#O"/><use transform="matrix(0.018,0,0,0.018,32.309999999999995,0)" xlink:href="#W"/><use transform="matrix(0.018,0,0,0.018,38.21399999999999,0)" xlink:href="#Q"/><use transform="matrix(0.018,0,0,0.018,47.35799999999999,0)" xlink:href="#Y"/><use transform="matrix(0.018,0,0,0.018,59.09399999999999,0)" xlink:href="#aa"/><use transform="matrix(0.018,0,0,0.018,66.67199999999998,0)" xlink:href="#Q"/><use transform="matrix(0.018,0,0,0.018,75.81599999999999,0)" xlink:href="#P"/></g><path fill="#333" d="M328-712l63 28L26 140l-63-28" id="ab"/><use transform="matrix(0.018,0,0,0.018,0,0)" xlink:href="#ab" id="h"/><path fill="#333" d="M101-500c50 129 110 248 149 388 32-143 91-259 137-388h86L260 11h-34L9-500h92" id="ac"/><path fill="#333" d="M276-509c50 0 69 4 105 17v-208h80v528c1 67-1 118 10 174h-54l-20-71h-4c-25 44-78 82-147 81C97 8 50-86 49-248c-1-159 77-260 227-261zM132-248c1 104 26 190 127 190 75 0 108-41 122-107v-248c-27-20-53-26-102-26-105 0-148 72-147 191" id="ad"/><path fill="#333" d="M140-243c0 179 54 323 138 426l-51 37C82 82 14-227 98-482c29-88 73-167 132-230l48 35c-85 108-138 247-138 434" id="ae"/><path fill="#333" d="M140-249c0-178-54-323-138-426l51-37C198-574 266-265 182-10c-29 88-73 167-132 230L2 185C87 77 140-63 140-249" id="af"/><g id="i"><use transform="matrix(0.018,0,0,0.018,0,0)" xlink:href="#ac"/><use transform="matrix(0.018,0,0,0.018,8.676,0)" xlink:href="#O"/><use transform="matrix(0.018,0,0,0.018,17.604,0)" xlink:href="#K"/><use transform="matrix(0.018,0,0,0.018,22.86,0)" xlink:href="#I"/><use transform="matrix(0.018,0,0,0.018,27.683999999999997,0)" xlink:href="#ad"/><use transform="matrix(0.018,0,0,0.018,37.367999999999995,0)" xlink:href="#O"/><use transform="matrix(0.018,0,0,0.018,46.295999999999985,0)" xlink:href="#W"/><use transform="matrix(0.018,0,0,0.018,52.19999999999999,0)" xlink:href="#Q"/><use transform="matrix(0.018,0,0,0.018,61.34399999999999,0)" xlink:href="#Y"/><use transform="matrix(0.018,0,0,0.018,73.07999999999998,0)" xlink:href="#aa"/><use transform="matrix(0.018,0,0,0.018,80.65799999999999,0)" xlink:href="#Q"/><use transform="matrix(0.018,0,0,0.018,89.80199999999999,0)" xlink:href="#P"/><use transform="matrix(0.018,0,0,0.018,95.922,0)" xlink:href="#ae"/><use transform="matrix(0.018,0,0,0.018,100.962,0)" xlink:href="#af"/></g><g id="j"><use transform="matrix(0.018,0,0,0.018,0,0)" xlink:href="#N"/><use transform="matrix(0.018,0,0,0.018,9.306,0)" xlink:href="#O"/><use transform="matrix(0.018,0,0,0.018,18.233999999999998,0)" xlink:href="#P"/><use transform="matrix(0.018,0,0,0.018,24.354,0)" xlink:href="#L"/><use transform="matrix(0.018,0,0,0.018,38.97,0)" xlink:href="#Q"/><use transform="matrix(0.018,0,0,0.018,48.114,0)" xlink:href="#P"/><path fill="#333" d="M-.9.9h56.03v.9H-.9z"/></g><path fill="#333" d="M314-512c131 0 164 78 164 210V0h-80v-285c1-91-15-157-107-157-66 0-134 50-134 109V0H77v-700h80v256h4c35-40 79-68 153-68" id="ag"/><g id="k"><use transform="matrix(0.018,0,0,0.018,0,0)" xlink:href="#H"/><use transform="matrix(0.018,0,0,0.018,14.148,0)" xlink:href="#Q"/><use transform="matrix(0.018,0,0,0.018,23.291999999999998,0)" xlink:href="#O"/><use transform="matrix(0.018,0,0,0.018,32.22,0)" xlink:href="#W"/><use transform="matrix(0.018,0,0,0.018,38.321999999999996,0)" xlink:href="#ag"/><use transform="matrix(0.018,0,0,0.018,48.167999999999985,0)" xlink:href="#Q"/><use transform="matrix(0.018,0,0,0.018,57.31199999999999,0)" xlink:href="#P"/><path fill="#333" d="M-.9.9h70.04v.9H-.9z"/></g><path fill="#333" d="M522-493c0 190-158 248-354 227V0H85v-693c48-12 110-15 169-15 155 0 268 57 268 215zm-88 0c0-134-136-157-266-137v290c139 17 266-9 266-153" id="ah"/><g id="l"><use transform="matrix(0.018,0,0,0.018,0,0)" xlink:href="#ah"/><use transform="matrix(0.018,0,0,0.018,9.414,0)" xlink:href="#Q"/><use transform="matrix(0.018,0,0,0.018,18.558,0)" xlink:href="#aa"/><use transform="matrix(0.018,0,0,0.018,26.136,0)" xlink:href="#W"/><path fill="#333" d="M-.9.9h38.84v.9H-.9z"/></g><path fill="#333" d="M85-700h381v74H168v229h273v74H168v249h303V0H85v-700" id="ai"/><path fill="#333" d="M208-256L40-500h98c42 64 91 121 123 195 33-74 83-131 126-195h90L308-260 487 0h-95c-46-70-100-132-136-212-37 80-92 142-139 212H28" id="aj"/><g id="m"><use transform="matrix(0.018,0,0,0.018,0,0)" xlink:href="#ai"/><use transform="matrix(0.018,0,0,0.018,9.648,0)" xlink:href="#aj"/><use transform="matrix(0.018,0,0,0.018,18.918,0)" xlink:href="#W"/><path fill="#333" d="M-.9.9h31.63v.9H-.9z"/></g><g id="n"><use transform="matrix(0.018,0,0,0.018,0,0)" xlink:href="#T"/><use transform="matrix(0.018,0,0,0.018,10.53,0)" xlink:href="#ah"/><use transform="matrix(0.018,0,0,0.018,20.592,0)" xlink:href="#Z"/><path fill="#333" d="M-.9.9h27.63v.9H-.9z"/></g><path fill="#333" d="M290-509c71-1 121 13 170 30V23c0 132-72 189-204 189-71 0-115-8-159-27l21-68c37 13 69 25 124 25 122 0 148-66 139-191h-4c-28 39-65 61-132 60C95 9 50-86 49-248c-1-166 78-261 241-261zM132-249c2 104 25 190 127 190 75 0 106-39 121-105v-256c-27-13-61-19-102-19-103 0-147 74-146 190" id="ak"/><g id="o"><use transform="matrix(0.018,0,0,0.018,0,0)" xlink:href="#aa"/><use transform="matrix(0.018,0,0,0.018,7.577999999999999,0)" xlink:href="#I"/><use transform="matrix(0.018,0,0,0.018,12.402,0)" xlink:href="#ak"/><use transform="matrix(0.018,0,0,0.018,22.067999999999998,0)" xlink:href="#X"/><use transform="matrix(0.018,0,0,0.018,31.913999999999998,0)" xlink:href="#Z"/><use transform="matrix(0.018,0,0,0.018,37.151999999999994,0)" xlink:href="#X"/><use transform="matrix(0.018,0,0,0.018,46.998000000000005,0)" xlink:href="#ae"/><use transform="matrix(0.018,0,0,0.018,52.038000000000004,0)" xlink:href="#af"/></g><g id="p"><use transform="matrix(0.018,0,0,0.018,0,0)" xlink:href="#aa"/><use transform="matrix(0.018,0,0,0.018,7.577999999999999,0)" xlink:href="#I"/><use transform="matrix(0.018,0,0,0.018,12.402,0)" xlink:href="#ak"/><use transform="matrix(0.018,0,0,0.018,22.067999999999998,0)" xlink:href="#X"/><use transform="matrix(0.018,0,0,0.018,31.913999999999998,0)" xlink:href="#Y"/><use transform="matrix(0.018,0,0,0.018,43.65,0)" xlink:href="#U"/><use transform="matrix(0.018,0,0,0.018,53.388,0)" xlink:href="#ae"/><use transform="matrix(0.018,0,0,0.018,58.428,0)" xlink:href="#af"/></g><path fill="#333" d="M104-500c49 140 107 271 148 420h5c31-148 79-280 119-420h81C396-319 339-134 276 44c-20 55-46 106-82 140-28 26-82 25-117 11l14-69c34 12 54 2 79-24 17-20 32-54 43-102L12-500h92" id="al"/><path fill="#333" d="M74-100c89 50 337 72 327-78-8-132-168-134-251-198-46-36-87-77-87-158 0-190 253-210 408-146l-25 73c-38-17-105-31-168-31-104 0-173 93-107 164 94 102 313 99 313 289C484-48 386 9 246 12 162 13 95-2 46-25" id="am"/><path fill="#333" d="M232 12C103 12 68-68 69-198v-302h80v285c0 87 12 158 98 157 78-1 111-51 135-108v-334h80c4 166-10 350 11 500h-55l-20-79h-5c-31 50-80 91-161 91" id="an"/><g id="q"><use transform="matrix(0.018,0,0,0.018,0,0)" xlink:href="#ad"/><use transform="matrix(0.018,0,0,0.018,9.684,0)" xlink:href="#I"/><use transform="matrix(0.018,0,0,0.018,14.508,0)" xlink:href="#aa"/><use transform="matrix(0.018,0,0,0.018,22.086,0)" xlink:href="#U"/><use transform="matrix(0.018,0,0,0.018,31.823999999999998,0)" xlink:href="#K"/><use transform="matrix(0.018,0,0,0.018,37.08,0)" xlink:href="#O"/><use transform="matrix(0.018,0,0,0.018,46.007999999999996,0)" xlink:href="#al"/><use transform="matrix(0.018,0,0,0.018,54.395999999999994,0)" xlink:href="#am"/><use transform="matrix(0.018,0,0,0.018,63.95399999999999,0)" xlink:href="#an"/><use transform="matrix(0.018,0,0,0.018,73.65599999999999,0)" xlink:href="#V"/><use transform="matrix(0.018,0,0,0.018,81.35999999999997,0)" xlink:href="#V"/><use transform="matrix(0.018,0,0,0.018,89.06399999999998,0)" xlink:href="#Q"/><use transform="matrix(0.018,0,0,0.018,98.20799999999997,0)" xlink:href="#aa"/><use transform="matrix(0.018,0,0,0.018,105.78599999999999,0)" xlink:href="#aa"/><use transform="matrix(0.018,0,0,0.018,113.36399999999999,0)" xlink:href="#ae"/><use transform="matrix(0.018,0,0,0.018,118.404,0)" xlink:href="#af"/></g><path fill="#333" d="M493-515c2 111-71 179-159 201l48 37L556 0h-97L266-302l-98-15V0H85v-693c47-9 123-15 178-15 137 2 227 56 230 193zm-88 3c-1-85-69-132-167-124-24 2-50 2-70 6v258c131 10 239-16 237-140" id="ao"/><g id="r"><use transform="matrix(0.018,0,0,0.018,0,0)" xlink:href="#V"/><use transform="matrix(0.018,0,0,0.018,8.117999999999999,0)" xlink:href="#P"/><use transform="matrix(0.018,0,0,0.018,14.237999999999996,0)" xlink:href="#Q"/><use transform="matrix(0.018,0,0,0.018,23.381999999999998,0)" xlink:href="#O"/><use transform="matrix(0.018,0,0,0.018,32.309999999999995,0)" xlink:href="#W"/><use transform="matrix(0.018,0,0,0.018,38.21399999999999,0)" xlink:href="#Q"/><use transform="matrix(0.018,0,0,0.018,47.35799999999999,0)" xlink:href="#H"/><use transform="matrix(0.018,0,0,0.018,61.505999999999986,0)" xlink:href="#Q"/><use transform="matrix(0.018,0,0,0.018,70.64999999999999,0)" xlink:href="#O"/><use transform="matrix(0.018,0,0,0.018,79.57799999999999,0)" xlink:href="#W"/><use transform="matrix(0.018,0,0,0.018,85.67999999999999,0)" xlink:href="#ag"/><use transform="matrix(0.018,0,0,0.018,95.526,0)" xlink:href="#Q"/><use transform="matrix(0.018,0,0,0.018,104.67,0)" xlink:href="#P"/><use transform="matrix(0.018,0,0,0.018,110.79,0)" xlink:href="#ao"/><use transform="matrix(0.018,0,0,0.018,120.636,0)" xlink:href="#Q"/><use transform="matrix(0.018,0,0,0.018,129.78,0)" xlink:href="#U"/><use transform="matrix(0.018,0,0,0.018,139.518,0)" xlink:href="#M"/><use transform="matrix(0.018,0,0,0.018,149.166,0)" xlink:href="#P"/><use transform="matrix(0.018,0,0,0.018,155.826,0)" xlink:href="#W"/><use transform="matrix(0.018,0,0,0.018,161.928,0)" xlink:href="#ae"/><use transform="matrix(0.018,0,0,0.018,166.968,0)" xlink:href="#af"/></g><g id="s"><use transform="matrix(0.018,0,0,0.018,0,0)" xlink:href="#aa"/><use transform="matrix(0.018,0,0,0.018,7.577999999999999,0)" xlink:href="#O"/><use transform="matrix(0.018,0,0,0.018,16.506,0)" xlink:href="#ac"/><use transform="matrix(0.018,0,0,0.018,24.984,0)" xlink:href="#Q"/><use transform="matrix(0.018,0,0,0.018,34.128,0)" xlink:href="#H"/><use transform="matrix(0.018,0,0,0.018,48.275999999999996,0)" xlink:href="#Q"/><use transform="matrix(0.018,0,0,0.018,57.419999999999995,0)" xlink:href="#O"/><use transform="matrix(0.018,0,0,0.018,66.348,0)" xlink:href="#W"/><use transform="matrix(0.018,0,0,0.018,72.45,0)" xlink:href="#ag"/><use transform="matrix(0.018,0,0,0.018,82.296,0)" xlink:href="#Q"/><use transform="matrix(0.018,0,0,0.018,91.44000000000001,0)" xlink:href="#P"/><use transform="matrix(0.018,0,0,0.018,97.56,0)" xlink:href="#ao"/><use transform="matrix(0.018,0,0,0.018,107.406,0)" xlink:href="#Q"/><use transform="matrix(0.018,0,0,0.018,116.55000000000001,0)" xlink:href="#U"/><use transform="matrix(0.018,0,0,0.018,126.28800000000001,0)" xlink:href="#M"/><use transform="matrix(0.018,0,0,0.018,135.936,0)" xlink:href="#P"/><use transform="matrix(0.018,0,0,0.018,142.596,0)" xlink:href="#W"/><use transform="matrix(0.018,0,0,0.018,148.698,0)" xlink:href="#ae"/><use transform="matrix(0.018,0,0,0.018,153.738,0)" xlink:href="#af"/></g><g id="t"><use transform="matrix(0.018,0,0,0.018,0,0)" xlink:href="#V"/><use transform="matrix(0.018,0,0,0.018,8.117999999999999,0)" xlink:href="#P"/><use transform="matrix(0.018,0,0,0.018,14.237999999999996,0)" xlink:href="#Q"/><use transform="matrix(0.018,0,0,0.018,23.381999999999998,0)" xlink:href="#O"/><use transform="matrix(0.018,0,0,0.018,32.309999999999995,0)" xlink:href="#W"/><use transform="matrix(0.018,0,0,0.018,38.21399999999999,0)" xlink:href="#Q"/><use transform="matrix(0.018,0,0,0.018,47.35799999999999,0)" xlink:href="#ah"/><use transform="matrix(0.018,0,0,0.018,56.771999999999984,0)" xlink:href="#Q"/><use transform="matrix(0.018,0,0,0.018,65.91599999999998,0)" xlink:href="#aa"/><use transform="matrix(0.018,0,0,0.018,73.49399999999999,0)" xlink:href="#W"/><use transform="matrix(0.018,0,0,0.018,79.59599999999999,0)" xlink:href="#ao"/><use transform="matrix(0.018,0,0,0.018,89.44199999999998,0)" xlink:href="#Q"/><use transform="matrix(0.018,0,0,0.018,98.58599999999997,0)" xlink:href="#U"/><use transform="matrix(0.018,0,0,0.018,108.324,0)" xlink:href="#M"/><use transform="matrix(0.018,0,0,0.018,117.97199999999998,0)" xlink:href="#P"/><use transform="matrix(0.018,0,0,0.018,124.63199999999999,0)" xlink:href="#W"/><use transform="matrix(0.018,0,0,0.018,130.73399999999998,0)" xlink:href="#ae"/><use transform="matrix(0.018,0,0,0.018,135.77399999999997,0)" xlink:href="#af"/></g><g id="u"><use transform="matrix(0.018,0,0,0.018,0,0)" xlink:href="#aa"/><use transform="matrix(0.018,0,0,0.018,7.577999999999999,0)" xlink:href="#O"/><use transform="matrix(0.018,0,0,0.018,16.506,0)" xlink:href="#ac"/><use transform="matrix(0.018,0,0,0.018,24.984,0)" xlink:href="#Q"/><use transform="matrix(0.018,0,0,0.018,34.128,0)" xlink:href="#ah"/><use transform="matrix(0.018,0,0,0.018,43.541999999999994,0)" xlink:href="#Q"/><use transform="matrix(0.018,0,0,0.018,52.68599999999999,0)" xlink:href="#aa"/><use transform="matrix(0.018,0,0,0.018,60.263999999999996,0)" xlink:href="#W"/><use transform="matrix(0.018,0,0,0.018,66.366,0)" xlink:href="#ao"/><use transform="matrix(0.018,0,0,0.018,76.21199999999999,0)" xlink:href="#Q"/><use transform="matrix(0.018,0,0,0.018,85.356,0)" xlink:href="#U"/><use transform="matrix(0.018,0,0,0.018,95.094,0)" xlink:href="#M"/><use transform="matrix(0.018,0,0,0.018,104.74199999999999,0)" xlink:href="#P"/><use transform="matrix(0.018,0,0,0.018,111.402,0)" xlink:href="#W"/><use transform="matrix(0.018,0,0,0.018,117.504,0)" xlink:href="#ae"/><use transform="matrix(0.018,0,0,0.018,122.54400000000001,0)" xlink:href="#af"/></g><path fill="#333" d="M292-509c59 0 132 14 168 31v678h-80V-50h-4c-28 40-63 63-131 62C97 10 50-87 49-248c-1-167 80-260 243-261zM132-249c2 104 25 191 127 191 75 0 106-40 121-106v-256c-25-13-59-19-102-19-104 0-147 74-146 190" id="ap"/><g id="v"><use transform="matrix(0.018,0,0,0.018,0,0)" xlink:href="#ap"/><use transform="matrix(0.018,0,0,0.018,9.665999999999999,0)" xlink:href="#an"/><use transform="matrix(0.018,0,0,0.018,19.368,0)" xlink:href="#Q"/><use transform="matrix(0.018,0,0,0.018,28.512,0)" xlink:href="#P"/><use transform="matrix(0.018,0,0,0.018,34.632,0)" xlink:href="#al"/><use transform="matrix(0.018,0,0,0.018,43.019999999999996,0)" xlink:href="#H"/><use transform="matrix(0.018,0,0,0.018,57.16799999999999,0)" xlink:href="#Q"/><use transform="matrix(0.018,0,0,0.018,66.312,0)" xlink:href="#O"/><use transform="matrix(0.018,0,0,0.018,75.24,0)" xlink:href="#W"/><use transform="matrix(0.018,0,0,0.018,81.342,0)" xlink:href="#ag"/><use transform="matrix(0.018,0,0,0.018,91.188,0)" xlink:href="#Q"/><use transform="matrix(0.018,0,0,0.018,100.33200000000001,0)" xlink:href="#P"/><use transform="matrix(0.018,0,0,0.018,106.45200000000001,0)" xlink:href="#ae"/><use transform="matrix(0.018,0,0,0.018,111.49200000000002,0)" xlink:href="#af"/></g><g id="w"><use transform="matrix(0.018,0,0,0.018,0,0)" xlink:href="#ak"/><use transform="matrix(0.018,0,0,0.018,9.665999999999999,0)" xlink:href="#Q"/><use transform="matrix(0.018,0,0,0.018,18.81,0)" xlink:href="#W"/><use transform="matrix(0.018,0,0,0.018,24.912,0)" xlink:href="#H"/><use transform="matrix(0.018,0,0,0.018,39.059999999999995,0)" xlink:href="#Q"/><use transform="matrix(0.018,0,0,0.018,48.20399999999999,0)" xlink:href="#O"/><use transform="matrix(0.018,0,0,0.018,57.13199999999999,0)" xlink:href="#W"/><use transform="matrix(0.018,0,0,0.018,63.23399999999999,0)" xlink:href="#ag"/><use transform="matrix(0.018,0,0,0.018,73.07999999999998,0)" xlink:href="#Q"/><use transform="matrix(0.018,0,0,0.018,82.22399999999999,0)" xlink:href="#P"/><use transform="matrix(0.018,0,0,0.018,88.344,0)" xlink:href="#ao"/><use transform="matrix(0.018,0,0,0.018,98.18999999999997,0)" xlink:href="#Q"/><use transform="matrix(0.018,0,0,0.018,107.33399999999999,0)" xlink:href="#U"/><use transform="matrix(0.018,0,0,0.018,117.07199999999999,0)" xlink:href="#M"/><use transform="matrix(0.018,0,0,0.018,126.71999999999998,0)" xlink:href="#P"/><use transform="matrix(0.018,0,0,0.018,133.38,0)" xlink:href="#W"/><use transform="matrix(0.018,0,0,0.018,139.482,0)" xlink:href="#ae"/><use transform="matrix(0.018,0,0,0.018,144.522,0)" xlink:href="#af"/></g><path fill="#333" d="M378-62c56 2 101-12 135-32l20 65C494 2 428 12 359 12 150 12 58-132 56-350c-2-250 141-394 402-356 25 4 47 11 65 18l-20 73c-32-15-78-23-137-23-158 0-222 119-222 288S215-68 378-62" id="aq"/><g id="x"><use transform="matrix(0.018,0,0,0.018,0,0)" xlink:href="#ak"/><use transform="matrix(0.018,0,0,0.018,9.665999999999999,0)" xlink:href="#Q"/><use transform="matrix(0.018,0,0,0.018,18.81,0)" xlink:href="#W"/><use transform="matrix(0.018,0,0,0.018,24.912,0)" xlink:href="#aq"/><use transform="matrix(0.018,0,0,0.018,35.19,0)" xlink:href="#am"/><use transform="matrix(0.018,0,0,0.018,44.748,0)" xlink:href="#H"/><use transform="matrix(0.018,0,0,0.018,58.895999999999994,0)" xlink:href="#Q"/><use transform="matrix(0.018,0,0,0.018,68.03999999999999,0)" xlink:href="#O"/><use transform="matrix(0.018,0,0,0.018,76.96799999999999,0)" xlink:href="#W"/><use transform="matrix(0.018,0,0,0.018,83.07,0)" xlink:href="#ag"/><use transform="matrix(0.018,0,0,0.018,92.916,0)" xlink:href="#Q"/><use transform="matrix(0.018,0,0,0.018,102.06,0)" xlink:href="#P"/><use transform="matrix(0.018,0,0,0.018,108.18,0)" xlink:href="#ao"/><use transform="matrix(0.018,0,0,0.018,118.026,0)" xlink:href="#Q"/><use transform="matrix(0.018,0,0,0.018,127.17,0)" xlink:href="#U"/><use transform="matrix(0.018,0,0,0.018,136.90800000000002,0)" xlink:href="#M"/><use transform="matrix(0.018,0,0,0.018,146.556,0)" xlink:href="#P"/><use transform="matrix(0.018,0,0,0.018,153.216,0)" xlink:href="#W"/><use transform="matrix(0.018,0,0,0.018,159.318,0)" xlink:href="#ae"/><use transform="matrix(0.018,0,0,0.018,164.35800000000003,0)" xlink:href="#af"/><path fill="#333" d="M-.9.9h171.2v.9H-.9z"/></g><g id="y"><use transform="matrix(0.018,0,0,0.018,0,0)" xlink:href="#ad"/><use transform="matrix(0.018,0,0,0.018,9.684,0)" xlink:href="#I"/><use transform="matrix(0.018,0,0,0.018,14.508,0)" xlink:href="#aa"/><use transform="matrix(0.018,0,0,0.018,22.086,0)" xlink:href="#U"/><use transform="matrix(0.018,0,0,0.018,31.823999999999998,0)" xlink:href="#K"/><use transform="matrix(0.018,0,0,0.018,37.08,0)" xlink:href="#O"/><use transform="matrix(0.018,0,0,0.018,46.007999999999996,0)" xlink:href="#al"/><use transform="matrix(0.018,0,0,0.018,54.395999999999994,0)" xlink:href="#ao"/><use transform="matrix(0.018,0,0,0.018,64.24199999999999,0)" xlink:href="#Q"/><use transform="matrix(0.018,0,0,0.018,73.386,0)" xlink:href="#U"/><use transform="matrix(0.018,0,0,0.018,83.124,0)" xlink:href="#M"/><use transform="matrix(0.018,0,0,0.018,92.77199999999999,0)" xlink:href="#P"/><use transform="matrix(0.018,0,0,0.018,99.432,0)" xlink:href="#W"/><use transform="matrix(0.018,0,0,0.018,105.534,0)" xlink:href="#ae"/><use transform="matrix(0.018,0,0,0.018,110.57400000000001,0)" xlink:href="#af"/></g><path d="M275 0h-61l-44-196L126 0H64L0-248h53L97-49l45-199h58l43 199 44-199h52" id="ar"/><path d="M25-224v-37h50v37H25zM25 0v-190h50V0H25" id="as"/><path d="M147 0L96-86 75-71V0H25v-261h50v150l67-79h53l-66 74L201 0h-54" id="at"/><path d="M25 0v-261h50V0H25" id="au"/><path d="M220-157c-53 9-28 100-34 157h-49v-107c1-27-5-49-29-50C55-147 81-57 75 0H25l-1-190h47c2 12-1 28 3 38 10-53 101-56 108 0 13-22 24-43 59-42 82 1 51 116 57 194h-49v-107c-1-25-5-48-29-50" id="av"/><path d="M110-194c64 0 96 36 96 99 0 64-35 99-97 99-61 0-95-36-95-99 0-62 34-99 96-99zm-1 164c35 0 45-28 45-65 0-40-10-65-43-65-34 0-45 26-45 65 0 36 10 65 43 65" id="aw"/><path d="M35-132v-50h50v50H35zM35 0v-49h50V0H35" id="ax"/><g id="z"><use transform="matrix(0.07407407407407408,0,0,0.07407407407407408,0,0)" xlink:href="#ar"/><use transform="matrix(0.07407407407407408,0,0,0.07407407407407408,24.888888888888893,0)" xlink:href="#as"/><use transform="matrix(0.07407407407407408,0,0,0.07407407407407408,32.296296296296305,0)" xlink:href="#at"/><use transform="matrix(0.07407407407407408,0,0,0.07407407407407408,47.111111111111114,0)" xlink:href="#as"/><use transform="matrix(0.07407407407407408,0,0,0.07407407407407408,54.51851851851853,0)" xlink:href="#au"/><use transform="matrix(0.07407407407407408,0,0,0.07407407407407408,61.92592592592593,0)" xlink:href="#as"/><use transform="matrix(0.07407407407407408,0,0,0.07407407407407408,69.33333333333334,0)" xlink:href="#av"/><use transform="matrix(0.07407407407407408,0,0,0.07407407407407408,93.03703703703705,0)" xlink:href="#aw"/><use transform="matrix(0.07407407407407408,0,0,0.07407407407407408,109.25925925925927,0)" xlink:href="#ax"/><path d="M-1.33 1.43h128.15v2.8H-1.33z"/></g><path d="M169-182c-1-43-94-46-97-3 18 66 151 10 154 114 3 95-165 93-204 36-6-8-10-19-12-30l50-8c3 46 112 56 116 5-17-69-150-10-154-114-4-87 153-88 188-35 5 8 8 18 10 28" id="ay"/><path d="M123 10C108 53 80 86 19 72V37c35 8 53-11 59-39L3-190h52l48 148c12-52 28-100 44-148h51" id="az"/><path d="M137-138c1-29-70-34-71-4 15 46 118 7 119 86 1 83-164 76-172 9l43-7c4 19 20 25 44 25 33 8 57-30 24-41C81-84 22-81 20-136c-2-80 154-74 161-7" id="aA"/><path d="M115-3C79 11 28 4 28-45v-112H4v-33h27l15-45h31v45h36v33H77v99c-1 23 16 31 38 25v30" id="aB"/><path d="M185-48c-13 30-37 53-82 52C43 2 14-33 14-96s30-98 90-98c62 0 83 45 84 108H66c0 31 8 55 39 56 18 0 30-7 34-22zm-45-69c5-46-57-63-70-21-2 6-4 13-4 21h74" id="aC"/><g id="A"><use transform="matrix(0.07407407407407408,0,0,0.07407407407407408,0,0)" xlink:href="#ay"/><use transform="matrix(0.07407407407407408,0,0,0.07407407407407408,17.77777777777778,0)" xlink:href="#az"/><use transform="matrix(0.07407407407407408,0,0,0.07407407407407408,32.592592592592595,0)" xlink:href="#aA"/><use transform="matrix(0.07407407407407408,0,0,0.07407407407407408,47.40740740740741,0)" xlink:href="#aB"/><use transform="matrix(0.07407407407407408,0,0,0.07407407407407408,56.22222222222223,0)" xlink:href="#aC"/><use transform="matrix(0.07407407407407408,0,0,0.07407407407407408,71.03703703703704,0)" xlink:href="#av"/><path d="M-1.33 1.43h104.8v2.8H-1.32z"/></g><path d="M84 4C32 4 15-41 15-95c0-55 18-99 73-99 29 0 47 12 58 34l2-30h48l-1 265h-49V-32C136-9 114 4 84 4zm21-34c32 0 41-29 41-66 0-36-9-64-40-64-33 0-39 30-40 65 0 43 13 65 39 65" id="aD"/><path d="M85 4C-2 5 27-109 22-190h50c7 57-23 150 33 157 60-5 35-97 40-157h50l1 190h-47c-2-12 1-28-3-38-12 25-28 42-61 42" id="aE"/><path d="M135-194c87-1 58 113 63 194h-50c-7-57 23-157-34-157-59 0-34 97-39 157H25l-1-190h47c2 12-1 28 3 38 12-26 28-41 61-42" id="aF"/><path d="M190-63c-7 42-38 67-86 67-59 0-84-38-90-98-12-110 154-137 174-36l-49 2c-2-19-15-32-35-32-30 0-35 28-38 64-6 74 65 87 74 30" id="aG"/><g id="B"><use transform="matrix(0.07407407407407408,0,0,0.07407407407407408,0,0)" xlink:href="#ay"/><use transform="matrix(0.07407407407407408,0,0,0.07407407407407408,17.77777777777778,0)" xlink:href="#aC"/><use transform="matrix(0.07407407407407408,0,0,0.07407407407407408,32.592592592592595,0)" xlink:href="#aD"/><use transform="matrix(0.07407407407407408,0,0,0.07407407407407408,48.814814814814824,0)" xlink:href="#aE"/><use transform="matrix(0.07407407407407408,0,0,0.07407407407407408,65.03703703703705,0)" xlink:href="#aC"/><use transform="matrix(0.07407407407407408,0,0,0.07407407407407408,79.85185185185188,0)" xlink:href="#aF"/><use transform="matrix(0.07407407407407408,0,0,0.07407407407407408,96.0740740740741,0)" xlink:href="#aG"/><use transform="matrix(0.07407407407407408,0,0,0.07407407407407408,110.88888888888891,0)" xlink:href="#aC"/><path d="M-1.33 1.43h135.78v2.8H-1.33z"/></g><path d="M24-248c120-7 223 5 221 122C244-46 201 0 124 0H24v-248zM76-40c74 7 117-18 117-86 0-67-45-88-117-82v168" id="aH"/><path d="M133-34C117-15 103 5 69 4 32 3 11-16 11-54c-1-60 55-63 116-61 1-26-3-47-28-47-18 1-26 9-28 27l-52-2c7-38 36-58 82-57s74 22 75 68l1 82c-1 14 12 18 25 15v27c-30 8-71 5-69-32zm-48 3c29 0 43-24 42-57-32 0-66-3-65 30 0 17 8 27 23 27" id="aI"/><path d="M195-6C206 82 75 100 31 46c-4-6-6-13-8-21l49-6c3 16 16 24 34 25 40 0 42-37 40-79-11 22-30 35-61 35-53 0-70-43-70-97 0-56 18-96 73-97 30 0 46 14 59 34l2-30h47zm-90-29c32 0 41-27 41-63 0-35-9-62-40-62-32 0-39 29-40 63 0 36 9 62 39 62" id="aJ"/><path d="M135-150c-39-12-60 13-60 57V0H25l-1-190h47c2 13-1 29 3 40 6-28 27-53 61-41v41" id="aK"/><g id="C"><use transform="matrix(0.07407407407407408,0,0,0.07407407407407408,0,0)" xlink:href="#aH"/><use transform="matrix(0.07407407407407408,0,0,0.07407407407407408,19.185185185185187,0)" xlink:href="#as"/><use transform="matrix(0.07407407407407408,0,0,0.07407407407407408,26.592592592592595,0)" xlink:href="#aI"/><use transform="matrix(0.07407407407407408,0,0,0.07407407407407408,41.40740740740741,0)" xlink:href="#aJ"/><use transform="matrix(0.07407407407407408,0,0,0.07407407407407408,57.62962962962964,0)" xlink:href="#aK"/><use transform="matrix(0.07407407407407408,0,0,0.07407407407407408,68,0)" xlink:href="#aI"/><use transform="matrix(0.07407407407407408,0,0,0.07407407407407408,82.81481481481481,0)" xlink:href="#av"/><path d="M-1.33 1.43h109.2v2.8H-1.34z"/></g><g id="D"><use transform="matrix(0.018,0,0,0.018,0,0)" xlink:href="#ak"/><use transform="matrix(0.018,0,0,0.018,9.665999999999999,0)" xlink:href="#Q"/><use transform="matrix(0.018,0,0,0.018,18.81,0)" xlink:href="#W"/><use transform="matrix(0.018,0,0,0.018,24.912,0)" xlink:href="#T"/><use transform="matrix(0.018,0,0,0.018,35.442,0)" xlink:href="#K"/><use transform="matrix(0.018,0,0,0.018,40.698,0)" xlink:href="#Q"/><use transform="matrix(0.018,0,0,0.018,49.842,0)" xlink:href="#P"/><use transform="matrix(0.018,0,0,0.018,56.501999999999995,0)" xlink:href="#W"/><use transform="matrix(0.018,0,0,0.018,62.60399999999999,0)" xlink:href="#ae"/><use transform="matrix(0.018,0,0,0.018,67.64399999999999,0)" xlink:href="#af"/></g><g id="E"><use transform="matrix(0.018,0,0,0.018,0,0)" xlink:href="#ak"/><use transform="matrix(0.018,0,0,0.018,9.665999999999999,0)" xlink:href="#Q"/><use transform="matrix(0.018,0,0,0.018,18.81,0)" xlink:href="#W"/><use transform="matrix(0.018,0,0,0.018,24.912,0)" xlink:href="#aq"/><use transform="matrix(0.018,0,0,0.018,35.19,0)" xlink:href="#am"/><use transform="matrix(0.018,0,0,0.018,44.748,0)" xlink:href="#T"/><use transform="matrix(0.018,0,0,0.018,55.278,0)" xlink:href="#K"/><use transform="matrix(0.018,0,0,0.018,60.534,0)" xlink:href="#Q"/><use transform="matrix(0.018,0,0,0.018,69.678,0)" xlink:href="#P"/><use transform="matrix(0.018,0,0,0.018,76.33800000000001,0)" xlink:href="#W"/><use transform="matrix(0.018,0,0,0.018,82.44000000000001,0)" xlink:href="#ae"/><use transform="matrix(0.018,0,0,0.018,87.48000000000003,0)" xlink:href="#af"/><path fill="#333" d="M-.9.9h94.32v.9H-.9z"/></g><g id="F"><use transform="matrix(0.018,0,0,0.018,0,0)" xlink:href="#ad"/><use transform="matrix(0.018,0,0,0.018,9.684,0)" xlink:href="#I"/><use transform="matrix(0.018,0,0,0.018,14.508,0)" xlink:href="#aa"/><use transform="matrix(0.018,0,0,0.018,22.086,0)" xlink:href="#U"/><use transform="matrix(0.018,0,0,0.018,31.823999999999998,0)" xlink:href="#K"/><use transform="matrix(0.018,0,0,0.018,37.08,0)" xlink:href="#O"/><use transform="matrix(0.018,0,0,0.018,46.007999999999996,0)" xlink:href="#al"/><use transform="matrix(0.018,0,0,0.018,54.395999999999994,0)" xlink:href="#T"/><use transform="matrix(0.018,0,0,0.018,64.92599999999999,0)" xlink:href="#K"/><use transform="matrix(0.018,0,0,0.018,70.18199999999999,0)" xlink:href="#Q"/><use transform="matrix(0.018,0,0,0.018,79.326,0)" xlink:href="#P"/><use transform="matrix(0.018,0,0,0.018,85.986,0)" xlink:href="#W"/><use transform="matrix(0.018,0,0,0.018,92.08800000000001,0)" xlink:href="#ae"/><use transform="matrix(0.018,0,0,0.018,97.12800000000001,0)" xlink:href="#af"/></g><path fill="#333" d="M211-458l-54-101h-4l10 101V0H85v-711h44l335 467 52 96h5l-11-96v-456h78V11h-44" id="aL"/><path fill="#333" d="M251-636c-75-3-71 63-71 136h133v70H180V0h-80v-430H22v-70h78c-5-124 22-209 143-206 47 1 73 5 108 19l-18 67c-26-12-50-15-82-16" id="aM"/><g id="G"><use transform="matrix(0.018,0,0,0.018,0,0)" xlink:href="#aL"/><use transform="matrix(0.018,0,0,0.018,12.113999999999999,0)" xlink:href="#M"/><use transform="matrix(0.018,0,0,0.018,21.762000000000004,0)" xlink:href="#W"/><use transform="matrix(0.018,0,0,0.018,27.864,0)" xlink:href="#I"/><use transform="matrix(0.018,0,0,0.018,32.688,0)" xlink:href="#aM"/><use transform="matrix(0.018,0,0,0.018,38.43,0)" xlink:href="#I"/><use transform="matrix(0.018,0,0,0.018,43.254,0)" xlink:href="#V"/><use transform="matrix(0.018,0,0,0.018,51.37199999999999,0)" xlink:href="#O"/><use transform="matrix(0.018,0,0,0.018,60.3,0)" xlink:href="#W"/><use transform="matrix(0.018,0,0,0.018,66.402,0)" xlink:href="#I"/><use transform="matrix(0.018,0,0,0.018,71.226,0)" xlink:href="#M"/><use transform="matrix(0.018,0,0,0.018,80.874,0)" xlink:href="#X"/><path fill="#333" d="M-.9.9h92.52v.9H-.9z"/></g></defs></g></svg>