<svg xmlns="http://www.w3.org/2000/svg" xmlns:xlink="http://www.w3.org/1999/xlink" xmlns:lucid="lucid" width="1402.06" height="1814.43"><g transform="translate(0 0)" lucid:page-tab-id="0_0"><path d="M0 0h1402.06v1814.43H0z" fill="#fff"/><path d="M129.25 986.03c0 6.9-5.6 12.5-12.5 12.5-6.92 0-12.52-5.6-12.52-12.5s5.6-12.5 12.5-12.5c6.92 0 12.52 5.6 12.52 12.5z" stroke="#000" fill="#fff"/><path d="M91.73 978.53c0-2.77 2.24-5 5-5h40.02c2.76 0 5 2.23 5 5v96.22c0 2.76-2.24 5-5 5H96.73c-2.76 0-5-2.24-5-5z" fill="none"/><path d="M116.74 998.54v33.72c0 2.76 1.14 6.93 2.54 9.3l22.47 38.2m-25-42.5l-25.02 42.5m0-68.7h50.02" stroke="#000" fill="none"/><use xlink:href="#a" transform="matrix(1,0,0,1,11.726943192669552,1079.7531916639746) translate(53.82720325028637 28.032825028636886)"/><path d="M1280.82 593.96c0 6.77-5.5 12.25-12.25 12.25-6.77 0-12.26-5.47-12.26-12.24 0-6.77 5.5-12.26 12.27-12.26 6.76 0 12.25 5.5 12.25 12.26z" stroke="#666" fill="#fff"/><path d="M1235.38 586.7c0-2.76 2.24-5 5-5h56.37c2.76 0 5 2.24 5 5v88.05c0 2.76-2.24 5-5 5h-56.37c-2.76 0-5-2.24-5-5z" fill="none"/><path d="M1268.57 606.2v29.33c0 2.76 1.44 6.7 3.23 8.82l29.95 35.4m-33.18-39.22l-33.2 39.22m0-61.28h66.38" stroke="#666" fill="none"/><use xlink:href="#b" transform="matrix(1,0,0,1,1155.3776241770177,679.7531916639746) translate(49.815372637457045 28.032825028636886)"/><use xlink:href="#c" transform="matrix(1,0,0,1,1155.3776241770177,679.7531916639746) translate(66.76818442153494 65.14891179839634)"/><path d="M1287.4 931.97c0 6.92-5.6 12.54-12.54 12.54-6.93 0-12.54-5.6-12.54-12.53s5.6-12.54 12.54-12.54c6.93 0 12.54 5.6 12.54 12.54z" stroke="#666" fill="#fff"/><path d="M1247.97 924.43c0-2.77 2.24-5 5-5h43.78c2.76 0 5 2.23 5 5v90.32c0 2.76-2.24 5-5 5h-43.78c-2.76 0-5-2.24-5-5z" fill="none"/><path d="M1274.86 944.5v30.12c0 2.76 1.25 6.86 2.78 9.16l24.1 35.97m-26.88-40.13l-26.9 40.13m0-62.7h53.8" stroke="#666" fill="none"/><use xlink:href="#d" transform="matrix(1,0,0,1,1167.9664397114911,1019.7531916639746) translate(16.915744916953045 22.02579109392898)"/><use xlink:href="#e" transform="matrix(1,0,0,1,1167.9664397114911,1019.7531916639746) translate(116.74548969072166 22.02579109392898)"/><use xlink:href="#f" transform="matrix(1,0,0,1,1167.9664397114911,1019.7531916639746) translate(58.71552835051546 51.18843069873998)"/><path d="M797.4 497.3c0 35.6-44.76 64.45-100 64.45-55.22 0-100-28.85-100-64.44 0-35.58 44.78-64.43 100-64.43 55.24 0 100 28.85 100 64.44z" stroke="#000" stroke-opacity="0" stroke-width="2" fill="#3278cc"/><use xlink:href="#g" transform="matrix(1,0,0,1,627.4081498630427,458.6488979707081) translate(18.94998090874379 44.49828178694158)"/><path d="M1277.17 1146.8c0 7.34-5.95 13.28-13.28 13.28-7.34 0-13.3-5.94-13.3-13.28 0-7.33 5.96-13.27 13.3-13.27 7.32 0 13.27 5.94 13.27 13.27z" stroke="#666" fill="#fff"/><path d="M1237.06 1138.53c0-2.77 2.24-5 5-5h43.66c2.76 0 5 2.23 5 5v96.22c0 2.76-2.24 5-5 5h-43.66c-2.76 0-5-2.24-5-5z" fill="none"/><path d="M1263.9 1160.08v32.18c0 2.76 1.2 6.9 2.66 9.23l24.16 38.25m-26.83-42.5l-26.84 42.5m0-66.4h53.66" stroke="#666" fill="none"/><use xlink:href="#h" transform="matrix(1,0,0,1,1157.0587037141465,1239.7531916639746) translate(39.14456704610538 22.02579109392898)"/><use xlink:href="#i" transform="matrix(1,0,0,1,1157.0587037141465,1239.7531916639746) translate(27.16573596792668 51.18843069873998)"/><use xlink:href="#j" transform="matrix(1,0,0,1,1157.0587037141465,1239.7531916639746) translate(131.53599298396335 51.18843069873998)"/><path d="M118.6 1037.36L557 746.46M118.62 1037.36l-2.93 1.94" stroke="#666" fill="none"/><path d="M557.4 746.2v.6l-.14.1-.56-.84.72-.48z" fill="#666"/><path d="M118.54 1037.28l487-513.6M118.55 1037.27l-2.42 2.55" stroke="#666" fill="none"/><path d="M606.2 523.73l-.3.3-.72-.7.43-.45z" fill="#666"/><path d="M225.92 366.75c0-2.76 2.24-5 5-5h909.84c2.76 0 5 2.24 5 5v1250c0 2.76-2.24 5-5 5H230.92c-2.76 0-5-2.24-5-5z" stroke="#666" fill-opacity="0"/><use xlink:href="#k" transform="matrix(1,0,0,1,233.92095128339452,369.75319166397446) translate(425.2945144457172 17.58533791523482)"/><path d="M1275.15 1391.9c0 7.16-5.8 12.95-12.94 12.95s-12.93-5.8-12.93-12.94c0-7.13 5.8-12.92 12.94-12.92 7.15 0 12.95 5.8 12.95 12.93z" stroke="#666" fill="#fff"/><path d="M1235.38 1383.98c0-2.77 2.24-5 5-5h43.66c2.76 0 5 2.23 5 5v93.5c0 2.76-2.24 5-5 5h-43.66c-2.76 0-5-2.24-5-5z" fill="none"/><path d="M1262.2 1404.85v31.23c0 2.76 1.23 6.88 2.73 9.2l24.1 37.2m-26.82-41.4l-26.82 41.4m0-64.7h53.66" stroke="#666" fill="none"/><use xlink:href="#l" transform="matrix(1,0,0,1,1155.3776241770177,1482.4780781665831) translate(4.100179875429546 22.02579109392898)"/><use xlink:href="#m" transform="matrix(1,0,0,1,1155.3776241770177,1482.4780781665831) translate(111.80506783361969 22.02579109392898)"/><use xlink:href="#j" transform="matrix(1,0,0,1,1155.3776241770177,1482.4780781665831) translate(79.35086447594502 51.18843069873998)"/><path d="M407.63 1011.8l-290.03 25.8" stroke="#666" fill="none"/><path d="M408.13 1011.75v.5l-.47.05-.1-1 .58-.05z" fill="#666"/><path d="M117.6 1037.6l-3.5.3M390.93 1249L117.5 1037.96" stroke="#666" fill="none"/><path d="M391.34 1248.7v1.26l-.72-.56.6-.8z" fill="#666"/><path d="M117.5 1037.95l-2.78-2.14M736.9 1011.75h-48.27" stroke="#666" fill="none"/><path d="M737.4 1011.75v.5h-.5v-1h.52zM688.64 1012.25h-.52v-1h.52z" fill="#666"/><path d="M977.9 1011.7l295.2-31.06" stroke="#666" fill="none"/><path d="M977.97 1012.2l-.57.06v-1l.47-.06z" fill="#666"/><path d="M1273.1 980.64l3.5-.36M977.68 1012.17l283.78 428.3" stroke="#666" fill="none"/><path d="M978.1 1011.9l-.7.48v-1.55z" fill="#666"/><path d="M1261.46 1440.46l1.94 2.92M977.83 1012.03l284.8 185.34" stroke="#666" fill="none"/><path d="M978.1 1011.6l-.53.85-.17-.1v-1.2z" fill="#666"/><path d="M1262.63 1197.36l2.95 1.92M977.72 1011.36l287.16-362.38" stroke="#666" fill="none"/><path d="M978.12 1011.66l-.73.92v-1.49z" fill="#666"/><path d="M1264.87 649l2.2-2.76" stroke="#666" fill="none"/><path d="M837.4 746.2c0 35.58-62.67 64.43-140 64.43-77.3 0-140-28.85-140-64.44 0-35.6 62.7-64.45 140-64.45 77.33 0 140 28.85 140 64.44z" stroke="#000" stroke-opacity="0" stroke-width="2" fill="#3278cc"/><use xlink:href="#n" transform="matrix(1,0,0,1,599.4081498630427,707.5292650872912) translate(9.492936235204269 28.003436426116842)"/><use xlink:href="#o" transform="matrix(1,0,0,1,599.4081498630427,707.5292650872912) translate(81.27605956471935 28.003436426116842)"/><use xlink:href="#p" transform="matrix(1,0,0,1,599.4081498630427,707.5292650872912) translate(104.18556701030927 28.003436426116842)"/><use xlink:href="#q" transform="matrix(1,0,0,1,599.4081498630427,707.5292650872912) translate(-27.50591828942342 60.99312714776632)"/><path d="M688.13 1011.75c0 35.6-62.68 64.44-140 64.44s-140-28.86-140-64.45c0-35.6 62.68-64.44 140-64.44s140 28.86 140 64.45z" stroke="#000" stroke-opacity="0" stroke-width="2" fill="#3278cc"/><use xlink:href="#r" transform="matrix(1,0,0,1,450.1265776980945,973.0890815289995) translate(4.185567010309285 28.003436426116842)"/><use xlink:href="#o" transform="matrix(1,0,0,1,450.1265776980945,973.0890815289995) translate(86.58342878961436 28.003436426116842)"/><use xlink:href="#p" transform="matrix(1,0,0,1,450.1265776980945,973.0890815289995) translate(109.49293623520428 28.003436426116842)"/><use xlink:href="#q" transform="matrix(1,0,0,1,450.1265776980945,973.0890815289995) translate(-27.50591828942342 60.99312714776632)"/><path d="M977.4 1011.75c0 35.6-53.72 64.44-120 64.44-66.27 0-120-28.86-120-64.45 0-35.6 53.73-64.44 120-64.44 66.28 0 120 28.86 120 64.45z" stroke="#000" stroke-opacity="0" stroke-width="2" fill="#3278cc"/><use xlink:href="#s" transform="matrix(1,0,0,1,773.4081498630428,973.0890815289995) translate(34.439098892707136 28.003436426116842)"/><use xlink:href="#t" transform="matrix(1,0,0,1,773.4081498630428,973.0890815289995) translate(3.9312714776632305 60.99312714776632)"/><use xlink:href="#u" transform="matrix(1,0,0,1,773.4081498630428,973.0890815289995) translate(86.3291332569683 60.99312714776632)"/><path d="M1003.5 1249.3c0 40.16-137.05 72.7-306.1 72.7-169.04 0-306.07-32.54-306.07-72.7 0-40.14 137.03-72.68 306.08-72.68 169.05 0 306.1 32.54 306.1 72.7z" stroke="#000" stroke-opacity="0" stroke-width="2" fill="#3278cc"/><use xlink:href="#v" transform="matrix(1,0,0,1,483.15166173010425,1205.6954991608845) translate(27.596601756395557 21.993127147766323)"/><use xlink:href="#w" transform="matrix(1,0,0,1,483.15166173010425,1205.6954991608845) translate(134.3549064528446 21.993127147766323)"/><use xlink:href="#x" transform="matrix(1,0,0,1,483.15166173010425,1205.6954991608845) translate(271.7355861015655 21.993127147766323)"/><use xlink:href="#y" transform="matrix(1,0,0,1,483.15166173010425,1205.6954991608845) translate(323.58743795341735 21.993127147766323)"/><use xlink:href="#z" transform="matrix(1,0,0,1,483.15166173010425,1205.6954991608845) translate(393.7668957617411 21.993127147766323)"/><use xlink:href="#t" transform="matrix(1,0,0,1,483.15166173010425,1205.6954991608845) translate(52.79705994654449 54.982817869415804)"/><use xlink:href="#A" transform="matrix(1,0,0,1,483.15166173010425,1205.6954991608845) translate(135.19492172584955 54.982817869415804)"/><use xlink:href="#B" transform="matrix(1,0,0,1,483.15166173010425,1205.6954991608845) translate(226.83295150820925 54.982817869415804)"/><use xlink:href="#C" transform="matrix(1,0,0,1,483.15166173010425,1205.6954991608845) translate(242.10595647193585 54.982817869415804)"/><use xlink:href="#z" transform="matrix(1,0,0,1,483.15166173010425,1205.6954991608845) translate(368.5664375715922 54.982817869415804)"/><use xlink:href="#D" transform="matrix(1,0,0,1,483.15166173010425,1205.6954991608845) translate(110.07082856051929 87.97250859106529)"/><use xlink:href="#E" transform="matrix(1,0,0,1,483.15166173010425,1205.6954991608845) translate(256.5389461626575 87.97250859106529)"/><path d="M797.88 497.47l465.27 152.95" stroke="#666" fill="none"/><path d="M798.05 497l-.3.95-.35-.1v-1.06z" fill="#666"/><path d="M1263.14 650.42l3.34 1.1M837.9 746.14l376.14-38.77c-.28-2.74 1.72-5.2 4.46-5.48 2.75-.3 5.2 1.7 5.5 4.45l44.07-4.55" stroke="#666" fill="none"/><path d="M837.97 746.64l-.57.06v-1l.47-.06zM1271.6 701.94l-3.5.36-.1-1 3.5-.35z" fill="#666"/><path d="M490.82 1486.2c0 35.58-49.25 64.43-110 64.43-60.76 0-110-28.85-110-64.44 0-35.6 49.24-64.45 110-64.45 60.75 0 110 28.85 110 64.44z" stroke="#000" stroke-opacity="0" stroke-width="2" fill="#3278cc"/><use xlink:href="#F" transform="matrix(1,0,0,1,303.81521353914457,1447.5292650872914) translate(-2.38144329896906 28.003436426116842)"/><use xlink:href="#G" transform="matrix(1,0,0,1,303.81521353914457,1447.5292650872914) translate(37.29018709431081 60.99312714776632)"/><use xlink:href="#H" transform="matrix(1,0,0,1,303.81521353914457,1447.5292650872914) translate(67.83619702176404 60.99312714776632)"/><path d="M270.65 1485.72l-153.4-447.6" stroke="#666" fill="none"/><path d="M270.82 1486.2v.97l.04.7-.68-2 .65-.22z" fill="#666"/><path d="M117.26 1038.12l-1.13-3.32" stroke="#666" fill="none"/><path d="M785.94 1484.83c0 34.84-56.38 63.08-125.92 63.08-69.54 0-125.9-28.23-125.9-63.07s56.36-63.08 125.9-63.08 125.92 28.24 125.92 63.08z" stroke="#000" stroke-opacity="0" stroke-width="2" fill="#3278cc"/><use xlink:href="#I" transform="matrix(1,0,0,1,571.8854827749199,1446.9842877867695) translate(45.811951126384116 21.993127147766323)"/><use xlink:href="#J" transform="matrix(1,0,0,1,571.8854827749199,1446.9842877867695) translate(2.322069492172588 54.982817869415804)"/><use xlink:href="#K" transform="matrix(1,0,0,1,571.8854827749199,1446.9842877867695) translate(121.29877815960289 54.982817869415804)"/><use xlink:href="#L" transform="matrix(1,0,0,1,571.8854827749199,1446.9842877867695) translate(66.39232531500573 87.97250859106529)"/><path d="M1096.22 1482.65c0 49.9-62.8 90.33-140.3 90.33-77.5 0-140.3-40.44-140.3-90.33 0-49.88 62.8-90.33 140.3-90.33 77.5 0 140.3 40.45 140.3 90.33z" stroke="#000" stroke-opacity="0" stroke-width="2" fill="#3278cc"/><g><use xlink:href="#s" transform="matrix(1,0,0,1,857.7011211192885,1428.455059569031) translate(48.939098892707136 21.993127147766323)"/><use xlink:href="#M" transform="matrix(1,0,0,1,857.7011211192885,1428.455059569031) translate(20.72222222222223 54.982817869415804)"/><use xlink:href="#N" transform="matrix(1,0,0,1,857.7011211192885,1428.455059569031) translate(41.98988163421153 87.97250859106529)"/><use xlink:href="#z" transform="matrix(1,0,0,1,857.7011211192885,1428.455059569031) translate(147.37361588392517 87.97250859106529)"/><use xlink:href="#O" transform="matrix(1,0,0,1,857.7011211192885,1428.455059569031) translate(37.56071019473082 120.96219931271477)"/></g><path d="M533.6 1484.83H491.3" stroke="#666" fill="none"/><path d="M534.1 1484.83l.02.5h-.52v-1h.52zM491.3 1485.33h-.5v-.1l-.04-.9h.54z" fill="#666"/><path d="M815.1 1482.7l-28.66 2.1" stroke="#666" fill="none"/><path d="M815.6 1482.65v.5l-.47.04-.07-1 .56-.05zM786.5 1485.3l-.57.03v-1l.48-.04z" fill="#666"/><path d="M1096.32 1482.16l44.15-217.9c-2.7-.56-4.46-3.2-3.9-5.9.54-2.7 3.18-4.46 5.88-3.9l23.23-114.65c-2.7-.53-4.46-3.17-3.9-5.88.54-2.7 3.18-4.45 5.88-3.9l27.63-136.4c-2.7-.54-4.46-3.18-3.9-5.9.53-2.7 3.17-4.44 5.88-3.9l55.85-275.68c-2.7-.55-4.46-3.18-3.9-5.9.54-2.7 3.18-4.45 5.88-3.9l10-49.26" stroke="#666" fill="none"/><path d="M1096.8 1482.25l-.66 3.3.03-.42.05-2.48v-.52z" fill="#666"/><path d="M1265.1 649.1l.7-3.45M1003.83 1248.95l73.8-77.1c-2-1.9-2.06-5.07-.15-7.06 1.9-2 5.08-2.08 7.07-.17l45.6-47.62c-2-1.9-2.07-5.07-.16-7.06 1.9-2 5.06-2.07 7.06-.16l40.56-42.37c-2-1.9-2.06-5.07-.15-7.06 1.9-2 5.07-2.07 7.07-.16l74.4-77.72" stroke="#666" fill="none"/><path d="M1004.2 1249.3l-.73.75.02-.74-.02-.36v-.33z" fill="#666"/><path d="M1258.93 982.47l.35-.37M1096.4 1482.18l65.63-184.54c-2.6-.92-3.96-3.78-3.03-6.4.92-2.6 3.78-3.95 6.38-3.02l42.85-120.46c-2.6-.92-3.96-3.78-3.03-6.38.92-2.6 3.78-3.96 6.38-3.04l63.07-177.28" stroke="#666" fill="none"/><path d="M1096.87 1482.34l-.68 1.9.02-1.6v-.54z" fill="#666"/><path d="M1274.64 981.07l1.18-3.3M1003.98 1249.22l110.62-22.03c-.54-2.7 1.22-5.35 3.93-5.9 2.7-.53 5.34 1.23 5.88 3.94l20.07-4c-.54-2.7 1.22-5.33 3.93-5.87 2.7-.54 5.34 1.22 5.88 3.92l33.43-6.66c-.53-2.7 1.23-5.34 3.94-5.88 2.7-.54 5.34 1.22 5.88 3.93l65.05-12.96" stroke="#666" fill="none"/><path d="M1004.1 1249.7l-.62.13v-1.01l.4-.08z" fill="#666"/><path d="M1262.56 1197.74l3.44-.7M1096.48 1482.22l87.84-150.06c-2.4-1.4-3.2-4.46-1.8-6.84 1.4-2.38 4.47-3.2 6.85-1.8l73.44-125.45" stroke="#666" fill="none"/><path d="M1096.9 1482.46l-.7 1.22.02-1.03v-.6z" fill="#666"/><path d="M1262.8 1198.08l1.78-3.03M1003.9 1249.6l117.3 86.97c1.64-2.22 4.77-2.68 7-1.04 2.2 1.65 2.67 4.78 1.03 7l9.3 6.9c1.65-2.22 4.78-2.7 7-1.04 2.22 1.63 2.68 4.76 1.04 6.98l12.83 9.5c1.64-2.2 4.77-2.67 7-1.03 2.2 1.65 2.68 4.78 1.03 7l94.08 69.73" stroke="#666" fill="none"/><path d="M1004.2 1249.22l-.6.8-.12-.1v-1.24z" fill="#666"/><path d="M1261.5 1440.58l2.82 2.1M1096.7 1482.53l164-40.68" stroke="#666" fill="none"/><path d="M1096.84 1483l-.63.17.02-.52v-.5l.38-.1z" fill="#666"/><path d="M1260.7 1441.85l3.4-.85" stroke="#666" fill="none"/><path d="M220.45 130.98h925.3v89.98h-925.3z" fill="none"/><g><use xlink:href="#P" transform="matrix(1,0,0,1,220.4480180213116,130.98383685577906) translate(210.2112596649485 57.18186211340206)"/><use xlink:href="#Q" transform="matrix(1,0,0,1,220.4480180213116,130.98383685577906) translate(395.3554284793815 57.18186211340206)"/><use xlink:href="#R" transform="matrix(1,0,0,1,220.4480180213116,130.98383685577906) translate(470.4198614690722 57.18186211340206)"/><use xlink:href="#S" transform="matrix(1,0,0,1,220.4480180213116,130.98383685577906) translate(561.5321359536083 57.18186211340206)"/></g><defs><path fill="#666" d="M739-574c-55-66-187-55-309-55v495c14 28 49 33 86 44 21 7 49 11 82 17V0H43v-73c45-9 80-20 103-31s34-21 34-30v-991c0-8-10-18-32-30s-57-23-105-32v-73h891l38 32c-6 92-19 200-39 278h-77c-2-62-10-110-24-142s-33-48-58-48H430v405h367l36 35c-25 46-57 93-94 126" id="T"/><path fill="#666" d="M319-259c0 68 31 114 93 114 98 0 147-56 211-105v-221c-153 26-304 50-304 212zm584 99c38 0 59-16 91-27l22 75C927-56 834 9 717 30c-65-8-88-81-93-159C538-47 445 30 293 30 154 30 65-56 65-201c0-127 64-194 141-247 107-73 248-95 417-121v-118c9-110-74-169-178-134-46 15-82 54-78 119-52 44-150 61-229 78-15 2-26 3-31 2l-21-54c84-172 266-284 511-284 166 0 266 79 266 240v482c0 44 7 78 40 78" id="U"/><path fill="#666" d="M418-773c69-91 151-187 299-187 60 0 116 20 158 44 4 3 6 12 6 26 0 113-38 223-71 311h-73c-7-74-23-146-67-181-43-34-105-7-137 22-48 43-80 95-113 167v437c0 10 14 20 42 31s72 21 135 30V0H48v-73c88-20 132-40 132-61-1-195-2-395-2-586 0-82-49-99-130-98v-70c121-16 215-37 315-72l42 42" id="V"/><path fill="#666" d="M1328-960c158 0 237 93 237 256v570c0 9 10 19 31 28s57 20 110 33V0h-497v-73c47-13 83-21 111-47 3-4 5-9 5-14v-469c-3-102-2-192-105-185-95 7-161 63-227 125v529c7 28 33 31 62 42 16 6 38 12 64 19V0H636v-73c47-13 85-21 112-47 3-4 5-9 5-14v-469c-3-100 4-193-98-185s-158 61-235 125v529c0 10 10 20 30 31s52 21 95 30V0H48v-73c44-11 77-22 99-31s33-19 33-30c-1-205 9-417-2-618-3-61-66-54-130-66v-70c120-13 219-36 315-72l42 42 11 124c100-81 183-166 347-166 125 0 197 59 215 166 101-81 185-166 350-166" id="W"/><path fill="#666" d="M687-616c0-120-53-224-176-224-146 0-179 124-195 260h333c31-1 38-6 38-36zm233 421C797-79 706 34 480 30 277 26 159-94 98-249c-51-132-43-317 18-435 76-147 214-276 431-276 252 0 370 162 379 410-35 35-91 61-140 82H313c10 180 71 330 251 330 142 0 208-61 304-121 21 14 39 43 52 64" id="X"/><g id="a"><use transform="matrix(0.015660796105383734,0,0,0.015660796105383734,0,0)" xlink:href="#T"/><use transform="matrix(0.015660796105383734,0,0,0.015660796105383734,16.2715671534937,0)" xlink:href="#U"/><use transform="matrix(0.015660796105383734,0,0,0.015660796105383734,32.292561569301256,0)" xlink:href="#V"/><use transform="matrix(0.015660796105383734,0,0,0.015660796105383734,46.52822522909507,0)" xlink:href="#W"/><use transform="matrix(0.015660796105383734,0,0,0.015660796105383734,73.59008089919817,0)" xlink:href="#X"/><use transform="matrix(0.015660796105383734,0,0,0.015660796105383734,89.10992983963345,0)" xlink:href="#V"/></g><path fill="#666" d="M1732-1187c-58 13-106 21-144 47-5 5-7 10-8 15L1351-59c-18 57-86 74-146 89L864-877 577-59c-23 57-94 75-159 89L158-1117c-20-50-66-54-138-70v-73h489v73c-51 5-87 11-115 29-14 9-18 21-13 41l171 732 292-875h100l335 875 161-740c-5-38-54-40-91-50-19-5-40-8-63-12v-73h446v73" id="Y"/><path fill="#666" d="M63-888c112-16 215-38 308-72h64v826c0 8 10 18 30 30s54 22 103 31V0H63v-73c45-9 79-20 100-31s32-21 32-30c-1-198 2-400-1-596-1-77-54-79-131-88v-70zm272-483c78 0 138 32 138 110 0 98-68 152-168 152-79 0-137-33-137-111 0-98 69-151 167-151" id="Z"/><path fill="#666" d="M1137-33c-109 17-285 88-359-10L420-517v383c3 28 26 30 51 41 14 6 34 12 59 20V0H48v-73c44-11 77-21 99-30s33-19 33-31v-1132c0-72-3-116-63-125-17-3-40-6-69-9v-70c124-19 232-37 328-80l44 41v975l263-235c22-20 37-35 43-47 22-42-32-40-71-41v-73h447v73c-71 9-125 31-175 69L623-558l361 409c28 39 78 50 147 43" id="aa"/><path fill="#666" d="M63-1470c123-17 231-39 329-80l43 41v1375c9 30 42 35 75 46 18 6 41 10 68 15V0H53v-73c57-11 103-17 136-45 4-5 6-11 6-16v-1132c0-71-5-115-64-124-17-3-40-7-68-10v-70" id="ab"/><path fill="#666" d="M547-95c182-3 211-159 211-345 0-159-46-293-136-363-28-21-59-32-93-32-183 0-211 174-211 362 0 156 53 282 142 349 28 20 56 29 87 29zm197-829c193 78 317 304 248 570C945-174 822-46 648 10 468 68 279-10 189-105 84-216 25-453 102-636c75-177 215-324 456-324 68 0 130 13 186 36" id="ac"/><g id="b"><use transform="matrix(0.015660796105383734,0,0,0.015660796105383734,0,0)" xlink:href="#Y"/><use transform="matrix(0.015660796105383734,0,0,0.015660796105383734,27.26544601947308,0)" xlink:href="#Z"/><use transform="matrix(0.015660796105383734,0,0,0.015660796105383734,36.89683562428408,0)" xlink:href="#aa"/><use transform="matrix(0.015660796105383734,0,0,0.015660796105383734,54.577874427262316,0)" xlink:href="#Z"/><use transform="matrix(0.015660796105383734,0,0,0.015660796105383734,64.2092640320733,0)" xlink:href="#ab"/><use transform="matrix(0.015660796105383734,0,0,0.015660796105383734,73.8406536368843,0)" xlink:href="#Z"/><use transform="matrix(0.015660796105383734,0,0,0.015660796105383734,83.47204324169529,0)" xlink:href="#W"/><use transform="matrix(0.015660796105383734,0,0,0.015660796105383734,110.53389891179839,0)" xlink:href="#ac"/></g><path fill="#666" d="M747-550l-165-465-150 465h315zM392-430l-96 289c-7 21 1 36 24 45s62 17 117 23V0H0v-73c73-17 133-13 151-68l349-1066c60-51 139-84 222-110l420 1176c16 49 64 60 124 68V0H769v-73c52-3 87-10 105-20s24-26 17-48L789-430H392" id="ad"/><path fill="#666" d="M608-1485c121-11 249-37 339-65l38 37c1 424-6 852 1 1273 1 44 4 85 54 78 27-4 45-13 73-25l28 73C1051-58 957 4 844 30c-48 0-79-58-92-175C662-60 594 30 431 30 250 30 151-100 97-245c-43-117-45-275 3-393 72-177 212-322 451-322 86 0 134 17 194 59-1-141 2-293-1-431-2-78-58-77-136-84v-69zM450-183c118 65 220-16 295-86v-437c-42-68-108-122-210-122-175 0-230 145-230 330 0 149 51 263 145 315" id="ae"/><path fill="#666" d="M814-960c151 0 221 99 221 256v570c8 28 38 30 68 42 17 7 39 12 65 19V0H663v-73c48-13 82-24 102-33s30-19 30-28v-454c-3-102-4-195-105-190-125 7-188 76-270 139v505c0 10 11 20 34 31s56 21 99 30V0H48v-73c44-11 77-22 99-31s33-19 33-30c-1-205 6-414-2-617-2-64-63-55-130-67v-70c119-13 221-35 315-72l42 42 11 144c121-102 230-186 398-186" id="af"/><g id="c"><use transform="matrix(0.015660796105383734,0,0,0.015660796105383734,0,0)" xlink:href="#ad"/><use transform="matrix(0.015660796105383734,0,0,0.015660796105383734,20.155444587628867,0)" xlink:href="#ae"/><use transform="matrix(0.015660796105383734,0,0,0.015660796105383734,38.134038516609394,0)" xlink:href="#W"/><use transform="matrix(0.015660796105383734,0,0,0.015660796105383734,65.19589418671248,0)" xlink:href="#Z"/><use transform="matrix(0.015660796105383734,0,0,0.015660796105383734,74.82728379152347,0)" xlink:href="#af"/></g><path fill="#666" d="M480-153c90 0 143-40 212-75l44 73C647-91 572-44 511-14S401 30 366 30C216 30 155-87 155-244v-561H34L5-841l78-89h72v-209l202-149 38 33v325h305l36 36c-27 45-62 92-101 124-61-29-146-39-240-35v468c3 90 5 184 85 184" id="ag"/><path fill="#666" d="M814-960c151 0 221 99 221 256v570c8 28 38 30 68 42 17 7 39 12 65 19V0H663v-73c48-13 82-24 102-33s30-19 30-28v-439c-2-110-6-210-113-205-117 5-174 73-262 139v505c0 10 11 20 34 31s56 21 99 30V0H48v-73c44-11 77-22 99-31s33-19 33-30c-2-399 10-806-2-1200-2-63-65-55-130-66v-70c124-17 229-40 328-80l44 41v727c119-96 229-178 394-178" id="ah"/><g id="d"><use transform="matrix(0.012304911225658648,0,0,0.012304911225658648,0,0)" xlink:href="#Y"/><use transform="matrix(0.012304911225658648,0,0,0.012304911225658648,21.422850443871706,0)" xlink:href="#X"/><use transform="matrix(0.012304911225658648,0,0,0.012304911225658648,33.61701746849943,0)" xlink:href="#U"/><use transform="matrix(0.012304911225658648,0,0,0.012304911225658648,46.204941652348225,0)" xlink:href="#ag"/><use transform="matrix(0.012304911225658648,0,0,0.012304911225658648,55.53206436139748,0)" xlink:href="#ah"/><use transform="matrix(0.012304911225658648,0,0,0.012304911225658648,70.17490871993127,0)" xlink:href="#X"/><use transform="matrix(0.012304911225658648,0,0,0.012304911225658648,82.36907574455898,0)" xlink:href="#V"/></g><path fill="#666" d="M644-1140c-115-71-322-32-312 118 8 121 112 163 201 211 153 82 329 146 407 303 48 97 22 239-26 316C821-43 638 56 388 23 288 10 187-22 116-68c-27-84-10-232 8-316l71 5c44 110 112 202 218 247 31 13 64 19 98 19 132 0 232-64 232-196 0-191-180-234-315-303-146-75-316-135-316-348 0-157 120-245 251-296 162-62 445-37 543 58 4 63-40 124-67 170-6 11-14 18-19 23l-66-6c-26-57-62-99-110-129" id="ai"/><path fill="#666" d="M1027-857c-52 12-85 23-103 68L641-82c-29 63-99 93-172 112L116-789c-20-44-45-54-103-68v-73h453v73c-41 6-70 8-94 23-16 11-12 26-4 45l215 503 202-503c24-56-33-59-81-68v-73h323v73" id="aj"/><path fill="#666" d="M567-138c129-2 186-59 272-116l54 64C782-73 692 30 480 30 279 30 161-92 100-245c-47-118-44-283 5-401 91-217 343-368 656-292 46 11 97 29 124 57-11 97-44 188-79 261l-67-10c-41-109-79-205-209-205-176 0-225 169-225 360 0 155 58 262 160 314 32 15 66 23 102 23" id="ak"/><g id="e"><use transform="matrix(0.012304911225658648,0,0,0.012304911225658648,0,0)" xlink:href="#ai"/><use transform="matrix(0.012304911225658648,0,0,0.012304911225658648,12.92015678694158,0)" xlink:href="#X"/><use transform="matrix(0.012304911225658648,0,0,0.012304911225658648,25.1143238115693,0)" xlink:href="#V"/><use transform="matrix(0.012304911225658648,0,0,0.012304911225658648,36.29948811569301,0)" xlink:href="#aj"/><use transform="matrix(0.012304911225658648,0,0,0.012304911225658648,49.096595790378004,0)" xlink:href="#Z"/><use transform="matrix(0.012304911225658648,0,0,0.012304911225658648,56.664116194158076,0)" xlink:href="#ak"/><use transform="matrix(0.012304911225658648,0,0,0.012304911225658648,68.14459836769758,0)" xlink:href="#X"/></g><path fill="#666" d="M835-895c0-223-165-306-405-287v1048c11 29 46 34 83 44 22 6 50 11 85 17V0H43v-73c45-9 80-20 103-31s34-21 34-30v-1024c-47 6-93 13-137 20l-13-92c266-56 702-113 915 31 82 54 142 136 142 263 0 233-144 351-331 404-86 24-194 10-261-18l-31-105c48 22 79 30 139 30 154 0 232-108 232-270" id="al"/><g id="f"><use transform="matrix(0.012304911225658648,0,0,0.012304911225658648,0,0)" xlink:href="#al"/><use transform="matrix(0.012304911225658648,0,0,0.012304911225658648,14.28600193298969,0)" xlink:href="#V"/><use transform="matrix(0.012304911225658648,0,0,0.012304911225658648,25.4711662371134,0)" xlink:href="#ac"/><use transform="matrix(0.012304911225658648,0,0,0.012304911225658648,38.69894580469645,0)" xlink:href="#aj"/><use transform="matrix(0.012304911225658648,0,0,0.012304911225658648,51.496053479381445,0)" xlink:href="#Z"/><use transform="matrix(0.012304911225658648,0,0,0.012304911225658648,59.06357388316151,0)" xlink:href="#ae"/><use transform="matrix(0.012304911225658648,0,0,0.012304911225658648,73.18961197021764,0)" xlink:href="#X"/><use transform="matrix(0.012304911225658648,0,0,0.012304911225658648,85.38377899484536,0)" xlink:href="#V"/></g><path fill="#fff" d="M233-177c-1 41-23 64-60 70L243 0h-38l-65-103H63V0H30v-248c88 3 205-21 203 71zM63-129c60-2 137 13 137-47 0-61-80-42-137-45v92" id="am"/><path fill="#fff" d="M100-194c63 0 86 42 84 106H49c0 40 14 67 53 68 26 1 43-12 49-29l28 8c-11 28-37 45-77 45C44 4 14-33 15-96c1-61 26-98 85-98zm52 81c6-60-76-77-97-28-3 7-6 17-6 28h103" id="an"/><path fill="#fff" d="M177-190C167-65 218 103 67 71c-23-6-38-20-44-43l32-5c15 47 100 32 89-28v-30C133-14 115 1 83 1 29 1 15-40 15-95c0-56 16-97 71-98 29-1 48 16 59 35 1-10 0-23 2-32h30zM94-22c36 0 50-32 50-73 0-42-14-75-50-75-39 0-46 34-46 75s6 73 46 73" id="ao"/><path fill="#fff" d="M24-231v-30h32v30H24zM24 0v-190h32V0H24" id="ap"/><path fill="#fff" d="M135-143c-3-34-86-38-87 0 15 53 115 12 119 90S17 21 10-45l28-5c4 36 97 45 98 0-10-56-113-15-118-90-4-57 82-63 122-42 12 7 21 19 24 35" id="aq"/><path fill="#fff" d="M59-47c-2 24 18 29 38 22v24C64 9 27 4 27-40v-127H5v-23h24l9-43h21v43h35v23H59v120" id="ar"/><path fill="#fff" d="M114-163C36-179 61-72 57 0H25l-1-190h30c1 12-1 29 2 39 6-27 23-49 58-41v29" id="as"/><g id="g"><use transform="matrix(0.07636502481863307,0,0,0.07636502481863307,0,0)" xlink:href="#am"/><use transform="matrix(0.07636502481863307,0,0,0.07636502481863307,19.778541428025964,0)" xlink:href="#an"/><use transform="matrix(0.07636502481863307,0,0,0.07636502481863307,35.05154639175258,0)" xlink:href="#ao"/><use transform="matrix(0.07636502481863307,0,0,0.07636502481863307,50.324551355479194,0)" xlink:href="#ap"/><use transform="matrix(0.07636502481863307,0,0,0.07636502481863307,56.357388316151216,0)" xlink:href="#aq"/><use transform="matrix(0.07636502481863307,0,0,0.07636502481863307,70.10309278350516,0)" xlink:href="#ar"/><use transform="matrix(0.07636502481863307,0,0,0.07636502481863307,77.73959526536846,0)" xlink:href="#an"/><use transform="matrix(0.07636502481863307,0,0,0.07636502481863307,93.01260022909507,0)" xlink:href="#as"/></g><path fill="#666" d="M522-415c101 0 146-78 146-185 0-142-66-245-207-245-97 0-146 80-146 186 0 144 63 244 207 244zm53 765c133-2 230-54 230-178 0-69-58-86-121-106-79-25-213-31-297-54-63 50-124 78-132 171 13 95 103 130 193 153 39 10 82 14 127 14zM854-792c51 72 59 207 10 292-71 123-201 204-391 205-35 33-49 49-59 84 3 21 11 28 34 35 189 59 495 33 572 193 50 103-10 216-63 273-120 128-305 228-561 196-155-20-294-66-359-177-38-65-21-150 27-193 58-53 118-95 202-141-87-42-137-66-104-127 37-68 103-114 172-162C198-355 85-434 85-602c0-179 131-276 271-330 132-52 312-27 404 42 96-10 198-45 269-70l28 37c-14 41-34 82-57 115-48 8-91 13-146 16" id="at"/><path fill="#666" d="M618-902c125-11 230-32 335-58l37 46c1 227-3 457 1 682 1 43 7 81 55 72 14-3 39-12 73-27l25 75C1059-61 962 2 858 30c-84-6-95-83-108-166C647-55 571 30 408 30 227 30 155-88 155-279c-1-160 4-328-1-485-2-65-55-59-120-68v-70c123-10 226-26 326-58l35 46v572c2 110 10 203 116 199 111-4 169-63 239-119-2-165 6-340-4-499-4-64-57-67-128-71v-70" id="au"/><g id="h"><use transform="matrix(0.012304911225658648,0,0,0.012304911225658648,0,0)" xlink:href="#ad"/><use transform="matrix(0.012304911225658648,0,0,0.012304911225658648,15.83642074742268,0)" xlink:href="#at"/><use transform="matrix(0.012304911225658648,0,0,0.012304911225658648,28.867321735395187,0)" xlink:href="#V"/><use transform="matrix(0.012304911225658648,0,0,0.012304911225658648,40.0524860395189,0)" xlink:href="#Z"/><use transform="matrix(0.012304911225658648,0,0,0.012304911225658648,47.62000644329896,0)" xlink:href="#ak"/><use transform="matrix(0.012304911225658648,0,0,0.012304911225658648,59.10048861683848,0)" xlink:href="#au"/><use transform="matrix(0.012304911225658648,0,0,0.012304911225658648,73.28805126002291,0)" xlink:href="#ab"/><use transform="matrix(0.012304911225658648,0,0,0.012304911225658648,80.85557166380298,0)" xlink:href="#ag"/><use transform="matrix(0.012304911225658648,0,0,0.012304911225658648,90.18269437285224,0)" xlink:href="#au"/><use transform="matrix(0.012304911225658648,0,0,0.012304911225658648,104.37025701603665,0)" xlink:href="#V"/><use transform="matrix(0.012304911225658648,0,0,0.012304911225658648,115.55542132016039,0)" xlink:href="#U"/><use transform="matrix(0.012304911225658648,0,0,0.012304911225658648,128.14334550400918,0)" xlink:href="#ab"/></g><path fill="#666" d="M547-808c-63-73-243-61-239 50 3 86 72 111 134 148 111 66 258 113 318 230 15 28 22 60 22 97C778-32 571 47 316 26 231 19 152-9 90-43c-26-75-10-216 7-293l81 11c29 127 98 232 242 232 90 0 142-26 142-112 0-138-143-173-241-229-81-46-168-92-212-173-33-59-21-140 9-197 90-174 455-200 628-79 8 74-29 165-58 217l-69-8c-17-59-43-101-72-134" id="av"/><path fill="#666" d="M1027-857c-52 13-92 21-110 68L583 75c-71 175-154 321-316 394-97 43-242 24-311-23-29-19-21-25-1-56 32-50 83-111 130-145 52 34 119 57 188 33 96-33 146-148 186-255L124-789c-20-44-53-54-111-68v-73h453v73c-40 6-69 7-90 23-15 12-7 27 0 45l206 502c67-176 140-348 204-527-5-37-47-32-86-43v-73h327v73" id="aw"/><g id="i"><use transform="matrix(0.012304911225658648,0,0,0.012304911225658648,0,0)" xlink:href="#ad"/><use transform="matrix(0.012304911225658648,0,0,0.012304911225658648,15.83642074742268,0)" xlink:href="#ae"/><use transform="matrix(0.012304911225658648,0,0,0.012304911225658648,29.96245883447881,0)" xlink:href="#aj"/><use transform="matrix(0.012304911225658648,0,0,0.012304911225658648,42.759566509163804,0)" xlink:href="#Z"/><use transform="matrix(0.012304911225658648,0,0,0.012304911225658648,50.32708691294387,0)" xlink:href="#av"/><use transform="matrix(0.012304911225658648,0,0,0.012304911225658648,60.88470074455899,0)" xlink:href="#ac"/><use transform="matrix(0.012304911225658648,0,0,0.012304911225658648,74.11248031214204,0)" xlink:href="#V"/><use transform="matrix(0.012304911225658648,0,0,0.012304911225658648,85.29764461626576,0)" xlink:href="#aw"/></g><path fill="#666" d="M1018-1020c-3 161-94 257-228 297 153 26 262 111 314 237 37 89 33 204-10 284C1014-55 841 14 612 14 418 14 240 0 43 0v-73c45-9 80-20 103-31s34-21 34-30v-1031c-47 5-95 12-137 19l-13-84c290-64 798-126 954 97 22 33 34 71 34 113zM867-337c0-192-103-300-302-302-57 0-90 6-135 13v499c0 5 2 9 5 13 38 16 86 21 140 21 178 3 292-80 292-244zM765-971c2-183-146-218-335-212v443c197 2 333-46 335-231" id="ax"/><g id="j"><use transform="matrix(0.012304911225658648,0,0,0.012304911225658648,0,0)" xlink:href="#ax"/><use transform="matrix(0.012304911225658648,0,0,0.012304911225658648,15.147345718785795,0)" xlink:href="#ac"/><use transform="matrix(0.012304911225658648,0,0,0.012304911225658648,28.375125286368842,0)" xlink:href="#ae"/><use transform="matrix(0.012304911225658648,0,0,0.012304911225658648,42.50116337342497,0)" xlink:href="#aw"/></g><path fill="#666" d="M185-189c-5-48-123-54-124 2 14 75 158 14 163 119 3 78-121 87-175 55-17-10-28-26-33-46l33-7c5 56 141 63 141-1 0-78-155-14-162-118-5-82 145-84 179-34 5 7 8 16 11 25" id="ay"/><path fill="#666" d="M179-190L93 31C79 59 56 82 12 73V49c39 6 53-20 64-50L1-190h34L92-34l54-156h33" id="az"/><path fill="#666" d="M135-143c-3-34-86-38-87 0 15 53 115 12 119 90S17 21 10-45l28-5c4 36 97 45 98 0-10-56-113-15-118-90-4-57 82-63 122-42 12 7 21 19 24 35" id="aA"/><path fill="#666" d="M59-47c-2 24 18 29 38 22v24C64 9 27 4 27-40v-127H5v-23h24l9-43h21v43h35v23H59v120" id="aB"/><path fill="#666" d="M100-194c63 0 86 42 84 106H49c0 40 14 67 53 68 26 1 43-12 49-29l28 8c-11 28-37 45-77 45C44 4 14-33 15-96c1-61 26-98 85-98zm52 81c6-60-76-77-97-28-3 7-6 17-6 28h103" id="aC"/><path fill="#666" d="M210-169c-67 3-38 105-44 169h-31v-121c0-29-5-50-35-48C34-165 62-65 56 0H25l-1-190h30c1 10-1 24 2 32 10-44 99-50 107 0 11-21 27-35 58-36 85-2 47 119 55 194h-31v-121c0-29-5-49-35-48" id="aD"/><g id="k"><use transform="matrix(0.04454626447753596,0,0,0.04454626447753596,0,0)" xlink:href="#ay"/><use transform="matrix(0.04454626447753596,0,0,0.04454626447753596,10.69110347460863,0)" xlink:href="#az"/><use transform="matrix(0.04454626447753596,0,0,0.04454626447753596,18.709431080565103,0)" xlink:href="#aA"/><use transform="matrix(0.04454626447753596,0,0,0.04454626447753596,26.727758686521575,0)" xlink:href="#aB"/><use transform="matrix(0.04454626447753596,0,0,0.04454626447753596,31.18238513427517,0)" xlink:href="#aC"/><use transform="matrix(0.04454626447753596,0,0,0.04454626447753596,40.09163802978236,0)" xlink:href="#aD"/></g><g id="l"><use transform="matrix(0.012304911225658648,0,0,0.012304911225658648,0,0)" xlink:href="#T"/><use transform="matrix(0.012304911225658648,0,0,0.012304911225658648,12.784802763459336,0)" xlink:href="#Z"/><use transform="matrix(0.012304911225658648,0,0,0.012304911225658648,20.352323167239405,0)" xlink:href="#af"/><use transform="matrix(0.012304911225658648,0,0,0.012304911225658648,34.9951675257732,0)" xlink:href="#U"/><use transform="matrix(0.012304911225658648,0,0,0.012304911225658648,47.583091709621996,0)" xlink:href="#af"/><use transform="matrix(0.012304911225658648,0,0,0.012304911225658648,62.2259360681558,0)" xlink:href="#ak"/><use transform="matrix(0.012304911225658648,0,0,0.012304911225658648,73.7064182416953,0)" xlink:href="#Z"/><use transform="matrix(0.012304911225658648,0,0,0.012304911225658648,81.27393864547537,0)" xlink:href="#U"/><use transform="matrix(0.012304911225658648,0,0,0.012304911225658648,93.86186282932417,0)" xlink:href="#ab"/></g><g id="m"><use transform="matrix(0.012304911225658648,0,0,0.012304911225658648,0,0)" xlink:href="#ad"/><use transform="matrix(0.012304911225658648,0,0,0.012304911225658648,15.83642074742268,0)" xlink:href="#ae"/><use transform="matrix(0.012304911225658648,0,0,0.012304911225658648,29.96245883447881,0)" xlink:href="#aj"/><use transform="matrix(0.012304911225658648,0,0,0.012304911225658648,42.759566509163804,0)" xlink:href="#Z"/><use transform="matrix(0.012304911225658648,0,0,0.012304911225658648,50.32708691294387,0)" xlink:href="#av"/><use transform="matrix(0.012304911225658648,0,0,0.012304911225658648,60.88470074455899,0)" xlink:href="#ac"/><use transform="matrix(0.012304911225658648,0,0,0.012304911225658648,74.11248031214204,0)" xlink:href="#V"/><use transform="matrix(0.012304911225658648,0,0,0.012304911225658648,85.29764461626576,0)" xlink:href="#aw"/></g><path fill="#fff" d="M185-189c-5-48-123-54-124 2 14 75 158 14 163 119 3 78-121 87-175 55-17-10-28-26-33-46l33-7c5 56 141 63 141-1 0-78-155-14-162-118-5-82 145-84 179-34 5 7 8 16 11 25" id="aE"/><path fill="#fff" d="M117-194c89-4 53 116 60 194h-32v-121c0-31-8-49-39-48C34-167 62-67 57 0H25l-1-190h30c1 10-1 24 2 32 11-22 29-35 61-36" id="aF"/><path fill="#fff" d="M85-194c31 0 48 13 60 33l-1-100h32l1 261h-30c-2-10 0-23-3-31C134-8 116 4 85 4 32 4 16-35 15-94c0-66 23-100 70-100zm9 24c-40 0-46 34-46 75 0 40 6 74 45 74 42 0 51-32 51-76 0-42-9-74-50-73" id="aG"/><g id="n"><use transform="matrix(0.07636502481863307,0,0,0.07636502481863307,0,0)" xlink:href="#aE"/><use transform="matrix(0.07636502481863307,0,0,0.07636502481863307,18.327605956471935,0)" xlink:href="#an"/><use transform="matrix(0.07636502481863307,0,0,0.07636502481863307,33.60061092019855,0)" xlink:href="#aF"/><use transform="matrix(0.07636502481863307,0,0,0.07636502481863307,48.87361588392516,0)" xlink:href="#aG"/></g><path fill="#fff" d="M141-36C126-15 110 5 73 4 37 3 15-17 15-53c-1-64 63-63 125-63 3-35-9-54-41-54-24 1-41 7-42 31l-33-3c5-37 33-52 76-52 45 0 72 20 72 64v82c-1 20 7 32 28 27v20c-31 9-61-2-59-35zM48-53c0 20 12 33 32 33 41-3 63-29 60-74-43 2-92-5-92 41" id="aH"/><use transform="matrix(0.07636502481863307,0,0,0.07636502481863307,0,0)" xlink:href="#aH" id="o"/><path fill="#fff" d="M115-194c55 1 70 41 70 98S169 2 115 4C84 4 66-9 55-30l1 105H24l-1-265h31l2 30c10-21 28-34 59-34zm-8 174c40 0 45-34 45-75s-6-73-45-74c-42 0-51 32-51 76 0 43 10 73 51 73" id="aI"/><path fill="#fff" d="M100-194c62-1 85 37 85 99 1 63-27 99-86 99S16-35 15-95c0-66 28-99 85-99zM99-20c44 1 53-31 53-75 0-43-8-75-51-75s-53 32-53 75 10 74 51 75" id="aJ"/><g id="p"><use transform="matrix(0.07636502481863307,0,0,0.07636502481863307,0,0)" xlink:href="#am"/><use transform="matrix(0.07636502481863307,0,0,0.07636502481863307,19.778541428025964,0)" xlink:href="#an"/><use transform="matrix(0.07636502481863307,0,0,0.07636502481863307,35.05154639175258,0)" xlink:href="#aI"/><use transform="matrix(0.07636502481863307,0,0,0.07636502481863307,50.324551355479194,0)" xlink:href="#aJ"/><use transform="matrix(0.07636502481863307,0,0,0.07636502481863307,65.59755631920581,0)" xlink:href="#as"/><use transform="matrix(0.07636502481863307,0,0,0.07636502481863307,74.68499427262314,0)" xlink:href="#ar"/></g><path fill="#fff" d="M87 75C49 33 22-17 22-94c0-76 28-126 65-167h31c-38 41-64 92-64 168S80 34 118 75H87" id="aK"/><path fill="#fff" d="M266 0h-40l-56-210L115 0H75L2-248h35L96-30l15-64 43-154h32l59 218 59-218h35" id="aL"/><path fill="#fff" d="M106-169C34-169 62-67 57 0H25v-261h32l-1 103c12-21 28-36 61-36 89 0 53 116 60 194h-32v-121c2-32-8-49-39-48" id="aM"/><path fill="#fff" d="M0 4l72-265h28L28 4H0" id="aN"/><path fill="#fff" d="M212-179c-10-28-35-45-73-45-59 0-87 40-87 99 0 60 29 101 89 101 43 0 62-24 78-52l27 14C228-24 195 4 139 4 59 4 22-46 18-125c-6-104 99-153 187-111 19 9 31 26 39 46" id="aO"/><path fill="#fff" d="M30-248c87 1 191-15 191 75 0 78-77 80-158 76V0H30v-248zm33 125c57 0 124 11 124-50 0-59-68-47-124-48v98" id="aP"/><path fill="#fff" d="M33-261c38 41 65 92 65 168S71 34 33 75H2C39 34 66-17 66-93S39-220 2-261h31" id="aQ"/><g id="q"><use transform="matrix(0.07636502481863307,0,0,0.07636502481863307,0,0)" xlink:href="#aK"/><use transform="matrix(0.07636502481863307,0,0,0.07636502481863307,9.087437953417336,0)" xlink:href="#aL"/><use transform="matrix(0.07636502481863307,0,0,0.07636502481863307,34.440626193203514,0)" xlink:href="#an"/><use transform="matrix(0.07636502481863307,0,0,0.07636502481863307,49.71363115693013,0)" xlink:href="#aH"/><use transform="matrix(0.07636502481863307,0,0,0.07636502481863307,64.98663612065674,0)" xlink:href="#ar"/><use transform="matrix(0.07636502481863307,0,0,0.07636502481863307,72.62313860252004,0)" xlink:href="#aM"/><use transform="matrix(0.07636502481863307,0,0,0.07636502481863307,87.89614356624665,0)" xlink:href="#an"/><use transform="matrix(0.07636502481863307,0,0,0.07636502481863307,103.16914852997326,0)" xlink:href="#as"/><use transform="matrix(0.07636502481863307,0,0,0.07636502481863307,112.25658648339059,0)" xlink:href="#aN"/><use transform="matrix(0.07636502481863307,0,0,0.07636502481863307,119.8930889652539,0)" xlink:href="#aO"/><use transform="matrix(0.07636502481863307,0,0,0.07636502481863307,139.67163039327986,0)" xlink:href="#as"/><use transform="matrix(0.07636502481863307,0,0,0.07636502481863307,148.75906834669718,0)" xlink:href="#aJ"/><use transform="matrix(0.07636502481863307,0,0,0.07636502481863307,164.03207331042378,0)" xlink:href="#aI"/><use transform="matrix(0.07636502481863307,0,0,0.07636502481863307,179.30507827415036,0)" xlink:href="#aN"/><use transform="matrix(0.07636502481863307,0,0,0.07636502481863307,186.9415807560137,0)" xlink:href="#aP"/><use transform="matrix(0.07636502481863307,0,0,0.07636502481863307,205.26918671248566,0)" xlink:href="#an"/><use transform="matrix(0.07636502481863307,0,0,0.07636502481863307,220.54219167621224,0)" xlink:href="#aq"/><use transform="matrix(0.07636502481863307,0,0,0.07636502481863307,234.28789614356623,0)" xlink:href="#ar"/><use transform="matrix(0.07636502481863307,0,0,0.07636502481863307,241.92439862542952,0)" xlink:href="#aQ"/></g><path fill="#fff" d="M140-251c81 0 123 46 123 126C263-53 228-8 163 1c7 30 30 48 69 40v23c-55 16-95-15-103-61C56-3 17-48 17-125c0-80 42-126 123-126zm0 227c63 0 89-41 89-101s-29-99-89-99c-61 0-89 39-89 99S79-25 140-24" id="aR"/><path fill="#fff" d="M84 4C-5 8 30-112 23-190h32v120c0 31 7 50 39 49 72-2 45-101 50-169h31l1 190h-30c-1-10 1-25-2-33-11 22-28 36-60 37" id="aS"/><path fill="#fff" d="M179-190L93 31C79 59 56 82 12 73V49c39 6 53-20 64-50L1-190h34L92-34l54-156h33" id="aT"/><g id="r"><use transform="matrix(0.07636502481863307,0,0,0.07636502481863307,0,0)" xlink:href="#aR"/><use transform="matrix(0.07636502481863307,0,0,0.07636502481863307,21.38220694921726,0)" xlink:href="#aS"/><use transform="matrix(0.07636502481863307,0,0,0.07636502481863307,36.65521191294387,0)" xlink:href="#an"/><use transform="matrix(0.07636502481863307,0,0,0.07636502481863307,51.92821687667048,0)" xlink:href="#as"/><use transform="matrix(0.07636502481863307,0,0,0.07636502481863307,61.01565483008782,0)" xlink:href="#aT"/></g><path fill="#fff" d="M96-169c-40 0-48 33-48 73s9 75 48 75c24 0 41-14 43-38l32 2c-6 37-31 61-74 61-59 0-76-41-82-99-10-93 101-131 147-64 4 7 5 14 7 22l-32 3c-4-21-16-35-41-35" id="aU"/><path fill="#fff" d="M108 0H70L1-190h34L89-25l56-165h34" id="aV"/><g id="s"><use transform="matrix(0.07636502481863307,0,0,0.07636502481863307,0,0)" xlink:href="#am"/><use transform="matrix(0.07636502481863307,0,0,0.07636502481863307,19.778541428025964,0)" xlink:href="#an"/><use transform="matrix(0.07636502481863307,0,0,0.07636502481863307,35.05154639175258,0)" xlink:href="#aU"/><use transform="matrix(0.07636502481863307,0,0,0.07636502481863307,48.79725085910653,0)" xlink:href="#an"/><use transform="matrix(0.07636502481863307,0,0,0.07636502481863307,64.07025582283315,0)" xlink:href="#ap"/><use transform="matrix(0.07636502481863307,0,0,0.07636502481863307,70.10309278350516,0)" xlink:href="#aV"/><use transform="matrix(0.07636502481863307,0,0,0.07636502481863307,83.84879725085912,0)" xlink:href="#an"/></g><g id="t"><use transform="matrix(0.07636502481863307,0,0,0.07636502481863307,0,0)" xlink:href="#aR"/><use transform="matrix(0.07636502481863307,0,0,0.07636502481863307,21.38220694921726,0)" xlink:href="#aS"/><use transform="matrix(0.07636502481863307,0,0,0.07636502481863307,36.65521191294387,0)" xlink:href="#an"/><use transform="matrix(0.07636502481863307,0,0,0.07636502481863307,51.92821687667048,0)" xlink:href="#as"/><use transform="matrix(0.07636502481863307,0,0,0.07636502481863307,61.01565483008782,0)" xlink:href="#aT"/></g><path fill="#fff" d="M24 0v-261h32V0H24" id="aW"/><g id="u"><use transform="matrix(0.07636502481863307,0,0,0.07636502481863307,0,0)" xlink:href="#am"/><use transform="matrix(0.07636502481863307,0,0,0.07636502481863307,19.778541428025964,0)" xlink:href="#an"/><use transform="matrix(0.07636502481863307,0,0,0.07636502481863307,35.05154639175258,0)" xlink:href="#aq"/><use transform="matrix(0.07636502481863307,0,0,0.07636502481863307,48.79725085910653,0)" xlink:href="#aS"/><use transform="matrix(0.07636502481863307,0,0,0.07636502481863307,64.07025582283315,0)" xlink:href="#aW"/><use transform="matrix(0.07636502481863307,0,0,0.07636502481863307,70.10309278350516,0)" xlink:href="#ar"/></g><g id="v"><use transform="matrix(0.07636502481863307,0,0,0.07636502481863307,0,0)" xlink:href="#am"/><use transform="matrix(0.07636502481863307,0,0,0.07636502481863307,19.778541428025964,0)" xlink:href="#an"/><use transform="matrix(0.07636502481863307,0,0,0.07636502481863307,35.05154639175258,0)" xlink:href="#aU"/><use transform="matrix(0.07636502481863307,0,0,0.07636502481863307,48.79725085910653,0)" xlink:href="#an"/><use transform="matrix(0.07636502481863307,0,0,0.07636502481863307,64.07025582283315,0)" xlink:href="#ap"/><use transform="matrix(0.07636502481863307,0,0,0.07636502481863307,70.10309278350516,0)" xlink:href="#aV"/><use transform="matrix(0.07636502481863307,0,0,0.07636502481863307,83.84879725085912,0)" xlink:href="#an"/></g><path fill="#fff" d="M210-169c-67 3-38 105-44 169h-31v-121c0-29-5-50-35-48C34-165 62-65 56 0H25l-1-190h30c1 10-1 24 2 32 10-44 99-50 107 0 11-21 27-35 58-36 85-2 47 119 55 194h-31v-121c0-29-5-49-35-48" id="aX"/><g id="w"><use transform="matrix(0.07636502481863307,0,0,0.07636502481863307,0,0)" xlink:href="#aH"/><use transform="matrix(0.07636502481863307,0,0,0.07636502481863307,15.273004963726613,0)" xlink:href="#aS"/><use transform="matrix(0.07636502481863307,0,0,0.07636502481863307,30.546009927453227,0)" xlink:href="#ar"/><use transform="matrix(0.07636502481863307,0,0,0.07636502481863307,38.18251240931653,0)" xlink:href="#aJ"/><use transform="matrix(0.07636502481863307,0,0,0.07636502481863307,53.45551737304315,0)" xlink:href="#aX"/><use transform="matrix(0.07636502481863307,0,0,0.07636502481863307,76.28865979381443,0)" xlink:href="#aH"/><use transform="matrix(0.07636502481863307,0,0,0.07636502481863307,91.56166475754105,0)" xlink:href="#ar"/><use transform="matrix(0.07636502481863307,0,0,0.07636502481863307,99.19816723940436,0)" xlink:href="#an"/><use transform="matrix(0.07636502481863307,0,0,0.07636502481863307,114.47117220313096,0)" xlink:href="#aG"/></g><path fill="#fff" d="M101-234c-31-9-42 10-38 44h38v23H63V0H32v-167H5v-23h27c-7-52 17-82 69-68v24" id="aY"/><g id="x"><use transform="matrix(0.07636502481863307,0,0,0.07636502481863307,0,0)" xlink:href="#ap"/><use transform="matrix(0.07636502481863307,0,0,0.07636502481863307,6.032836960672013,0)" xlink:href="#aF"/><use transform="matrix(0.07636502481863307,0,0,0.07636502481863307,21.305841924398624,0)" xlink:href="#aY"/><use transform="matrix(0.07636502481863307,0,0,0.07636502481863307,28.94234440626193,0)" xlink:href="#aJ"/></g><path fill="#fff" d="M205 0l-28-72H64L36 0H1l101-248h38L239 0h-34zm-38-99l-47-123c-12 45-31 82-46 123h93" id="aZ"/><g id="y"><use transform="matrix(0.07636502481863307,0,0,0.07636502481863307,0,0)" xlink:href="#aK"/><use transform="matrix(0.07636502481863307,0,0,0.07636502481863307,9.087437953417336,0)" xlink:href="#aP"/><use transform="matrix(0.07636502481863307,0,0,0.07636502481863307,27.41504390988927,0)" xlink:href="#aE"/><use transform="matrix(0.07636502481863307,0,0,0.07636502481863307,45.742649866361205,0)" xlink:href="#aZ"/></g><use transform="matrix(0.07636502481863307,0,0,0.07636502481863307,0,0)" xlink:href="#aN" id="z"/><g id="A"><use transform="matrix(0.07636502481863307,0,0,0.07636502481863307,0,0)" xlink:href="#aS"/><use transform="matrix(0.07636502481863307,0,0,0.07636502481863307,15.273004963726613,0)" xlink:href="#aI"/><use transform="matrix(0.07636502481863307,0,0,0.07636502481863307,30.546009927453227,0)" xlink:href="#aG"/><use transform="matrix(0.07636502481863307,0,0,0.07636502481863307,45.81901489117984,0)" xlink:href="#aH"/><use transform="matrix(0.07636502481863307,0,0,0.07636502481863307,61.092019854906454,0)" xlink:href="#ar"/><use transform="matrix(0.07636502481863307,0,0,0.07636502481863307,68.72852233676976,0)" xlink:href="#an"/></g><use transform="matrix(0.07636502481863307,0,0,0.07636502481863307,0,0)" xlink:href="#aN" id="B"/><g id="C"><use transform="matrix(0.07636502481863307,0,0,0.07636502481863307,0,0)" xlink:href="#am"/><use transform="matrix(0.07636502481863307,0,0,0.07636502481863307,19.778541428025964,0)" xlink:href="#an"/><use transform="matrix(0.07636502481863307,0,0,0.07636502481863307,35.05154639175258,0)" xlink:href="#aX"/><use transform="matrix(0.07636502481863307,0,0,0.07636502481863307,57.88468881252386,0)" xlink:href="#ap"/><use transform="matrix(0.07636502481863307,0,0,0.07636502481863307,63.917525773195884,0)" xlink:href="#aF"/><use transform="matrix(0.07636502481863307,0,0,0.07636502481863307,79.1905307369225,0)" xlink:href="#aG"/><use transform="matrix(0.07636502481863307,0,0,0.07636502481863307,94.46353570064912,0)" xlink:href="#an"/><use transform="matrix(0.07636502481863307,0,0,0.07636502481863307,109.73654066437572,0)" xlink:href="#as"/></g><path fill="#fff" d="M30 0v-248h187v28H63v79h144v27H63v87h162V0H30" id="ba"/><g id="D"><use transform="matrix(0.07636502481863307,0,0,0.07636502481863307,0,0)" xlink:href="#ba"/><use transform="matrix(0.07636502481863307,0,0,0.07636502481863307,18.327605956471935,0)" xlink:href="#aX"/><use transform="matrix(0.07636502481863307,0,0,0.07636502481863307,41.16074837724322,0)" xlink:href="#an"/><use transform="matrix(0.07636502481863307,0,0,0.07636502481863307,56.43375334096984,0)" xlink:href="#as"/><use transform="matrix(0.07636502481863307,0,0,0.07636502481863307,65.52119129438717,0)" xlink:href="#ao"/><use transform="matrix(0.07636502481863307,0,0,0.07636502481863307,80.79419625811377,0)" xlink:href="#an"/><use transform="matrix(0.07636502481863307,0,0,0.07636502481863307,96.06720122184038,0)" xlink:href="#aF"/><use transform="matrix(0.07636502481863307,0,0,0.07636502481863307,111.34020618556698,0)" xlink:href="#aU"/><use transform="matrix(0.07636502481863307,0,0,0.07636502481863307,125.08591065292094,0)" xlink:href="#aT"/></g><g id="E"><use transform="matrix(0.07636502481863307,0,0,0.07636502481863307,0,0)" xlink:href="#aH"/><use transform="matrix(0.07636502481863307,0,0,0.07636502481863307,15.273004963726613,0)" xlink:href="#aW"/><use transform="matrix(0.07636502481863307,0,0,0.07636502481863307,21.305841924398624,0)" xlink:href="#an"/><use transform="matrix(0.07636502481863307,0,0,0.07636502481863307,36.57884688812524,0)" xlink:href="#as"/><use transform="matrix(0.07636502481863307,0,0,0.07636502481863307,45.66628484154258,0)" xlink:href="#ar"/><use transform="matrix(0.07636502481863307,0,0,0.07636502481863307,53.30278732340588,0)" xlink:href="#aQ"/></g><path fill="#fff" d="M30 0v-248h33v221h125V0H30" id="bb"/><g id="F"><use transform="matrix(0.07636502481863307,0,0,0.07636502481863307,0,0)" xlink:href="#bb"/><use transform="matrix(0.07636502481863307,0,0,0.07636502481863307,15.273004963726613,0)" xlink:href="#aJ"/><use transform="matrix(0.07636502481863307,0,0,0.07636502481863307,30.546009927453227,0)" xlink:href="#ao"/><use transform="matrix(0.07636502481863307,0,0,0.07636502481863307,45.81901489117984,0)" xlink:href="#ap"/><use transform="matrix(0.07636502481863307,0,0,0.07636502481863307,51.851851851851855,0)" xlink:href="#aF"/><use transform="matrix(0.07636502481863307,0,0,0.07636502481863307,67.12485681557847,0)" xlink:href="#aN"/><use transform="matrix(0.07636502481863307,0,0,0.07636502481863307,74.76135929744177,0)" xlink:href="#bb"/><use transform="matrix(0.07636502481863307,0,0,0.07636502481863307,90.03436426116836,0)" xlink:href="#aJ"/><use transform="matrix(0.07636502481863307,0,0,0.07636502481863307,105.30736922489498,0)" xlink:href="#ao"/><use transform="matrix(0.07636502481863307,0,0,0.07636502481863307,120.58037418862159,0)" xlink:href="#aJ"/><use transform="matrix(0.07636502481863307,0,0,0.07636502481863307,135.8533791523482,0)" xlink:href="#aS"/><use transform="matrix(0.07636502481863307,0,0,0.07636502481863307,151.1263841160748,0)" xlink:href="#ar"/></g><g id="G"><use transform="matrix(0.07636502481863307,0,0,0.07636502481863307,0,0)" xlink:href="#aJ"/><use transform="matrix(0.07636502481863307,0,0,0.07636502481863307,15.273004963726613,0)" xlink:href="#aY"/></g><g id="H"><use transform="matrix(0.07636502481863307,0,0,0.07636502481863307,0,0)" xlink:href="#aZ"/><use transform="matrix(0.07636502481863307,0,0,0.07636502481863307,18.327605956471935,0)" xlink:href="#aI"/><use transform="matrix(0.07636502481863307,0,0,0.07636502481863307,33.60061092019855,0)" xlink:href="#aI"/></g><path fill="#fff" d="M115-194c53 0 69 39 70 98 0 66-23 100-70 100C84 3 66-7 56-30L54 0H23l1-261h32v101c10-23 28-34 59-34zm-8 174c40 0 45-34 45-75 0-40-5-75-45-74-42 0-51 32-51 76 0 43 10 73 51 73" id="bc"/><g id="I"><use transform="matrix(0.07636502481863307,0,0,0.07636502481863307,0,0)" xlink:href="#aE"/><use transform="matrix(0.07636502481863307,0,0,0.07636502481863307,18.327605956471935,0)" xlink:href="#aS"/><use transform="matrix(0.07636502481863307,0,0,0.07636502481863307,33.60061092019855,0)" xlink:href="#bc"/><use transform="matrix(0.07636502481863307,0,0,0.07636502481863307,48.87361588392516,0)" xlink:href="#aX"/><use transform="matrix(0.07636502481863307,0,0,0.07636502481863307,71.70675830469645,0)" xlink:href="#ap"/><use transform="matrix(0.07636502481863307,0,0,0.07636502481863307,77.73959526536846,0)" xlink:href="#ar"/></g><g id="J"><use transform="matrix(0.07636502481863307,0,0,0.07636502481863307,0,0)" xlink:href="#aH"/><use transform="matrix(0.07636502481863307,0,0,0.07636502481863307,15.273004963726613,0)" xlink:href="#aG"/><use transform="matrix(0.07636502481863307,0,0,0.07636502481863307,30.546009927453227,0)" xlink:href="#aG"/><use transform="matrix(0.07636502481863307,0,0,0.07636502481863307,45.81901489117984,0)" xlink:href="#ar"/><use transform="matrix(0.07636502481863307,0,0,0.07636502481863307,53.45551737304315,0)" xlink:href="#ap"/><use transform="matrix(0.07636502481863307,0,0,0.07636502481863307,59.488354333715165,0)" xlink:href="#aJ"/><use transform="matrix(0.07636502481863307,0,0,0.07636502481863307,74.76135929744177,0)" xlink:href="#aF"/><use transform="matrix(0.07636502481863307,0,0,0.07636502481863307,90.03436426116836,0)" xlink:href="#aH"/><use transform="matrix(0.07636502481863307,0,0,0.07636502481863307,105.30736922489498,0)" xlink:href="#aW"/></g><g id="K"><use transform="matrix(0.07636502481863307,0,0,0.07636502481863307,0,0)" xlink:href="#aS"/><use transform="matrix(0.07636502481863307,0,0,0.07636502481863307,15.273004963726613,0)" xlink:href="#aq"/><use transform="matrix(0.07636502481863307,0,0,0.07636502481863307,29.018709431080566,0)" xlink:href="#an"/><use transform="matrix(0.07636502481863307,0,0,0.07636502481863307,44.29171439480718,0)" xlink:href="#as"/></g><g id="L"><use transform="matrix(0.07636502481863307,0,0,0.07636502481863307,0,0)" xlink:href="#ap"/><use transform="matrix(0.07636502481863307,0,0,0.07636502481863307,6.032836960672013,0)" xlink:href="#aF"/><use transform="matrix(0.07636502481863307,0,0,0.07636502481863307,21.305841924398624,0)" xlink:href="#aY"/><use transform="matrix(0.07636502481863307,0,0,0.07636502481863307,28.94234440626193,0)" xlink:href="#aJ"/></g><path fill="#fff" d="M9 0v-24l116-142H16v-24h144v24L44-24h123V0H9" id="bd"/><g id="M"><use transform="matrix(0.07636502481863307,0,0,0.07636502481863307,0,0)" xlink:href="#aI"/><use transform="matrix(0.07636502481863307,0,0,0.07636502481863307,15.273004963726613,0)" xlink:href="#an"/><use transform="matrix(0.07636502481863307,0,0,0.07636502481863307,30.546009927453227,0)" xlink:href="#as"/><use transform="matrix(0.07636502481863307,0,0,0.07636502481863307,39.63344788087056,0)" xlink:href="#aq"/><use transform="matrix(0.07636502481863307,0,0,0.07636502481863307,53.379152348224515,0)" xlink:href="#aJ"/><use transform="matrix(0.07636502481863307,0,0,0.07636502481863307,68.65215731195113,0)" xlink:href="#aF"/><use transform="matrix(0.07636502481863307,0,0,0.07636502481863307,83.92516227567774,0)" xlink:href="#aH"/><use transform="matrix(0.07636502481863307,0,0,0.07636502481863307,99.19816723940434,0)" xlink:href="#aW"/><use transform="matrix(0.07636502481863307,0,0,0.07636502481863307,105.23100420007636,0)" xlink:href="#ap"/><use transform="matrix(0.07636502481863307,0,0,0.07636502481863307,111.26384116074836,0)" xlink:href="#bd"/><use transform="matrix(0.07636502481863307,0,0,0.07636502481863307,125.00954562810233,0)" xlink:href="#an"/><use transform="matrix(0.07636502481863307,0,0,0.07636502481863307,140.28255059182894,0)" xlink:href="#aG"/></g><g id="N"><use transform="matrix(0.07636502481863307,0,0,0.07636502481863307,0,0)" xlink:href="#aS"/><use transform="matrix(0.07636502481863307,0,0,0.07636502481863307,15.273004963726613,0)" xlink:href="#aI"/><use transform="matrix(0.07636502481863307,0,0,0.07636502481863307,30.546009927453227,0)" xlink:href="#aG"/><use transform="matrix(0.07636502481863307,0,0,0.07636502481863307,45.81901489117984,0)" xlink:href="#aH"/><use transform="matrix(0.07636502481863307,0,0,0.07636502481863307,61.092019854906454,0)" xlink:href="#ar"/><use transform="matrix(0.07636502481863307,0,0,0.07636502481863307,68.72852233676976,0)" xlink:href="#an"/><use transform="matrix(0.07636502481863307,0,0,0.07636502481863307,84.00152730049638,0)" xlink:href="#aq"/></g><g id="O"><use transform="matrix(0.07636502481863307,0,0,0.07636502481863307,0,0)" xlink:href="#as"/><use transform="matrix(0.07636502481863307,0,0,0.07636502481863307,9.087437953417336,0)" xlink:href="#an"/><use transform="matrix(0.07636502481863307,0,0,0.07636502481863307,24.36044291714395,0)" xlink:href="#aX"/><use transform="matrix(0.07636502481863307,0,0,0.07636502481863307,47.19358533791524,0)" xlink:href="#ap"/><use transform="matrix(0.07636502481863307,0,0,0.07636502481863307,53.226422298587245,0)" xlink:href="#aF"/><use transform="matrix(0.07636502481863307,0,0,0.07636502481863307,68.49942726231387,0)" xlink:href="#aG"/><use transform="matrix(0.07636502481863307,0,0,0.07636502481863307,83.77243222604048,0)" xlink:href="#an"/><use transform="matrix(0.07636502481863307,0,0,0.07636502481863307,99.04543718976709,0)" xlink:href="#as"/><use transform="matrix(0.07636502481863307,0,0,0.07636502481863307,108.13287514318442,0)" xlink:href="#aq"/></g><path d="M1732-1187c-58 13-106 21-144 47-5 5-7 10-8 15L1351-59c-18 57-86 74-146 89L864-877 577-59c-23 57-94 75-159 89L158-1117c-20-50-66-54-138-70v-73h489v73c-51 5-87 11-115 29-14 9-18 21-13 41l171 732 292-875h100l335 875 161-740c-5-38-54-40-91-50-19-5-40-8-63-12v-73h446v73" id="be"/><path d="M63-888c112-16 215-38 308-72h64v826c0 8 10 18 30 30s54 22 103 31V0H63v-73c45-9 79-20 100-31s32-21 32-30c-1-198 2-400-1-596-1-77-54-79-131-88v-70zm272-483c78 0 138 32 138 110 0 98-68 152-168 152-79 0-137-33-137-111 0-98 69-151 167-151" id="bf"/><path d="M1137-33c-109 17-285 88-359-10L420-517v383c3 28 26 30 51 41 14 6 34 12 59 20V0H48v-73c44-11 77-21 99-30s33-19 33-31v-1132c0-72-3-116-63-125-17-3-40-6-69-9v-70c124-19 232-37 328-80l44 41v975l263-235c22-20 37-35 43-47 22-42-32-40-71-41v-73h447v73c-71 9-125 31-175 69L623-558l361 409c28 39 78 50 147 43" id="bg"/><path d="M63-1470c123-17 231-39 329-80l43 41v1375c9 30 42 35 75 46 18 6 41 10 68 15V0H53v-73c57-11 103-17 136-45 4-5 6-11 6-16v-1132c0-71-5-115-64-124-17-3-40-7-68-10v-70" id="bh"/><path d="M1328-960c158 0 237 93 237 256v570c0 9 10 19 31 28s57 20 110 33V0h-497v-73c47-13 83-21 111-47 3-4 5-9 5-14v-469c-3-102-2-192-105-185-95 7-161 63-227 125v529c7 28 33 31 62 42 16 6 38 12 64 19V0H636v-73c47-13 85-21 112-47 3-4 5-9 5-14v-469c-3-100 4-193-98-185s-158 61-235 125v529c0 10 10 20 30 31s52 21 95 30V0H48v-73c44-11 77-22 99-31s33-19 33-30c-1-205 9-417-2-618-3-61-66-54-130-66v-70c120-13 219-36 315-72l42 42 11 124c100-81 183-166 347-166 125 0 197 59 215 166 101-81 185-166 350-166" id="bi"/><path d="M547-95c182-3 211-159 211-345 0-159-46-293-136-363-28-21-59-32-93-32-183 0-211 174-211 362 0 156 53 282 142 349 28 20 56 29 87 29zm197-829c193 78 317 304 248 570C945-174 822-46 648 10 468 68 279-10 189-105 84-216 25-453 102-636c75-177 215-324 456-324 68 0 130 13 186 36" id="bj"/><path d="M315-960c87 0 144 46 144 135 0 110-72 171-183 171-89 0-145-44-145-135 0-109 76-171 184-171zm0 694c87 0 144 46 144 135 0 110-72 171-183 171-89 0-145-44-145-135 0-109 76-171 184-171" id="bk"/><g id="P"><use transform="matrix(0.020135309278350513,0,0,0.020135309278350513,0,0)" xlink:href="#be"/><use transform="matrix(0.020135309278350513,0,0,0.020135309278350513,35.05557345360825,0)" xlink:href="#bf"/><use transform="matrix(0.020135309278350513,0,0,0.020135309278350513,47.43878865979382,0)" xlink:href="#bg"/><use transform="matrix(0.020135309278350513,0,0,0.020135309278350513,70.17155283505154,0)" xlink:href="#bf"/><use transform="matrix(0.020135309278350513,0,0,0.020135309278350513,82.55476804123711,0)" xlink:href="#bh"/><use transform="matrix(0.020135309278350513,0,0,0.020135309278350513,94.93798324742266,0)" xlink:href="#bf"/><use transform="matrix(0.020135309278350513,0,0,0.020135309278350513,107.32119845360826,0)" xlink:href="#bi"/><use transform="matrix(0.020135309278350513,0,0,0.020135309278350513,142.11501288659792,0)" xlink:href="#bj"/><use transform="matrix(0.020135309278350513,0,0,0.020135309278350513,163.76047036082474,0)" xlink:href="#bk"/><path d="M-2.06 4.03H187.2v2H-2.05z"/></g><path d="M743-115c200-5 257-179 257-383v-627c0-8-10-18-32-30s-57-23-105-32v-73h450v73c-45 9-80 20-103 31s-35 22-35 31v601c-2 264-110 436-295 516-60 25-127 38-199 38-309 0-501-160-501-474v-681c0-8-10-18-32-30s-57-23-105-32v-73h525v73c-45 9-80 20-103 31s-35 22-35 31v616c0 238 75 400 313 394" id="bl"/><path d="M547-808c-63-73-243-61-239 50 3 86 72 111 134 148 111 66 258 113 318 230 15 28 22 60 22 97C778-32 571 47 316 26 231 19 152-9 90-43c-26-75-10-216 7-293l81 11c29 127 98 232 242 232 90 0 142-26 142-112 0-138-143-173-241-229-81-46-168-92-212-173-33-59-21-140 9-197 90-174 455-200 628-79 8 74-29 165-58 217l-69-8c-17-59-43-101-72-134" id="bm"/><path d="M687-616c0-120-53-224-176-224-146 0-179 124-195 260h333c31-1 38-6 38-36zm233 421C797-79 706 34 480 30 277 26 159-94 98-249c-51-132-43-317 18-435 76-147 214-276 431-276 252 0 370 162 379 410-35 35-91 61-140 82H313c10 180 71 330 251 330 142 0 208-61 304-121 21 14 39 43 52 64" id="bn"/><g id="Q"><use transform="matrix(0.020135309278350513,0,0,0.020135309278350513,0,0)" xlink:href="#bl"/><use transform="matrix(0.020135309278350513,0,0,0.020135309278350513,27.56523840206185,0)" xlink:href="#bm"/><use transform="matrix(0.020135309278350513,0,0,0.020135309278350513,44.84133376288659,0)" xlink:href="#bn"/><path d="M-2.06 4.03h79.2v2h-79.2z"/></g><path d="M548-164c182 81 360-23 471-115 19 17 36 48 52 68C944-89 816 30 586 30c-256 0-407-160-486-356-64-157-57-393 4-550 101-260 325-453 694-406 98 12 191 44 254 92-9 71-56 133-86 187-7 12-14 21-19 26l-65-14c-57-98-128-167-260-167-252 0-314 258-314 535 0 231 84 390 240 459" id="bo"/><path d="M319-259c0 68 31 114 93 114 98 0 147-56 211-105v-221c-153 26-304 50-304 212zm584 99c38 0 59-16 91-27l22 75C927-56 834 9 717 30c-65-8-88-81-93-159C538-47 445 30 293 30 154 30 65-56 65-201c0-127 64-194 141-247 107-73 248-95 417-121v-118c9-110-74-169-178-134-46 15-82 54-78 119-52 44-150 61-229 78-15 2-26 3-31 2l-21-54c84-172 266-284 511-284 166 0 266 79 266 240v482c0 44 7 78 40 78" id="bp"/><g id="R"><use transform="matrix(0.020135309278350513,0,0,0.020135309278350513,0,0)" xlink:href="#bo"/><use transform="matrix(0.020135309278350513,0,0,0.020135309278350513,23.014658505154635,0)" xlink:href="#bp"/><use transform="matrix(0.020135309278350513,0,0,0.020135309278350513,43.61307989690721,0)" xlink:href="#bm"/><use transform="matrix(0.020135309278350513,0,0,0.020135309278350513,60.88917525773195,0)" xlink:href="#bn"/><path d="M-2.06 4.03h95.24v2H-2.06z"/></g><path d="M578-1290c408 0 643 208 643 614 0 370-167 586-463 660C711-4 664 0 619 0H43v-73c45-9 80-20 103-31s34-21 34-30v-1023l-137 19-13-92c159-36 354-60 548-60zm375 653c-1-354-149-573-523-545v1015c7 64 80 60 152 60 213 0 307-172 354-361 12-50 17-106 17-169" id="bq"/><path d="M522-415c101 0 146-78 146-185 0-142-66-245-207-245-97 0-146 80-146 186 0 144 63 244 207 244zm53 765c133-2 230-54 230-178 0-69-58-86-121-106-79-25-213-31-297-54-63 50-124 78-132 171 13 95 103 130 193 153 39 10 82 14 127 14zM854-792c51 72 59 207 10 292-71 123-201 204-391 205-35 33-49 49-59 84 3 21 11 28 34 35 189 59 495 33 572 193 50 103-10 216-63 273-120 128-305 228-561 196-155-20-294-66-359-177-38-65-21-150 27-193 58-53 118-95 202-141-87-42-137-66-104-127 37-68 103-114 172-162C198-355 85-434 85-602c0-179 131-276 271-330 132-52 312-27 404 42 96-10 198-45 269-70l28 37c-14 41-34 82-57 115-48 8-91 13-146 16" id="br"/><path d="M418-773c69-91 151-187 299-187 60 0 116 20 158 44 4 3 6 12 6 26 0 113-38 223-71 311h-73c-7-74-23-146-67-181-43-34-105-7-137 22-48 43-80 95-113 167v437c0 10 14 20 42 31s72 21 135 30V0H48v-73c88-20 132-40 132-61-1-195-2-395-2-586 0-82-49-99-130-98v-70c121-16 215-37 315-72l42 42" id="bs"/><g id="S"><use transform="matrix(0.020135309278350513,0,0,0.020135309278350513,0,0)" xlink:href="#bq"/><use transform="matrix(0.020135309278350513,0,0,0.020135309278350513,26.25644329896907,0)" xlink:href="#bf"/><use transform="matrix(0.020135309278350513,0,0,0.020135309278350513,38.639658505154635,0)" xlink:href="#bp"/><use transform="matrix(0.020135309278350513,0,0,0.020135309278350513,59.23807989690721,0)" xlink:href="#br"/><use transform="matrix(0.020135309278350513,0,0,0.020135309278350513,80.5613724226804,0)" xlink:href="#bs"/><use transform="matrix(0.020135309278350513,0,0,0.020135309278350513,98.86436855670102,0)" xlink:href="#bp"/><use transform="matrix(0.020135309278350513,0,0,0.020135309278350513,119.46278994845359,0)" xlink:href="#bi"/><path d="M-2.06 4.03h158.38v2H-2.06z"/></g></defs></g></svg>