<svg xmlns="http://www.w3.org/2000/svg" xmlns:xlink="http://www.w3.org/1999/xlink" xmlns:lucid="lucid" width="1813.98" height="2785.43"><g transform="translate(0 0)" lucid:page-tab-id="0_0"><path d="M0 0h1813.98v2785.43H0z" fill="#fff"/><path d="M604 140h552v84.67H604z" fill="none"/><use xlink:href="#a" transform="matrix(1,0,0,1,609,145) translate(58.06172839506172 43.72222222222222)"/><use xlink:href="#b" transform="matrix(1,0,0,1,609,145) translate(204.45679012345678 43.72222222222222)"/><use xlink:href="#c" transform="matrix(1,0,0,1,609,145) translate(280.3333333333333 43.72222222222222)"/><use xlink:href="#d" transform="matrix(1,0,0,1,609,145) translate(359.6666666666667 43.72222222222222)"/><path d="M240 460h280v260H240z" stroke="#666" fill="#0c7c7d"/><use xlink:href="#e" transform="matrix(1,0,0,1,260,460) translate(64.44938271604939 137.82222222222222)"/><path d="M520 842.7h160v160H520z" stroke="#666" fill="#dcf5f5"/><use xlink:href="#f" transform="matrix(1,0,0,1,540,842.7082555936518) translate(-6.541358024691377 57.15555555555555)"/><use xlink:href="#g" transform="matrix(1,0,0,1,540,842.7082555936518) translate(13.21604938271604 86.4888888888889)"/><use xlink:href="#h" transform="matrix(1,0,0,1,540,842.7082555936518) translate(32.160493827160494 115.82222222222222)"/><path d="M1240 460h280v260h-280z" stroke="#666" fill="#0c7c7d"/><use xlink:href="#i" transform="matrix(1,0,0,1,1260,460) translate(70.41234567901235 137.82222222222222)"/><path d="M800 842.7h160v160H800z" stroke="#666" fill="#dcf5f5"/><use xlink:href="#j" transform="matrix(1,0,0,1,820,842.7082555936518) translate(5.646913580246903 57.15555555555555)"/><use xlink:href="#g" transform="matrix(1,0,0,1,820,842.7082555936518) translate(13.21604938271604 86.4888888888889)"/><use xlink:href="#h" transform="matrix(1,0,0,1,820,842.7082555936518) translate(32.160493827160494 115.82222222222222)"/><path d="M1080 842.7h160v160h-160z" stroke="#666" fill="#dcf5f5"/><use xlink:href="#k" transform="matrix(1,0,0,1,1100,842.7082555936518) translate(8.5327160493827 57.15555555555555)"/><use xlink:href="#l" transform="matrix(1,0,0,1,1100,842.7082555936518) translate(19.327160493827154 86.4888888888889)"/><use xlink:href="#m" transform="matrix(1,0,0,1,1100,842.7082555936518) translate(14.608024691358015 115.82222222222222)"/><path d="M760 420h240v180H760z" stroke="#666" fill="#fff"/><path d="M784 420v180m192-180v180" stroke="#666" fill="none"/><use xlink:href="#n" transform="matrix(1,0,0,1,795,425) translate(15.665432098765436 74.15555555555555)"/><use xlink:href="#o" transform="matrix(1,0,0,1,795,425) translate(22.043209876543212 111.48888888888888)"/><path d="M577.1 583l-5.7 1.6-6.94 1.62-7.37 1.4-7.92 1.17-8.6.9-9.5.58-10.07.2v-1l10.05-.2 9.44-.6 8.55-.9 7.87-1.15 7.33-1.4 6.92-1.6 5.94-1.67zm166.06-71.92l-3.65.23-8.55.9-7.87 1.17-7.33 1.4-6.92 1.6-6.6 1.86-6.42 2.08-6.32 2.37-6.4 2.68-6.62 3.13-7.22 3.77-8.6 4.98-25.07 16.35h-1.85l.5-.32 25.9-16.9 8.64-4.98 7.25-3.8 6.7-3.14 6.4-2.7 6.38-2.37 6.46-2.1 6.65-1.86 6.94-1.62 7.37-1.4 7.92-1.17 8.6-.9 3.68-.22z" fill="#666"/><path d="M521.03 590.5h-.53v-1h.5zM757.88 510.06l-14.1 5.13-.32-9.27z" fill="#666"/><path d="M759.5 510l-16.2 5.9-.36-10.64zm-15.23 4.5l12-4.4-12.28-3.5z" fill="#666"/><use xlink:href="#p" transform="matrix(1,0,0,1,577.1073490689611,553.5756277435256) translate(0 20.977777777777778)"/><path d="M550.35 532.46l-2.35 1.77-2.17 1.8-2 1.8-1.88 1.84-1.74 1.86-1.63 1.9-1.52 1.92-1.44 1.97-1.33 2.02-1.26 2.08-1.17 2.15-1.1 2.23-1.04 2.3-.97 2.43-.88 2.53-.8 2.66-.72 2.8-.63 3-.37 2.17-1-.18.38-2.2.66-3.02.73-2.85.8-2.7.9-2.57.97-2.45 1.05-2.36 1.12-2.26 1.2-2.18 1.28-2.12 1.37-2.05 1.45-2 1.55-1.97 1.66-1.92 1.78-1.9 1.9-1.85 2.04-1.83 2.2-1.82 2.38-1.8.1-.07h1.75zM759 509.5v1l-116.18-1.06-17.48 1.08-5.03.53v-1l4.96-.53 17.54-1.08z" fill="#666"/><path d="M759.5 509.5v1h-.52v-1zM529.43 574.4l-5.56 13.92-3.7-14.54z" fill="#666"/><path d="M530.15 573.93l-6.4 16-4.22-16.7zm-6.18 12.77l4.74-11.86-7.87-.52z" fill="#666"/><use xlink:href="#q" transform="matrix(1,0,0,1,548.767940747862,501.71390381124155) translate(0 20.977777777777778)"/><path d="M1239 590l-12.2-.26-11.74-.74-11.06-1.16-10.6-1.56-10.35-1.98-10.3-2.42-10.57-2.95-11.2-3.64-12.6-4.7-15.93-6.72-96.9-44.9-9.14-3.4" stroke="#666" fill="none"/><path d="M1239.5 589.5v1h-.53l.02-1z" fill="#666"/><path d="M1002.53 510.56l15 .5-3.17 8.7z" stroke="#666" fill="#666"/><path d="M880.5 841.7h-1V718.4h1zm0-179.84h-1v-44.98h1zM880.5 842.2h-1v-.5h1zM884.64 616.38h-9.28l4.64-14.26z" fill="#666"/><path d="M885.32 616.88h-10.64L880 600.5zm-9.27-1h7.9L880 603.74zM682.03 742.1l-8.32 4.55-12.54 7.58-9.26 6.14-7.33 5.3-6 4.77-5.07 4.37-4.33 4.07-3.76 3.83-3.27 3.65-2.9 3.5-2.57 3.38-2.3 3.3-2.03 3.2-1.83 3.18-1.64 3.14-1.46 3.1-1.3 3.1-1.16 3.12-1.02 3.13-.88 3.15-.76 3.2-.62 3.3-.5 3.34-.36 3.44-.22 3.56-.07 3.22-1-.03.08-3.24.22-3.6.37-3.5.5-3.4.64-3.3.77-3.26.9-3.2 1.02-3.17 1.16-3.15 1.32-3.14 1.48-3.14 1.66-3.17 1.85-3.2 2.07-3.26 2.3-3.32 2.6-3.42 2.93-3.53 3.3-3.68 3.8-3.86 4.36-4.1 5.1-4.4 6.04-4.78 7.36-5.33 9.3-6.17 12.58-7.6 8.83-4.82zm158.6-125.22l-.23 1.17-.76 3.26-.9 3.2-1.02 3.18-1.17 3.15-1.33 3.14-1.48 3.14-1.65 3.18-1.86 3.2-2.07 3.26-2.3 3.32-2.6 3.42-2.93 3.53-3.3 3.7-3.8 3.85-4.36 4.1-5.1 4.4-6.04 4.77-7.36 5.34-9.3 6.17-12.58 7.6-8.73 4.52v-1.12l8.24-4.27 12.55-7.58 9.26-6.14 7.33-5.3 6.02-4.78 5.06-4.36 4.34-4.06 3.76-3.84 3.28-3.64 2.9-3.5 2.57-3.4 2.3-3.28 2.03-3.22 1.83-3.16 1.65-3.13 1.46-3.1 1.32-3.1 1.15-3.12 1.02-3.13.87-3.16.75-3.2.23-1.17z" fill="#666"/><path d="M600.5 841.7v.5h-1v-.52zM844.8 616.76l-9.23-.9 5.98-13.75z" fill="#666"/><path d="M845.43 617.32l-10.6-1.02 6.88-15.8zm-9.13-1.9l7.86.77-2.76-12.48zM1086.8 745.78l12.58 7.6 9.3 6.17 7.35 5.33 6.05 4.8 5.1 4.38 4.35 4.1 3.8 3.86 3.3 3.68 2.93 3.53 2.6 3.42 2.3 3.32 2.07 3.26 1.85 3.2 1.66 3.17 1.48 3.14 1.32 3.14 1.17 3.15 1.04 3.17.9 3.2.75 3.25.22 1.18-.98.2-.22-1.17-.76-3.2-.88-3.17-1.02-3.14-1.15-3.1-1.3-3.1-1.46-3.12-1.64-3.13-1.83-3.16-2.04-3.2-2.3-3.3-2.56-3.4-2.9-3.5-3.28-3.64-3.77-3.83-4.33-4.06-5.06-4.36-6-4.76-7.34-5.3-9.26-6.15-12.54-7.58-15.46-8v-1.14zM918.86 604.2l.22 3.57.36 3.45.5 3.35.62 3.28.75 3.2.88 3.17 1.03 3.13 1.15 3.1 1.3 3.1 1.47 3.12 1.64 3.13 1.82 3.16 2.04 3.22 2.3 3.3 2.56 3.38 2.9 3.5 3.28 3.64 3.76 3.84 4.33 4.06 5.05 4.36 6.02 4.77 7.32 5.3 2 1.34v1.2l-2.58-1.7-7.36-5.35-6.05-4.78-5.08-4.4-4.36-4.1-3.8-3.85-3.3-3.7-2.92-3.52-2.6-3.42-2.3-3.32-2.08-3.26-1.85-3.2-1.64-3.17-1.48-3.13-1.33-3.14-1.17-3.15-1.03-3.17-.9-3.2-.75-3.25-.64-3.3-.5-3.4-.36-3.5-.23-3.6-.07-3.24h1z" fill="#666"/><path d="M918.8 601l-1 .03v-.53h1zM1159.84 840.6l-5.98-13.76 9.23-.9z" fill="#666"/><path d="M1160 842.2l-6.87-15.8 10.6-1zm-5.4-14.93l5.1 11.72 2.75-12.48z" fill="#666"/><path d="M1086.2 745.12l12.8 7.74 9.38 6.23 7.42 5.37 6.1 4.82 5.1 4.4 4.4 4.12 3.8 3.88 3.33 3.7 2.93 3.54 2.6 3.43 2.33 3.34 2.07 3.28 1.86 3.22 1.66 3.18 1.48 3.16 1.32 3.16 1.18 3.16 1.04 3.2.9 3.2.76 3.28.64 3.34.5 3.4.37 3.53.22 3.64.07 3.25-1 .02-.08-3.24-.22-3.6-.37-3.46-.5-3.38-.62-3.3-.75-3.22-.9-3.18-1-3.15-1.18-3.13-1.3-3.12-1.48-3.12-1.65-3.15-1.84-3.18-2.04-3.23-2.3-3.3-2.58-3.4-2.9-3.52-3.3-3.67-3.8-3.85-4.34-4.08-5.1-4.4-6.04-4.8-7.4-5.34-9.35-6.2-12.76-7.7-14.86-8.12v-1.14zM922.3 617.96l.76 3.23.9 3.17 1 3.15 1.17 3.12 1.3 3.12 1.48 3.12 1.65 3.15 1.83 3.18 2.07 3.24 2.3 3.3 2.58 3.4 2.9 3.52 3.3 3.67 3.78 3.85 4.36 4.08 5.08 4.4 6.05 4.78 7.38 5.36.58.38h-.58v.8l-.56-.36-7.4-5.38-6.1-4.82-5.12-4.4-4.4-4.13-3.8-3.9-3.32-3.68-2.94-3.55-2.6-3.43-2.32-3.34-2.08-3.27-1.86-3.22-1.66-3.17-1.5-3.16-1.32-3.16-1.18-3.15-1.03-3.2-.9-3.2-.76-3.28-.24-1.3.98-.18z" fill="#666"/><path d="M1160.5 842.2h-1v-.5l1-.02zM926.16 615.87l-9.23.88 3.25-14.64z" fill="#666"/><path d="M926.9 616.3l-10.6 1.02 3.73-16.82zm-9.33-.1l7.85-.76-5.08-11.72z" fill="#666"/><use xlink:href="#r" transform="matrix(1,0,0,1,972.2002872899316,683.1786200686303) translate(0 20.977777777777778)"/><use xlink:href="#s" transform="matrix(1,0,0,1,972.2002872899316,683.1786200686303) translate(92.46913580246913 20.977777777777778)"/><use xlink:href="#t" transform="matrix(1,0,0,1,972.2002872899316,683.1786200686303) translate(11.2 47.644444444444446)"/><path d="M682.03 743.46l-10.56 5.46-13.05 7.63-9.06 5.83-6.97 4.94-5.66 4.38-4.73 4-4.03 3.73-3.5 3.53-3.08 3.37-2.73 3.27-2.42 3.17-2.18 3.12-1.95 3.07-1.77 3.07-1.6 3.06-1.42 3.08-1.3 3.1-1.14 3.17-1.03 3.23-.9 3.3-.76 3.43-.27 1.6-1-.18.3-1.6.77-3.47.9-3.35 1.04-3.27 1.17-3.2 1.3-3.16 1.47-3.1 1.6-3.1 1.8-3.1 1.97-3.13 2.2-3.16 2.45-3.2 2.74-3.3 3.1-3.4 3.54-3.57 4.07-3.75 4.76-4.03 5.7-4.4 7-4.97 9.1-5.86 13.1-7.66 11.03-5.7zM841.1 601l-.07 2.93-.2 3.34-.35 3.3-.48 3.23-.6 3.2-.76 3.2-.9 3.16-1.02 3.18-1.2 3.2-1.34 3.2-1.54 3.28-1.73 3.3-1.95 3.4-2.22 3.5-2.5 3.6-2.83 3.72-3.22 3.9-3.7 4.08-4.23 4.33-4.94 4.63-5.8 5-6.92 5.5-8.46 6.13-10.7 7.1-13.65 8.25v-1.17l13.1-7.92 10.68-7.07 8.43-6.13 6.9-5.46 5.77-4.96 4.9-4.6 4.2-4.3 3.67-4.07 3.2-3.86 2.8-3.68 2.48-3.56 2.2-3.45 1.93-3.35 1.72-3.28 1.5-3.22 1.35-3.2 1.18-3.14 1-3.13.9-3.13.73-3.14.6-3.17.48-3.2.34-3.24.2-3.32.07-2.9z" fill="#666"/><path d="M841.1 601.02l-1-.02v-.5h1zM606 826.8l-5.86 13.8-3.37-14.62z" fill="#666"/><path d="M606.74 826.35L600 842.2l-3.87-16.78zm-6.46 12.63l5-11.75-7.86-.7z" fill="#666"/><use xlink:href="#u" transform="matrix(1,0,0,1,682.0303559557151,694.5820439209035) translate(0 20.977777777777778)"/><use xlink:href="#s" transform="matrix(1,0,0,1,682.0303559557151,694.5820439209035) translate(66.60493827160492 20.977777777777778)"/><use xlink:href="#v" transform="matrix(1,0,0,1,682.0303559557151,694.5820439209035) translate(11.2 47.644444444444446)"/><path d="M880.5 825.82h-1V718.4h1zm0-163.96h-1V601h1z" fill="#666"/><path d="M880.5 601.02h-1v-.52h1zM880 840.6l-4.64-14.28h9.28z" fill="#666"/><path d="M880 842.2l-5.32-16.38h10.64zm-3.95-15.38l3.95 12.15 3.95-12.15z" fill="#666"/><use xlink:href="#u" transform="matrix(1,0,0,1,841.1283950617285,661.8649923423869) translate(0 20.977777777777778)"/><use xlink:href="#s" transform="matrix(1,0,0,1,841.1283950617285,661.8649923423869) translate(66.60493827160492 20.977777777777778)"/><use xlink:href="#v" transform="matrix(1,0,0,1,841.1283950617285,661.8649923423869) translate(11.2 47.644444444444446)"/><path d="M120 1083.25h240v60H120z" fill="none"/><use xlink:href="#w" transform="matrix(1,0,0,1,125,1088.2523568143024) translate(75.65123456790123 29.88888888888889)"/><use xlink:href="#x" transform="matrix(1,0,0,1,125,1088.2523568143024) translate(140.76851851851853 29.88888888888889)"/><path d="M240 1460h280v260H240z" stroke="#666" fill="#0c7c7d"/><use xlink:href="#e" transform="matrix(1,0,0,1,260,1460) translate(64.44938271604939 137.82222222222222)"/><path d="M1000 1590c0 49.7-40.3 90-90 90s-90-40.3-90-90 40.3-90 90-90 90 40.3 90 90z" stroke="#666" fill="#fff"/><use xlink:href="#y" transform="matrix(1,0,0,1,840,1500) translate(47.424691358024695 80.22222222222223)"/><use xlink:href="#z" transform="matrix(1,0,0,1,840,1500) translate(10.146913580246917 112.75555555555556)"/><use xlink:href="#A" transform="matrix(1,0,0,1,840,1500) translate(65.75802469135803 112.75555555555556)"/><path d="M632.37 1590.5H521v-1h111.37zm170.75 0h-95.48v-1h95.48z" fill="#666"/><path d="M521.02 1590.5h-.52v-1h.52zM817.88 1590l-14.26 4.64v-9.28z" fill="#666"/><path d="M819.5 1590l-16.38 5.32v-10.64zm-15.38 3.95l12.14-3.95-12.14-3.95z" fill="#666"/><use xlink:href="#B" transform="matrix(1,0,0,1,632.3651982047604,1561.7333333333333) translate(0 20.977777777777778)"/><use xlink:href="#C" transform="matrix(1,0,0,1,632.3651982047604,1561.7333333333333) translate(11.2 47.644444444444446)"/><path d="M1200 1540h200v100h-200z" fill="#fff"/><path d="M1200 1540h200m0 100h-200" stroke="#666" fill="#fff"/><use xlink:href="#D" transform="matrix(1,0,0,1,1220,1540) translate(39.193209876543214 41.82222222222222)"/><use xlink:href="#E" transform="matrix(1,0,0,1,1220,1540) translate(27.74999999999999 71.15555555555557)"/><path d="M1001 1590h182.62" stroke="#666" fill="none"/><path d="M1001.02 1590.5h-.53v-1h.52zM1198.38 1590l-14.26 4.64v-9.28z" fill="#666"/><path d="M1200 1590l-16.38 5.32v-10.64zm-15.38 3.95l12.14-3.95-12.14-3.95z" fill="#666"/><path d="M980 2030c0 49.7-42.53 90-95 90s-95-40.3-95-90 42.53-90 95-90 95 40.3 95 90z" stroke="#666" fill="#fff"/><use xlink:href="#F" transform="matrix(1,0,0,1,810,1940) translate(52.424691358024695 80.22222222222223)"/><use xlink:href="#G" transform="matrix(1,0,0,1,810,1940) translate(2.279629629629625 112.75555555555556)"/><use xlink:href="#H" transform="matrix(1,0,0,1,810,1940) translate(97.20555555555556 112.75555555555556)"/><path d="M690 2030c0 49.7-40.3 90-90 90s-90-40.3-90-90 40.3-90 90-90 90 40.3 90 90z" stroke="#666" fill="#fff"/><use xlink:href="#I" transform="matrix(1,0,0,1,530,1940) translate(47.424691358024695 80.22222222222223)"/><use xlink:href="#J" transform="matrix(1,0,0,1,530,1940) translate(1.9648148148148152 112.75555555555556)"/><use xlink:href="#K" transform="matrix(1,0,0,1,530,1940) translate(65.79197530864198 112.75555555555556)"/><path d="M380 2030c0 49.7-44.77 90-100 90s-100-40.3-100-90 44.77-90 100-90 100 40.3 100 90z" stroke="#666" fill="#fff"/><use xlink:href="#L" transform="matrix(1,0,0,1,200,1940) translate(57.424691358024695 80.22222222222223)"/><use xlink:href="#J" transform="matrix(1,0,0,1,200,1940) translate(5.88765432098765 112.75555555555556)"/><use xlink:href="#M" transform="matrix(1,0,0,1,200,1940) translate(69.71481481481482 112.75555555555556)"/><path d="M337.44 1721l-.24 11.67-.66 10.6-1 9.4-1.24 8.5-1.5 7.86-1.73 7.4-2 7.1-2.28 7.07-2.72 7.26-3.37 8-4.88 10.36-19.1 37.92-3.36 8-2.7 7.26-2.3 7.06-1.98 7.12-1.73 7.4-1.5 7.85-1.25 8.5-1 9.4-.4 6.4" stroke="#666" fill="none"/><path d="M337.94 1721.03l-1-.02v-.5h1zM285.13 1923.77l-5.08 14.1-4.2-14.4z" fill="#666"/><path d="M285.83 1923.3l-5.83 16.2-4.8-16.54zm-5.73 12.97l4.33-12.02-7.9-.25z" fill="#666"/><path d="M440 2360h320v100H440z" fill="#fff"/><path d="M440 2360h320m0 100H440" stroke="#666" fill="#fff"/><use xlink:href="#N" transform="matrix(1,0,0,1,460,2360) translate(3.112962962962939 56.488888888888894)"/><use xlink:href="#O" transform="matrix(1,0,0,1,460,2360) translate(53.22407407407405 56.488888888888894)"/><use xlink:href="#P" transform="matrix(1,0,0,1,460,2360) translate(66.80432098765431 56.488888888888894)"/><use xlink:href="#O" transform="matrix(1,0,0,1,460,2360) translate(160.3722222222222 56.488888888888894)"/><use xlink:href="#Q" transform="matrix(1,0,0,1,460,2360) translate(173.95246913580246 56.488888888888894)"/><path d="M380 1721l.07 2.87.2 3.25.33 3.15.46 3.06.57 2.98.68 2.94.82 2.88.93 2.86 1.05 2.83 1.2 2.84 1.32 2.83 1.5 2.85 1.66 2.9 1.86 2.92 2.1 3 2.33 3.08 2.63 3.2 3 3.3 3.4 3.5 3.95 3.7 4.6 3.95 5.46 4.33 6.67 4.83 8.4 5.57 11.4 6.88 18.62 10.2 67.25 34.85 11.4 6.88 8.4 5.58 6.64 4.83 5.46 4.33 4.6 3.97 3.94 3.7 3.4 3.48 3 3.32 2.64 3.2 2.34 3.07 2.08 3 1.87 2.93 1.66 2.88 1.5 2.86 1.32 2.83 1.2 2.83 1.04 2.83.93 2.85.8 2.9.58 2.47" stroke="#666" fill="none"/><path d="M380.5 1721l-1 .03v-.53h1zM598.84 1937.9l-6.12-13.7 9.22-.98z" fill="#666"/><path d="M599 1939.5L592 1923.8l10.6-1.13zm-5.55-14.87l5.2 11.66 2.65-12.5z" fill="#666"/><path d="M885 1939l-.04-1.18-.1-1.65-.17-1.63-.25-1.62-.3-1.6-.38-1.6-.45-1.6-.52-1.62-.6-1.62-.7-1.65-.8-1.67-.88-1.7-1-1.76-1.16-1.8-1.3-1.86-1.46-1.93-1.66-2-1.9-2.12-2.18-2.22-2.5-2.35-2.92-2.5-3.4-2.7-4-2.9-4.8-3.18-5.78-3.5-7.1-3.9-8.93-4.4-11.5-5.13-15.45-6.1-22.12-7.67-36.4-10.9-199.4-52.76-22.12-7.67-15.44-6.1-11.5-5.1-8.93-4.42-7.1-3.9-5.8-3.5-4.78-3.18-4.02-2.9-3.4-2.7-2.9-2.5-2.52-2.36-2.18-2.22-1.9-2.1-1.66-2.03-1.47-1.94-1.3-1.86-1.14-1.8-1-1.75-.9-1.7-.78-1.68-.15-.35" stroke="#666" fill="none"/><path d="M885.5 1939.5h-1v-.5l1-.03zM448.33 1735.1l-9.07 1.9 1.6-14.92z" fill="#666"/><path d="M449.1 1735.43l-10.4 2.2 1.82-17.13zm-9.27.94l7.72-1.63-6.36-11.07z" fill="#666"/><path d="M1300 1641l-1.13 53.53-3.34 53.12-5.4 51.48-7.27 49.26-8.9 46.6-10.24 43.76-11.37 40.77-12.28 37.8-12.97 34.92-13.53 32.2-13.93 29.62-14.24 27.26-14.47 25.06-14.63 23.05-14.75 21.23-14.84 19.56-14.9 18.04-14.98 16.64-15.05 15.37-15.12 14.18-15.2 13.13-15.3 12.14-15.42 11.2-15.57 10.35-15.74 9.52-15.94 8.77-16.2 8.02-16.46 7.34-16.8 6.65-17.16 5.98-17.58 5.3-18.07 4.65-18.6 3.95-19.23 3.25-19.92 2.52-20.7 1.73-16.37.7" stroke="#666" fill="none"/><path d="M1300.5 1641.03l-1-.02v-.5h1zM775.98 2414.3l-14.36-4.33 14.17-4.93z" fill="#666"/><path d="M776.5 2415l-16.5-5 16.27-5.66zm-13.26-5.07l12.22 3.7-.16-7.9z" fill="#666"/><path d="M600 2121v222.12" stroke="#666" fill="none"/><path d="M600 2120.5h.5v.52h-1v-.53zM600 2357.88l-4.64-14.26h9.28z" fill="#666"/><path d="M600 2359.5l-5.32-16.38h10.64zm-3.95-15.38l3.95 12.14 3.95-12.14z" fill="#666"/><path d="M280 2121l.07 2.87.2 3.26.34 3.17.46 3.08.58 3.03.7 2.98.82 2.93.94 2.92 1.08 2.9 1.22 2.9 1.37 2.9 1.53 2.94 1.72 2.97 1.92 3.02 2.15 3.1 2.4 3.18 2.73 3.3 3.08 3.4 3.53 3.6 4.05 3.8 4.7 4.05 5.54 4.4 6.65 4.8 8.2 5.45 10.52 6.36 14.63 8 26.2 12.93 72.9 34.46 14.63 8 10.53 6.37 8.18 5.44 6.65 4.83 5.54 4.4 4.7 4.04 4.05 3.8 3.52 3.6 3.08 3.4 2.73 3.3 2.4 3.18 2.16 3.1 1.93 3.02 1.72 2.97 1.53 2.94 1.37 2.9 1.22 2.9 1.08 2.9.94 2.9.8 2.94.63 2.62" stroke="#666" fill="none"/><path d="M280 2120.5h.5v.5l-1 .03v-.54zM541.18 2357.9l-6.1-13.7 9.2-.98z" fill="#666"/><path d="M541.35 2359.5l-7.02-15.73 10.6-1.12zm-5.55-14.88l5.2 11.66 2.65-12.5z" fill="#666"/><path d="M669.08 2359l.07-3.57.25-3.9.4-3.76.53-3.64.68-3.54.82-3.48.95-3.4 1.1-3.35 1.23-3.33 1.4-3.3 1.55-3.32 1.74-3.32 1.93-3.36 2.16-3.4 2.4-3.5 2.73-3.58 3.07-3.7 3.48-3.87 4-4.1 4.64-4.33 5.46-4.72 6.6-5.23 8.28-6 11.1-7.36 18-10.84 64.74-37.08 11.1-7.36 8.28-6 6.6-5.23 5.47-4.7 4.64-4.36 3.98-4.1 3.5-3.86 3.06-3.7 2.72-3.58 2.42-3.5 2.16-3.4 1.94-3.36 1.74-3.32 1.56-3.3 1.4-3.32 1.23-3.33 1.1-3.35.95-3.4.8-3.47.5-2.6" stroke="#666" fill="none"/><path d="M669.58 2359v.5h-1v-.53zM888.22 2136.73l-9.23-.82 5.86-13.8z" fill="#666"/><path d="M888.86 2137.3l-10.6-.95 6.74-15.85zm-9.15-1.82l7.88.7-2.86-12.46z" fill="#666"/><path d="M1300 2480h240v60h-240z" fill="none"/><g><use xlink:href="#w" transform="matrix(1,0,0,1,1305,2485) translate(75.65123456790123 29.88888888888889)"/><use xlink:href="#R" transform="matrix(1,0,0,1,1305,2485) translate(140.76851851851853 29.88888888888889)"/></g><defs><path d="M275 0h-61l-44-196L126 0H64L0-248h53L97-49l45-199h58l43 199 44-199h52" id="S"/><path d="M25-224v-37h50v37H25zM25 0v-190h50V0H25" id="T"/><path d="M147 0L96-86 75-71V0H25v-261h50v150l67-79h53l-66 74L201 0h-54" id="U"/><path d="M25 0v-261h50V0H25" id="V"/><path d="M220-157c-53 9-28 100-34 157h-49v-107c1-27-5-49-29-50C55-147 81-57 75 0H25l-1-190h47c2 12-1 28 3 38 10-53 101-56 108 0 13-22 24-43 59-42 82 1 51 116 57 194h-49v-107c-1-25-5-48-29-50" id="W"/><path d="M110-194c64 0 96 36 96 99 0 64-35 99-97 99-61 0-95-36-95-99 0-62 34-99 96-99zm-1 164c35 0 45-28 45-65 0-40-10-65-43-65-34 0-45 26-45 65 0 36 10 65 43 65" id="X"/><path d="M35-132v-50h50v50H35zM35 0v-49h50V0H35" id="Y"/><g id="a"><use transform="matrix(0.08641975308641976,0,0,0.08641975308641976,0,0)" xlink:href="#S"/><use transform="matrix(0.08641975308641976,0,0,0.08641975308641976,29.03703703703704,0)" xlink:href="#T"/><use transform="matrix(0.08641975308641976,0,0,0.08641975308641976,37.67901234567901,0)" xlink:href="#U"/><use transform="matrix(0.08641975308641976,0,0,0.08641975308641976,54.96296296296296,0)" xlink:href="#T"/><use transform="matrix(0.08641975308641976,0,0,0.08641975308641976,63.60493827160494,0)" xlink:href="#V"/><use transform="matrix(0.08641975308641976,0,0,0.08641975308641976,72.24691358024691,0)" xlink:href="#T"/><use transform="matrix(0.08641975308641976,0,0,0.08641975308641976,80.88888888888889,0)" xlink:href="#W"/><use transform="matrix(0.08641975308641976,0,0,0.08641975308641976,108.54320987654322,0)" xlink:href="#X"/><use transform="matrix(0.08641975308641976,0,0,0.08641975308641976,127.46913580246915,0)" xlink:href="#Y"/><path d="M-1.56 1.67h149.5v3.27H-1.55z"/></g><path d="M24-248c120-7 223 5 221 122C244-46 201 0 124 0H24v-248zM76-40c74 7 117-18 117-86 0-67-45-88-117-82v168" id="Z"/><path d="M133-34C117-15 103 5 69 4 32 3 11-16 11-54c-1-60 55-63 116-61 1-26-3-47-28-47-18 1-26 9-28 27l-52-2c7-38 36-58 82-57s74 22 75 68l1 82c-1 14 12 18 25 15v27c-30 8-71 5-69-32zm-48 3c29 0 43-24 42-57-32 0-66-3-65 30 0 17 8 27 23 27" id="aa"/><path d="M115-3C79 11 28 4 28-45v-112H4v-33h27l15-45h31v45h36v33H77v99c-1 23 16 31 38 25v30" id="ab"/><g id="b"><use transform="matrix(0.08641975308641976,0,0,0.08641975308641976,0,0)" xlink:href="#Z"/><use transform="matrix(0.08641975308641976,0,0,0.08641975308641976,22.38271604938272,0)" xlink:href="#aa"/><use transform="matrix(0.08641975308641976,0,0,0.08641975308641976,39.66666666666667,0)" xlink:href="#ab"/><use transform="matrix(0.08641975308641976,0,0,0.08641975308641976,49.95061728395062,0)" xlink:href="#aa"/><path d="M-1.56 1.67h79v3.27h-79z"/></g><path d="M76-208v77h127v40H76V0H24v-248h183v40H76" id="ac"/><path d="M231 0h-52l-39-155L100 0H48L-1-190h46L77-45c9-52 24-97 36-145h53l37 145 32-145h46" id="ad"/><g id="c"><use transform="matrix(0.08641975308641976,0,0,0.08641975308641976,0,0)" xlink:href="#ac"/><use transform="matrix(0.08641975308641976,0,0,0.08641975308641976,18.925925925925927,0)" xlink:href="#V"/><use transform="matrix(0.08641975308641976,0,0,0.08641975308641976,27.567901234567906,0)" xlink:href="#X"/><use transform="matrix(0.08641975308641976,0,0,0.08641975308641976,46.49382716049383,0)" xlink:href="#ad"/><path d="M-1.56 1.67h82.44v3.27H-1.56z"/></g><path d="M195-6C206 82 75 100 31 46c-4-6-6-13-8-21l49-6c3 16 16 24 34 25 40 0 42-37 40-79-11 22-30 35-61 35-53 0-70-43-70-97 0-56 18-96 73-97 30 0 46 14 59 34l2-30h47zm-90-29c32 0 41-27 41-63 0-35-9-62-40-62-32 0-39 29-40 63 0 36 9 62 39 62" id="ae"/><path d="M135-150c-39-12-60 13-60 57V0H25l-1-190h47c2 13-1 29 3 40 6-28 27-53 61-41v41" id="af"/><g id="d"><use transform="matrix(0.08641975308641976,0,0,0.08641975308641976,0,0)" xlink:href="#Z"/><use transform="matrix(0.08641975308641976,0,0,0.08641975308641976,22.38271604938272,0)" xlink:href="#T"/><use transform="matrix(0.08641975308641976,0,0,0.08641975308641976,31.024691358024693,0)" xlink:href="#aa"/><use transform="matrix(0.08641975308641976,0,0,0.08641975308641976,48.308641975308646,0)" xlink:href="#ae"/><use transform="matrix(0.08641975308641976,0,0,0.08641975308641976,67.23456790123457,0)" xlink:href="#af"/><use transform="matrix(0.08641975308641976,0,0,0.08641975308641976,79.33333333333334,0)" xlink:href="#aa"/><use transform="matrix(0.08641975308641976,0,0,0.08641975308641976,96.61728395061729,0)" xlink:href="#W"/><path d="M-1.56 1.67h127.38v3.27H-1.56z"/></g><path fill="#fff" d="M87-220l-18 92h140l-5 28H64L45 0H11l48-248h178l-5 28H87" id="ag"/><path fill="#fff" d="M165-48c-4 18 1 34 23 27l-3 20c-29 8-62 0-52-35h-2C116-14 99 4 63 4 30 4 8-16 8-49c0-68 71-67 138-67 10-26 0-56-31-54-26 1-42 9-47 31l-32-5c8-67 160-71 144 15-5 28-9 54-15 81zM42-50c3 52 80 24 89-6 7-12 7-24 11-38-47 1-103-4-100 44" id="ah"/><path fill="#fff" d="M66-151c12-25 30-51 66-40l-6 26C45-176 58-65 38 0H6l36-190h30" id="ai"/><path fill="#fff" d="M248-111c6-24 9-61-24-58-72 9-57 108-77 169h-31l26-142c3-37-50-30-64-10C52-115 50-51 37 0H6l36-190h30c-1 10-6 24-4 32 13-43 101-52 105 5 13-22 29-41 61-41 90 0 28 129 23 194h-31" id="aj"/><path fill="#fff" d="M111-194c62-3 86 47 72 106H45c-7 38 6 69 45 68 27-1 43-14 53-32l24 11C152-15 129 4 87 4 38 3 12-23 12-71c0-70 32-119 99-123zm44 81c14-66-71-72-95-28-4 8-8 17-11 28h106" id="ak"/><g id="e"><use transform="matrix(0.08641975308641976,0,0,0.08641975308641976,0,0)" xlink:href="#ag"/><use transform="matrix(0.08641975308641976,0,0,0.08641975308641976,18.925925925925927,0)" xlink:href="#ah"/><use transform="matrix(0.08641975308641976,0,0,0.08641975308641976,36.20987654320988,0)" xlink:href="#ai"/><use transform="matrix(0.08641975308641976,0,0,0.08641975308641976,46.49382716049383,0)" xlink:href="#aj"/><use transform="matrix(0.08641975308641976,0,0,0.08641975308641976,72.33333333333334,0)" xlink:href="#ak"/><use transform="matrix(0.08641975308641976,0,0,0.08641975308641976,89.61728395061729,0)" xlink:href="#ai"/></g><path fill="#666" d="M187 0l-14-72H61L19 0h-37l149-248h38L221 0h-34zm-19-99l-22-123L76-99h92" id="al"/><path fill="#666" d="M103-194c29 0 47 14 56 36 2-11 5-23 8-32h30L160-5C157 61 82 97 21 62 9 55 4 45 1 30l28-7c7 42 83 31 92-3 4-16 9-38 13-55-13 20-29 36-62 36-40 0-60-25-60-64 0-71 23-131 91-131zm4 24c-53 0-58 54-61 104-2 27 10 44 36 44 49 0 65-50 67-102 1-29-15-46-42-46" id="am"/><path fill="#666" d="M66-151c12-25 30-51 66-40l-6 26C45-176 58-65 38 0H6l36-190h30" id="an"/><path fill="#666" d="M50-231l6-30h32l-6 30H50zM6 0l37-190h31L37 0H6" id="ao"/><path fill="#666" d="M44-68c0 29 11 47 38 47 30 0 42-19 51-41l28 9C148-21 126 4 82 4 31 4 10-29 12-85c3-77 74-140 146-93 12 8 15 23 18 40l-31 5c-1-22-13-36-36-36-52 0-65 49-65 101" id="ap"/><path fill="#666" d="M67 3c-93-2-31-127-26-193h32L48-50c-3 39 53 32 70 12 30-34 30-101 43-152h32L157 0h-30c1-10 6-24 4-33-14 20-29 37-64 36" id="aq"/><path fill="#666" d="M6 0l50-261h32L37 0H6" id="ar"/><path fill="#666" d="M51-54c-9 22 5 41 31 30L79-1C43 14 10-4 19-52l22-115H19l5-23h22l19-43h21l-9 43h35l-4 23H73" id="as"/><path fill="#666" d="M165-48c-4 18 1 34 23 27l-3 20c-29 8-62 0-52-35h-2C116-14 99 4 63 4 30 4 8-16 8-49c0-68 71-67 138-67 10-26 0-56-31-54-26 1-42 9-47 31l-32-5c8-67 160-71 144 15-5 28-9 54-15 81zM42-50c3 52 80 24 89-6 7-12 7-24 11-38-47 1-103-4-100 44" id="at"/><g id="f"><use transform="matrix(0.06790123456790124,0,0,0.06790123456790124,0,0)" xlink:href="#al"/><use transform="matrix(0.06790123456790124,0,0,0.06790123456790124,16.296296296296298,0)" xlink:href="#am"/><use transform="matrix(0.06790123456790124,0,0,0.06790123456790124,29.876543209876544,0)" xlink:href="#an"/><use transform="matrix(0.06790123456790124,0,0,0.06790123456790124,37.95679012345679,0)" xlink:href="#ao"/><use transform="matrix(0.06790123456790124,0,0,0.06790123456790124,43.32098765432099,0)" xlink:href="#ap"/><use transform="matrix(0.06790123456790124,0,0,0.06790123456790124,55.54320987654321,0)" xlink:href="#aq"/><use transform="matrix(0.06790123456790124,0,0,0.06790123456790124,69.12345679012346,0)" xlink:href="#ar"/><use transform="matrix(0.06790123456790124,0,0,0.06790123456790124,74.48765432098766,0)" xlink:href="#as"/><use transform="matrix(0.06790123456790124,0,0,0.06790123456790124,81.27777777777779,0)" xlink:href="#aq"/><use transform="matrix(0.06790123456790124,0,0,0.06790123456790124,94.85802469135804,0)" xlink:href="#an"/><use transform="matrix(0.06790123456790124,0,0,0.06790123456790124,102.9382716049383,0)" xlink:href="#at"/><use transform="matrix(0.06790123456790124,0,0,0.06790123456790124,116.51851851851855,0)" xlink:href="#ar"/></g><path fill="#666" d="M133-28C103 26-5 8 13-77c13-62 24-115 90-117 29-1 46 15 56 35l19-102h32L160 0h-30zM45-64c-2 27 10 43 35 43 54-1 69-50 69-103 0-29-15-46-42-46-53-1-58 58-62 106" id="au"/><path fill="#666" d="M89 0H52L20-190h33L74-25l89-165h34" id="av"/><path fill="#666" d="M55-144c13 50 104 24 104 88C159 21 15 23 1-39l26-10c6 40 102 42 102-4-13-50-104-23-104-87 0-71 143-71 148-8l-29 4c-5-35-85-37-89 0" id="aw"/><path fill="#666" d="M30-147c31-64 166-65 159 27C183-49 158 1 86 4 9 8 1-88 30-147zM88-20c53 0 68-48 68-100 0-31-11-51-44-50-52 1-68 46-68 97 0 32 13 53 44 53" id="ax"/><path fill="#666" d="M198-190L69 30C53 58 25 83-20 72c4-11-1-27 19-22 33-1 43-29 59-52L20-190h32L79-34l84-156h35" id="ay"/><g id="g"><use transform="matrix(0.06790123456790124,0,0,0.06790123456790124,0,0)" xlink:href="#al"/><use transform="matrix(0.06790123456790124,0,0,0.06790123456790124,16.296296296296298,0)" xlink:href="#au"/><use transform="matrix(0.06790123456790124,0,0,0.06790123456790124,29.876543209876544,0)" xlink:href="#av"/><use transform="matrix(0.06790123456790124,0,0,0.06790123456790124,42.098765432098766,0)" xlink:href="#ao"/><use transform="matrix(0.06790123456790124,0,0,0.06790123456790124,47.46296296296296,0)" xlink:href="#aw"/><use transform="matrix(0.06790123456790124,0,0,0.06790123456790124,59.68518518518518,0)" xlink:href="#ax"/><use transform="matrix(0.06790123456790124,0,0,0.06790123456790124,73.26543209876543,0)" xlink:href="#an"/><use transform="matrix(0.06790123456790124,0,0,0.06790123456790124,81.34567901234568,0)" xlink:href="#ay"/></g><path fill="#666" d="M219-77C219 17 104-2 11 0l48-248c73 2 169-15 169 57 0 38-24 54-60 60 29 5 51 21 51 54zm-26-111c0-44-62-31-105-33l-16 79c55 0 121 9 121-46zm-7 110c-1-49-69-36-119-38L50-27c61-1 137 12 136-51" id="az"/><g id="h"><use transform="matrix(0.06790123456790124,0,0,0.06790123456790124,0,0)" xlink:href="#az"/><use transform="matrix(0.06790123456790124,0,0,0.06790123456790124,16.296296296296298,0)" xlink:href="#ax"/><use transform="matrix(0.06790123456790124,0,0,0.06790123456790124,29.876543209876544,0)" xlink:href="#au"/><use transform="matrix(0.06790123456790124,0,0,0.06790123456790124,43.45679012345679,0)" xlink:href="#ay"/></g><path fill="#fff" d="M187 0l-14-72H61L19 0h-37l149-248h38L221 0h-34zm-19-99l-22-123L76-99h92" id="aA"/><path fill="#fff" d="M133-28C103 26-5 8 13-77c13-62 24-115 90-117 29-1 46 15 56 35l19-102h32L160 0h-30zM45-64c-2 27 10 43 35 43 54-1 69-50 69-103 0-29-15-46-42-46-53-1-58 58-62 106" id="aB"/><path fill="#fff" d="M50-231l6-30h32l-6 30H50zM6 0l37-190h31L37 0H6" id="aC"/><path fill="#fff" d="M67-158c22-48 132-52 116 29L158 0h-32l25-140c3-38-53-32-70-12C52-117 51-52 38 0H6l36-190h30" id="aD"/><g id="i"><use transform="matrix(0.08641975308641976,0,0,0.08641975308641976,0,0)" xlink:href="#aA"/><use transform="matrix(0.08641975308641976,0,0,0.08641975308641976,20.740740740740744,0)" xlink:href="#aB"/><use transform="matrix(0.08641975308641976,0,0,0.08641975308641976,38.0246913580247,0)" xlink:href="#aj"/><use transform="matrix(0.08641975308641976,0,0,0.08641975308641976,63.8641975308642,0)" xlink:href="#aC"/><use transform="matrix(0.08641975308641976,0,0,0.08641975308641976,70.69135802469137,0)" xlink:href="#aD"/></g><path fill="#666" d="M87-220l-18 92h140l-5 28H64L45 0H11l48-248h178l-5 28H87" id="aE"/><path fill="#666" d="M67-158c22-48 132-52 116 29L158 0h-32l25-140c3-38-53-32-70-12C52-117 51-52 38 0H6l36-190h30" id="aF"/><g id="j"><use transform="matrix(0.06790123456790124,0,0,0.06790123456790124,0,0)" xlink:href="#aE"/><use transform="matrix(0.06790123456790124,0,0,0.06790123456790124,14.870370370370372,0)" xlink:href="#ao"/><use transform="matrix(0.06790123456790124,0,0,0.06790123456790124,20.23456790123457,0)" xlink:href="#aF"/><use transform="matrix(0.06790123456790124,0,0,0.06790123456790124,33.81481481481482,0)" xlink:href="#at"/><use transform="matrix(0.06790123456790124,0,0,0.06790123456790124,47.39506172839506,0)" xlink:href="#aF"/><use transform="matrix(0.06790123456790124,0,0,0.06790123456790124,60.97530864197531,0)" xlink:href="#ap"/><use transform="matrix(0.06790123456790124,0,0,0.06790123456790124,73.19753086419753,0)" xlink:href="#ao"/><use transform="matrix(0.06790123456790124,0,0,0.06790123456790124,78.56172839506173,0)" xlink:href="#at"/><use transform="matrix(0.06790123456790124,0,0,0.06790123456790124,92.14197530864199,0)" xlink:href="#ar"/></g><path fill="#666" d="M247 0h-39l-15-214-24 57L95 0H56L31-248h35L82-30l101-218h33l16 218 101-218h35" id="aG"/><path fill="#666" d="M111-194c62-3 86 47 72 106H45c-7 38 6 69 45 68 27-1 43-14 53-32l24 11C152-15 129 4 87 4 38 3 12-23 12-71c0-70 32-119 99-123zm44 81c14-66-71-72-95-28-4 8-8 17-11 28h106" id="aH"/><path fill="#666" d="M67-158c15-20 31-36 64-36 94 0 33 127 27 194h-32l25-140c3-38-53-32-70-12C52-117 51-51 37 0H6l51-261h31" id="aI"/><g id="k"><use transform="matrix(0.06790123456790124,0,0,0.06790123456790124,0,0)" xlink:href="#aG"/><use transform="matrix(0.06790123456790124,0,0,0.06790123456790124,22.543209876543212,0)" xlink:href="#aH"/><use transform="matrix(0.06790123456790124,0,0,0.06790123456790124,36.12345679012346,0)" xlink:href="#at"/><use transform="matrix(0.06790123456790124,0,0,0.06790123456790124,49.70370370370371,0)" xlink:href="#as"/><use transform="matrix(0.06790123456790124,0,0,0.06790123456790124,56.49382716049384,0)" xlink:href="#aI"/><use transform="matrix(0.06790123456790124,0,0,0.06790123456790124,70.07407407407409,0)" xlink:href="#aH"/><use transform="matrix(0.06790123456790124,0,0,0.06790123456790124,83.65432098765434,0)" xlink:href="#an"/></g><path fill="#666" d="M194-120c59 52 2 134-86 124-53-6-90-18-98-63l31-7c8 30 29 43 70 43 46 0 84-17 71-62-32-43-135-20-137-98-3-89 178-90 191-16l-30 9c-8-48-127-53-127 5 0 53 81 35 115 65" id="aJ"/><g id="l"><use transform="matrix(0.06790123456790124,0,0,0.06790123456790124,0,0)" xlink:href="#aJ"/><use transform="matrix(0.06790123456790124,0,0,0.06790123456790124,16.296296296296298,0)" xlink:href="#aH"/><use transform="matrix(0.06790123456790124,0,0,0.06790123456790124,29.876543209876544,0)" xlink:href="#an"/><use transform="matrix(0.06790123456790124,0,0,0.06790123456790124,37.95679012345679,0)" xlink:href="#av"/><use transform="matrix(0.06790123456790124,0,0,0.06790123456790124,50.17901234567901,0)" xlink:href="#ao"/><use transform="matrix(0.06790123456790124,0,0,0.06790123456790124,55.54320987654321,0)" xlink:href="#ap"/><use transform="matrix(0.06790123456790124,0,0,0.06790123456790124,67.76543209876543,0)" xlink:href="#aH"/></g><path fill="#666" d="M238-179c0 84-86 86-175 82L45 0H11l48-248c82 0 179-12 179 69zm-34 1c0-53-64-42-116-43l-19 98c63 0 135 9 135-55" id="aK"/><g id="m"><use transform="matrix(0.06790123456790124,0,0,0.06790123456790124,0,0)" xlink:href="#aK"/><use transform="matrix(0.06790123456790124,0,0,0.06790123456790124,16.296296296296298,0)" xlink:href="#an"/><use transform="matrix(0.06790123456790124,0,0,0.06790123456790124,24.376543209876544,0)" xlink:href="#ax"/><use transform="matrix(0.06790123456790124,0,0,0.06790123456790124,37.95679012345679,0)" xlink:href="#av"/><use transform="matrix(0.06790123456790124,0,0,0.06790123456790124,50.17901234567901,0)" xlink:href="#ao"/><use transform="matrix(0.06790123456790124,0,0,0.06790123456790124,55.54320987654321,0)" xlink:href="#au"/><use transform="matrix(0.06790123456790124,0,0,0.06790123456790124,69.12345679012346,0)" xlink:href="#aH"/><use transform="matrix(0.06790123456790124,0,0,0.06790123456790124,82.70370370370371,0)" xlink:href="#an"/></g><path fill="#666" d="M275 0h-61l-44-196L126 0H64L0-248h53L97-49l45-199h58l43 199 44-199h52" id="aL"/><path fill="#666" d="M25-224v-37h50v37H25zM25 0v-190h50V0H25" id="aM"/><path fill="#666" d="M147 0L96-86 75-71V0H25v-261h50v150l67-79h53l-66 74L201 0h-54" id="aN"/><path fill="#666" d="M25 0v-261h50V0H25" id="aO"/><path fill="#666" d="M220-157c-53 9-28 100-34 157h-49v-107c1-27-5-49-29-50C55-147 81-57 75 0H25l-1-190h47c2 12-1 28 3 38 10-53 101-56 108 0 13-22 24-43 59-42 82 1 51 116 57 194h-49v-107c-1-25-5-48-29-50" id="aP"/><path fill="#666" d="M110-194c64 0 96 36 96 99 0 64-35 99-97 99-61 0-95-36-95-99 0-62 34-99 96-99zm-1 164c35 0 45-28 45-65 0-40-10-65-43-65-34 0-45 26-45 65 0 36 10 65 43 65" id="aQ"/><g id="n"><use transform="matrix(0.08641975308641976,0,0,0.08641975308641976,0,0)" xlink:href="#aL"/><use transform="matrix(0.08641975308641976,0,0,0.08641975308641976,29.03703703703704,0)" xlink:href="#aM"/><use transform="matrix(0.08641975308641976,0,0,0.08641975308641976,37.67901234567901,0)" xlink:href="#aN"/><use transform="matrix(0.08641975308641976,0,0,0.08641975308641976,54.96296296296296,0)" xlink:href="#aM"/><use transform="matrix(0.08641975308641976,0,0,0.08641975308641976,63.60493827160494,0)" xlink:href="#aO"/><use transform="matrix(0.08641975308641976,0,0,0.08641975308641976,72.24691358024691,0)" xlink:href="#aM"/><use transform="matrix(0.08641975308641976,0,0,0.08641975308641976,80.88888888888889,0)" xlink:href="#aP"/><use transform="matrix(0.08641975308641976,0,0,0.08641975308641976,108.54320987654322,0)" xlink:href="#aQ"/></g><path fill="#666" d="M24-248c93 1 206-16 204 79-1 75-69 88-152 82V0H24v-248zm52 121c47 0 100 7 100-41 0-47-54-39-100-39v80" id="aR"/><path fill="#666" d="M133-34C117-15 103 5 69 4 32 3 11-16 11-54c-1-60 55-63 116-61 1-26-3-47-28-47-18 1-26 9-28 27l-52-2c7-38 36-58 82-57s74 22 75 68l1 82c-1 14 12 18 25 15v27c-30 8-71 5-69-32zm-48 3c29 0 43-24 42-57-32 0-66-3-65 30 0 17 8 27 23 27" id="aS"/><path fill="#666" d="M115-3C79 11 28 4 28-45v-112H4v-33h27l15-45h31v45h36v33H77v99c-1 23 16 31 38 25v30" id="aT"/><path fill="#666" d="M121-226c-27-7-43 5-38 36h38v33H83V0H34v-157H6v-33h28c-9-59 32-81 87-68v32" id="aU"/><path fill="#666" d="M135-150c-39-12-60 13-60 57V0H25l-1-190h47c2 13-1 29 3 40 6-28 27-53 61-41v41" id="aV"/><g id="o"><use transform="matrix(0.08641975308641976,0,0,0.08641975308641976,0,0)" xlink:href="#aR"/><use transform="matrix(0.08641975308641976,0,0,0.08641975308641976,20.740740740740744,0)" xlink:href="#aO"/><use transform="matrix(0.08641975308641976,0,0,0.08641975308641976,29.382716049382726,0)" xlink:href="#aS"/><use transform="matrix(0.08641975308641976,0,0,0.08641975308641976,46.66666666666667,0)" xlink:href="#aT"/><use transform="matrix(0.08641975308641976,0,0,0.08641975308641976,56.95061728395062,0)" xlink:href="#aU"/><use transform="matrix(0.08641975308641976,0,0,0.08641975308641976,67.23456790123457,0)" xlink:href="#aQ"/><use transform="matrix(0.08641975308641976,0,0,0.08641975308641976,86.1604938271605,0)" xlink:href="#aV"/><use transform="matrix(0.08641975308641976,0,0,0.08641975308641976,98.25925925925927,0)" xlink:href="#aP"/></g><path fill="#666" d="M233-177c-1 41-23 64-60 70L243 0h-38l-65-103H63V0H30v-248c88 3 205-21 203 71zM63-129c60-2 137 13 137-47 0-61-80-42-137-45v92" id="aW"/><path fill="#666" d="M100-194c63 0 86 42 84 106H49c0 40 14 67 53 68 26 1 43-12 49-29l28 8c-11 28-37 45-77 45C44 4 14-33 15-96c1-61 26-98 85-98zm52 81c6-60-76-77-97-28-3 7-6 17-6 28h103" id="aX"/><path fill="#666" d="M115-194c55 1 70 41 70 98S169 2 115 4C84 4 66-9 55-30l1 105H24l-1-265h31l2 30c10-21 28-34 59-34zm-8 174c40 0 45-34 45-75s-6-73-45-74c-42 0-51 32-51 76 0 43 10 73 51 73" id="aY"/><path fill="#666" d="M100-194c62-1 85 37 85 99 1 63-27 99-86 99S16-35 15-95c0-66 28-99 85-99zM99-20c44 1 53-31 53-75 0-43-8-75-51-75s-53 32-53 75 10 74 51 75" id="aZ"/><path fill="#666" d="M114-163C36-179 61-72 57 0H25l-1-190h30c1 12-1 29 2 39 6-27 23-49 58-41v29" id="ba"/><path fill="#666" d="M59-47c-2 24 18 29 38 22v24C64 9 27 4 27-40v-127H5v-23h24l9-43h21v43h35v23H59v120" id="bb"/><g id="p"><use transform="matrix(0.06172839506172839,0,0,0.06172839506172839,0,0)" xlink:href="#aW"/><use transform="matrix(0.06172839506172839,0,0,0.06172839506172839,15.987654320987653,0)" xlink:href="#aX"/><use transform="matrix(0.06172839506172839,0,0,0.06172839506172839,28.333333333333332,0)" xlink:href="#aY"/><use transform="matrix(0.06172839506172839,0,0,0.06172839506172839,40.67901234567901,0)" xlink:href="#aZ"/><use transform="matrix(0.06172839506172839,0,0,0.06172839506172839,53.02469135802469,0)" xlink:href="#ba"/><use transform="matrix(0.06172839506172839,0,0,0.06172839506172839,60.37037037037037,0)" xlink:href="#bb"/></g><path fill="#666" d="M232-93c-1 65-40 97-104 97C67 4 28-28 28-90v-158h33c8 89-33 224 67 224 102 0 64-133 71-224h33v155" id="bc"/><path fill="#666" d="M85-194c31 0 48 13 60 33l-1-100h32l1 261h-30c-2-10 0-23-3-31C134-8 116 4 85 4 32 4 16-35 15-94c0-66 23-100 70-100zm9 24c-40 0-46 34-46 75 0 40 6 74 45 74 42 0 51-32 51-76 0-42-9-74-50-73" id="bd"/><path fill="#666" d="M141-36C126-15 110 5 73 4 37 3 15-17 15-53c-1-64 63-63 125-63 3-35-9-54-41-54-24 1-41 7-42 31l-33-3c5-37 33-52 76-52 45 0 72 20 72 64v82c-1 20 7 32 28 27v20c-31 9-61-2-59-35zM48-53c0 20 12 33 32 33 41-3 63-29 60-74-43 2-92-5-92 41" id="be"/><g id="q"><use transform="matrix(0.06172839506172839,0,0,0.06172839506172839,0,0)" xlink:href="#bc"/><use transform="matrix(0.06172839506172839,0,0,0.06172839506172839,15.987654320987653,0)" xlink:href="#aY"/><use transform="matrix(0.06172839506172839,0,0,0.06172839506172839,28.333333333333332,0)" xlink:href="#bd"/><use transform="matrix(0.06172839506172839,0,0,0.06172839506172839,40.67901234567901,0)" xlink:href="#be"/><use transform="matrix(0.06172839506172839,0,0,0.06172839506172839,53.02469135802469,0)" xlink:href="#bb"/><use transform="matrix(0.06172839506172839,0,0,0.06172839506172839,59.19753086419753,0)" xlink:href="#aX"/></g><path fill="#666" d="M63-220v92h138v28H63V0H30v-248h175v28H63" id="bf"/><path fill="#666" d="M96-169c-40 0-48 33-48 73s9 75 48 75c24 0 41-14 43-38l32 2c-6 37-31 61-74 61-59 0-76-41-82-99-10-93 101-131 147-64 4 7 5 14 7 22l-32 3c-4-21-16-35-41-35" id="bg"/><path fill="#666" d="M135-143c-3-34-86-38-87 0 15 53 115 12 119 90S17 21 10-45l28-5c4 36 97 45 98 0-10-56-113-15-118-90-4-57 82-63 122-42 12 7 21 19 24 35" id="bh"/><g id="r"><use transform="matrix(0.06172839506172839,0,0,0.06172839506172839,0,0)" xlink:href="#bf"/><use transform="matrix(0.06172839506172839,0,0,0.06172839506172839,13.518518518518517,0)" xlink:href="#aZ"/><use transform="matrix(0.06172839506172839,0,0,0.06172839506172839,25.864197530864196,0)" xlink:href="#ba"/><use transform="matrix(0.06172839506172839,0,0,0.06172839506172839,33.20987654320987,0)" xlink:href="#aX"/><use transform="matrix(0.06172839506172839,0,0,0.06172839506172839,45.55555555555555,0)" xlink:href="#bg"/><use transform="matrix(0.06172839506172839,0,0,0.06172839506172839,56.66666666666666,0)" xlink:href="#be"/><use transform="matrix(0.06172839506172839,0,0,0.06172839506172839,69.01234567901234,0)" xlink:href="#bh"/><use transform="matrix(0.06172839506172839,0,0,0.06172839506172839,80.12345679012346,0)" xlink:href="#bb"/></g><path fill="#666" d="M0 4l72-265h28L28 4H0" id="bi"/><use transform="matrix(0.06172839506172839,0,0,0.06172839506172839,0,0)" xlink:href="#bi" id="s"/><path fill="#666" d="M190 0L58-211 59 0H30v-248h39L202-35l-2-213h31V0h-41" id="bj"/><path fill="#666" d="M206 0h-36l-40-164L89 0H53L-1-190h32L70-26l43-164h34l41 164 42-164h31" id="bk"/><g id="t"><use transform="matrix(0.06172839506172839,0,0,0.06172839506172839,0,0)" xlink:href="#bj"/><use transform="matrix(0.06172839506172839,0,0,0.06172839506172839,15.987654320987653,0)" xlink:href="#aX"/><use transform="matrix(0.06172839506172839,0,0,0.06172839506172839,28.333333333333332,0)" xlink:href="#bk"/><use transform="matrix(0.06172839506172839,0,0,0.06172839506172839,44.32098765432099,0)" xlink:href="#bg"/><use transform="matrix(0.06172839506172839,0,0,0.06172839506172839,55.4320987654321,0)" xlink:href="#be"/><use transform="matrix(0.06172839506172839,0,0,0.06172839506172839,67.77777777777779,0)" xlink:href="#bh"/><use transform="matrix(0.06172839506172839,0,0,0.06172839506172839,78.8888888888889,0)" xlink:href="#bb"/></g><path fill="#666" d="M140-251c81 0 123 46 123 126C263-53 228-8 163 1c7 30 30 48 69 40v23c-55 16-95-15-103-61C56-3 17-48 17-125c0-80 42-126 123-126zm0 227c63 0 89-41 89-101s-29-99-89-99c-61 0-89 39-89 99S79-25 140-24" id="bl"/><path fill="#666" d="M84 4C-5 8 30-112 23-190h32v120c0 31 7 50 39 49 72-2 45-101 50-169h31l1 190h-30c-1-10 1-25-2-33-11 22-28 36-60 37" id="bm"/><path fill="#666" d="M179-190L93 31C79 59 56 82 12 73V49c39 6 53-20 64-50L1-190h34L92-34l54-156h33" id="bn"/><g id="u"><use transform="matrix(0.06172839506172839,0,0,0.06172839506172839,0,0)" xlink:href="#bl"/><use transform="matrix(0.06172839506172839,0,0,0.06172839506172839,17.28395061728395,0)" xlink:href="#bm"/><use transform="matrix(0.06172839506172839,0,0,0.06172839506172839,29.629629629629626,0)" xlink:href="#aX"/><use transform="matrix(0.06172839506172839,0,0,0.06172839506172839,41.9753086419753,0)" xlink:href="#ba"/><use transform="matrix(0.06172839506172839,0,0,0.06172839506172839,49.32098765432098,0)" xlink:href="#bn"/></g><g id="v"><use transform="matrix(0.06172839506172839,0,0,0.06172839506172839,0,0)" xlink:href="#aW"/><use transform="matrix(0.06172839506172839,0,0,0.06172839506172839,15.987654320987653,0)" xlink:href="#aX"/><use transform="matrix(0.06172839506172839,0,0,0.06172839506172839,28.333333333333332,0)" xlink:href="#aY"/><use transform="matrix(0.06172839506172839,0,0,0.06172839506172839,40.67901234567901,0)" xlink:href="#aZ"/><use transform="matrix(0.06172839506172839,0,0,0.06172839506172839,53.02469135802469,0)" xlink:href="#ba"/><use transform="matrix(0.06172839506172839,0,0,0.06172839506172839,60.37037037037037,0)" xlink:href="#bb"/></g><path fill="#a3d977" d="M11 0l48-248h34L50-27h125l-5 27H11" id="bo"/><path fill="#a3d977" d="M111-194c62-3 86 47 72 106H45c-7 38 6 69 45 68 27-1 43-14 53-32l24 11C152-15 129 4 87 4 38 3 12-23 12-71c0-70 32-119 99-123zm44 81c14-66-71-72-95-28-4 8-8 17-11 28h106" id="bp"/><path fill="#a3d977" d="M89 0H52L20-190h33L74-25l89-165h34" id="bq"/><path fill="#a3d977" d="M6 0l50-261h32L37 0H6" id="br"/><g id="w"><use transform="matrix(0.06790123456790124,0,0,0.06790123456790124,0,0)" xlink:href="#bo"/><use transform="matrix(0.06790123456790124,0,0,0.06790123456790124,13.580246913580249,0)" xlink:href="#bp"/><use transform="matrix(0.06790123456790124,0,0,0.06790123456790124,27.160493827160497,0)" xlink:href="#bq"/><use transform="matrix(0.06790123456790124,0,0,0.06790123456790124,39.38271604938272,0)" xlink:href="#bp"/><use transform="matrix(0.06790123456790124,0,0,0.06790123456790124,52.96296296296297,0)" xlink:href="#br"/><path fill="#a3d977" d="M-1.22 1.7h67.56v1.78H-1.22z"/></g><path fill="#a3d977" d="M16-82c0-90 25-169 113-169 48 0 68 33 68 82C197-79 170 4 84 4 37 4 16-31 16-82zm30 5c0 32 11 55 40 55 69 0 76-79 80-149 2-32-10-55-39-55-69 0-81 81-81 149" id="bs"/><g id="x"><use transform="matrix(0.06790123456790124,0,0,0.06790123456790124,0,0)" xlink:href="#bs"/><path fill="#a3d977" d="M-1.22 1.7H14.8v1.78H-1.22z"/></g><path fill="#666" d="M27 0v-27h64v-190l-56 39v-29l58-41h29v221h61V0H27" id="bt"/><path fill="#666" d="M33 0v-38h34V0H33" id="bu"/><path fill="#666" d="M101-251c68 0 85 55 85 127S166 4 100 4C33 4 14-52 14-124c0-73 17-127 87-127zm-1 229c47 0 54-49 54-102s-4-102-53-102c-51 0-55 48-55 102 0 53 5 102 54 102" id="bv"/><g id="y"><use transform="matrix(0.06790123456790124,0,0,0.06790123456790124,0,0)" xlink:href="#bt"/><use transform="matrix(0.06790123456790124,0,0,0.06790123456790124,13.580246913580249,0)" xlink:href="#bu"/><use transform="matrix(0.06790123456790124,0,0,0.06790123456790124,20.370370370370374,0)" xlink:href="#bv"/></g><path fill="#666" d="M185-189c-5-48-123-54-124 2 14 75 158 14 163 119 3 78-121 87-175 55-17-10-28-26-33-46l33-7c5 56 141 63 141-1 0-78-155-14-162-118-5-82 145-84 179-34 5 7 8 16 11 25" id="bw"/><path fill="#666" d="M24-231v-30h32v30H24zM24 0v-190h32V0H24" id="bx"/><path fill="#666" d="M177-190C167-65 218 103 67 71c-23-6-38-20-44-43l32-5c15 47 100 32 89-28v-30C133-14 115 1 83 1 29 1 15-40 15-95c0-56 16-97 71-98 29-1 48 16 59 35 1-10 0-23 2-32h30zM94-22c36 0 50-32 50-73 0-42-14-75-50-75-39 0-46 34-46 75s6 73 46 73" id="by"/><path fill="#666" d="M117-194c89-4 53 116 60 194h-32v-121c0-31-8-49-39-48C34-167 62-67 57 0H25l-1-190h30c1 10-1 24 2 32 11-22 29-35 61-36" id="bz"/><g id="z"><use transform="matrix(0.06790123456790124,0,0,0.06790123456790124,0,0)" xlink:href="#bw"/><use transform="matrix(0.06790123456790124,0,0,0.06790123456790124,16.296296296296298,0)" xlink:href="#bx"/><use transform="matrix(0.06790123456790124,0,0,0.06790123456790124,21.660493827160497,0)" xlink:href="#by"/><use transform="matrix(0.06790123456790124,0,0,0.06790123456790124,35.24074074074075,0)" xlink:href="#bz"/></g><g id="A"><use transform="matrix(0.06790123456790124,0,0,0.06790123456790124,0,0)" xlink:href="#bm"/><use transform="matrix(0.06790123456790124,0,0,0.06790123456790124,13.580246913580249,0)" xlink:href="#aY"/><use transform="matrix(0.06790123456790124,0,0,0.06790123456790124,27.160493827160497,0)" xlink:href="#bi"/><use transform="matrix(0.06790123456790124,0,0,0.06790123456790124,33.95061728395062,0)" xlink:href="#bx"/><use transform="matrix(0.06790123456790124,0,0,0.06790123456790124,39.31481481481481,0)" xlink:href="#bz"/></g><g id="B"><use transform="matrix(0.06172839506172839,0,0,0.06172839506172839,0,0)" xlink:href="#bc"/><use transform="matrix(0.06172839506172839,0,0,0.06172839506172839,15.987654320987653,0)" xlink:href="#bh"/><use transform="matrix(0.06172839506172839,0,0,0.06172839506172839,27.098765432098766,0)" xlink:href="#aX"/><use transform="matrix(0.06172839506172839,0,0,0.06172839506172839,39.44444444444444,0)" xlink:href="#ba"/></g><path fill="#666" d="M24 0v-261h32V0H24" id="bA"/><g id="C"><use transform="matrix(0.06172839506172839,0,0,0.06172839506172839,0,0)" xlink:href="#bd"/><use transform="matrix(0.06172839506172839,0,0,0.06172839506172839,12.345679012345679,0)" xlink:href="#aX"/><use transform="matrix(0.06172839506172839,0,0,0.06172839506172839,24.691358024691358,0)" xlink:href="#bb"/><use transform="matrix(0.06172839506172839,0,0,0.06172839506172839,30.864197530864196,0)" xlink:href="#be"/><use transform="matrix(0.06172839506172839,0,0,0.06172839506172839,43.20987654320987,0)" xlink:href="#bx"/><use transform="matrix(0.06172839506172839,0,0,0.06172839506172839,48.08641975308642,0)" xlink:href="#bA"/><use transform="matrix(0.06172839506172839,0,0,0.06172839506172839,52.96296296296296,0)" xlink:href="#bh"/></g><path fill="#666" d="M210-169c-67 3-38 105-44 169h-31v-121c0-29-5-50-35-48C34-165 62-65 56 0H25l-1-190h30c1 10-1 24 2 32 10-44 99-50 107 0 11-21 27-35 58-36 85-2 47 119 55 194h-31v-121c0-29-5-49-35-48" id="bB"/><g id="D"><use transform="matrix(0.06790123456790124,0,0,0.06790123456790124,0,0)" xlink:href="#bf"/><use transform="matrix(0.06790123456790124,0,0,0.06790123456790124,14.870370370370372,0)" xlink:href="#be"/><use transform="matrix(0.06790123456790124,0,0,0.06790123456790124,28.45061728395062,0)" xlink:href="#bB"/><use transform="matrix(0.06790123456790124,0,0,0.06790123456790124,48.75308641975309,0)" xlink:href="#aX"/><use transform="matrix(0.06790123456790124,0,0,0.06790123456790124,62.333333333333336,0)" xlink:href="#ba"/></g><path fill="#666" d="M30-248c118-7 216 8 213 122C240-48 200 0 122 0H30v-248zM63-27c89 8 146-16 146-99s-60-101-146-95v194" id="bC"/><path fill="#666" d="M115-194c53 0 69 39 70 98 0 66-23 100-70 100C84 3 66-7 56-30L54 0H23l1-261h32v101c10-23 28-34 59-34zm-8 174c40 0 45-34 45-75 0-40-5-75-45-74-42 0-51 32-51 76 0 43 10 73 51 73" id="bD"/><g id="E"><use transform="matrix(0.06790123456790124,0,0,0.06790123456790124,0,0)" xlink:href="#bC"/><use transform="matrix(0.06790123456790124,0,0,0.06790123456790124,17.58641975308642,0)" xlink:href="#be"/><use transform="matrix(0.06790123456790124,0,0,0.06790123456790124,31.16666666666667,0)" xlink:href="#bb"/><use transform="matrix(0.06790123456790124,0,0,0.06790123456790124,37.9567901234568,0)" xlink:href="#be"/><use transform="matrix(0.06790123456790124,0,0,0.06790123456790124,51.537037037037045,0)" xlink:href="#bD"/><use transform="matrix(0.06790123456790124,0,0,0.06790123456790124,65.11728395061729,0)" xlink:href="#be"/><use transform="matrix(0.06790123456790124,0,0,0.06790123456790124,78.69753086419755,0)" xlink:href="#bh"/><use transform="matrix(0.06790123456790124,0,0,0.06790123456790124,90.91975308641979,0)" xlink:href="#aX"/></g><path fill="#666" d="M155-56V0h-30v-56H8v-25l114-167h33v167h35v25h-35zm-30-156c-27 46-58 90-88 131h88v-131" id="bE"/><g id="F"><use transform="matrix(0.06790123456790124,0,0,0.06790123456790124,0,0)" xlink:href="#bE"/><use transform="matrix(0.06790123456790124,0,0,0.06790123456790124,13.580246913580249,0)" xlink:href="#bu"/><use transform="matrix(0.06790123456790124,0,0,0.06790123456790124,20.370370370370374,0)" xlink:href="#bv"/></g><path fill="#666" d="M108 0H70L1-190h34L89-25l56-165h34" id="bF"/><g id="G"><use transform="matrix(0.06790123456790124,0,0,0.06790123456790124,0,0)" xlink:href="#aW"/><use transform="matrix(0.06790123456790124,0,0,0.06790123456790124,17.58641975308642,0)" xlink:href="#aX"/><use transform="matrix(0.06790123456790124,0,0,0.06790123456790124,31.16666666666667,0)" xlink:href="#bg"/><use transform="matrix(0.06790123456790124,0,0,0.06790123456790124,43.38888888888889,0)" xlink:href="#aX"/><use transform="matrix(0.06790123456790124,0,0,0.06790123456790124,56.96913580246914,0)" xlink:href="#bx"/><use transform="matrix(0.06790123456790124,0,0,0.06790123456790124,62.333333333333336,0)" xlink:href="#bF"/><use transform="matrix(0.06790123456790124,0,0,0.06790123456790124,74.55555555555556,0)" xlink:href="#aX"/></g><path fill="#666" d="M101-234c-31-9-42 10-38 44h38v23H63V0H32v-167H5v-23h27c-7-52 17-82 69-68v24" id="bG"/><g id="H"><use transform="matrix(0.06790123456790124,0,0,0.06790123456790124,0,0)" xlink:href="#bx"/><use transform="matrix(0.06790123456790124,0,0,0.06790123456790124,5.364197530864199,0)" xlink:href="#bz"/><use transform="matrix(0.06790123456790124,0,0,0.06790123456790124,18.944444444444446,0)" xlink:href="#bG"/><use transform="matrix(0.06790123456790124,0,0,0.06790123456790124,25.734567901234573,0)" xlink:href="#aZ"/></g><path fill="#666" d="M126-127c33 6 58 20 58 59 0 88-139 92-164 29-3-8-5-16-6-25l32-3c6 27 21 44 54 44 32 0 52-15 52-46 0-38-36-46-79-43v-28c39 1 72-4 72-42 0-27-17-43-46-43-28 0-47 15-49 41l-32-3c6-42 35-63 81-64 48-1 79 21 79 65 0 36-21 52-52 59" id="bH"/><g id="I"><use transform="matrix(0.06790123456790124,0,0,0.06790123456790124,0,0)" xlink:href="#bH"/><use transform="matrix(0.06790123456790124,0,0,0.06790123456790124,13.580246913580249,0)" xlink:href="#bu"/><use transform="matrix(0.06790123456790124,0,0,0.06790123456790124,20.370370370370374,0)" xlink:href="#bv"/></g><g id="J"><use transform="matrix(0.06790123456790124,0,0,0.06790123456790124,0,0)" xlink:href="#bw"/><use transform="matrix(0.06790123456790124,0,0,0.06790123456790124,16.296296296296298,0)" xlink:href="#aX"/><use transform="matrix(0.06790123456790124,0,0,0.06790123456790124,29.876543209876544,0)" xlink:href="#bz"/><use transform="matrix(0.06790123456790124,0,0,0.06790123456790124,43.45679012345679,0)" xlink:href="#bd"/></g><path fill="#666" d="M145-31C134-9 116 4 85 4 32 4 16-35 15-94c0-59 17-99 70-100 32-1 48 14 60 33 0-11-1-24 2-32h30l-1 268h-32zM93-21c41 0 51-33 51-76s-8-73-50-73c-40 0-46 35-46 75s5 74 45 74" id="bI"/><g id="K"><use transform="matrix(0.06790123456790124,0,0,0.06790123456790124,0,0)" xlink:href="#bI"/><use transform="matrix(0.06790123456790124,0,0,0.06790123456790124,13.580246913580249,0)" xlink:href="#bm"/><use transform="matrix(0.06790123456790124,0,0,0.06790123456790124,27.160493827160497,0)" xlink:href="#aX"/><use transform="matrix(0.06790123456790124,0,0,0.06790123456790124,40.74074074074075,0)" xlink:href="#ba"/><use transform="matrix(0.06790123456790124,0,0,0.06790123456790124,48.820987654320994,0)" xlink:href="#bn"/></g><path fill="#666" d="M101-251c82-7 93 87 43 132L82-64C71-53 59-42 53-27h129V0H18c2-99 128-94 128-182 0-28-16-43-45-43s-46 15-49 41l-32-3c6-41 34-60 81-64" id="bJ"/><g id="L"><use transform="matrix(0.06790123456790124,0,0,0.06790123456790124,0,0)" xlink:href="#bJ"/><use transform="matrix(0.06790123456790124,0,0,0.06790123456790124,13.580246913580249,0)" xlink:href="#bu"/><use transform="matrix(0.06790123456790124,0,0,0.06790123456790124,20.370370370370374,0)" xlink:href="#bv"/></g><g id="M"><use transform="matrix(0.06790123456790124,0,0,0.06790123456790124,0,0)" xlink:href="#aW"/><use transform="matrix(0.06790123456790124,0,0,0.06790123456790124,17.58641975308642,0)" xlink:href="#aX"/><use transform="matrix(0.06790123456790124,0,0,0.06790123456790124,31.16666666666667,0)" xlink:href="#aY"/><use transform="matrix(0.06790123456790124,0,0,0.06790123456790124,44.74691358024692,0)" xlink:href="#aZ"/><use transform="matrix(0.06790123456790124,0,0,0.06790123456790124,58.32716049382716,0)" xlink:href="#ba"/><use transform="matrix(0.06790123456790124,0,0,0.06790123456790124,66.40740740740742,0)" xlink:href="#bb"/></g><path fill="#666" d="M205 0l-28-72H64L36 0H1l101-248h38L239 0h-34zm-38-99l-47-123c-12 45-31 82-46 123h93" id="bK"/><g id="N"><use transform="matrix(0.06790123456790124,0,0,0.06790123456790124,0,0)" xlink:href="#bK"/><use transform="matrix(0.06790123456790124,0,0,0.06790123456790124,16.296296296296298,0)" xlink:href="#by"/><use transform="matrix(0.06790123456790124,0,0,0.06790123456790124,29.876543209876544,0)" xlink:href="#ba"/><use transform="matrix(0.06790123456790124,0,0,0.06790123456790124,37.95679012345679,0)" xlink:href="#bx"/></g><use transform="matrix(0.06790123456790124,0,0,0.06790123456790124,0,0)" xlink:href="#bi" id="O"/><g id="P"><use transform="matrix(0.06790123456790124,0,0,0.06790123456790124,0,0)" xlink:href="#bf"/><use transform="matrix(0.06790123456790124,0,0,0.06790123456790124,14.870370370370372,0)" xlink:href="#bx"/><use transform="matrix(0.06790123456790124,0,0,0.06790123456790124,20.23456790123457,0)" xlink:href="#bz"/><use transform="matrix(0.06790123456790124,0,0,0.06790123456790124,33.81481481481482,0)" xlink:href="#be"/><use transform="matrix(0.06790123456790124,0,0,0.06790123456790124,47.39506172839506,0)" xlink:href="#bz"/><use transform="matrix(0.06790123456790124,0,0,0.06790123456790124,60.97530864197531,0)" xlink:href="#bg"/><use transform="matrix(0.06790123456790124,0,0,0.06790123456790124,73.19753086419753,0)" xlink:href="#aX"/></g><path fill="#666" d="M266 0h-40l-56-210L115 0H75L2-248h35L96-30l15-64 43-154h32l59 218 59-218h35" id="bL"/><path fill="#666" d="M106-169C34-169 62-67 57 0H25v-261h32l-1 103c12-21 28-36 61-36 89 0 53 116 60 194h-32v-121c2-32-8-49-39-48" id="bM"/><g id="Q"><use transform="matrix(0.06790123456790124,0,0,0.06790123456790124,0,0)" xlink:href="#bL"/><use transform="matrix(0.06790123456790124,0,0,0.06790123456790124,22.543209876543212,0)" xlink:href="#aX"/><use transform="matrix(0.06790123456790124,0,0,0.06790123456790124,36.12345679012346,0)" xlink:href="#be"/><use transform="matrix(0.06790123456790124,0,0,0.06790123456790124,49.70370370370371,0)" xlink:href="#bb"/><use transform="matrix(0.06790123456790124,0,0,0.06790123456790124,56.49382716049384,0)" xlink:href="#bM"/><use transform="matrix(0.06790123456790124,0,0,0.06790123456790124,70.07407407407409,0)" xlink:href="#aX"/><use transform="matrix(0.06790123456790124,0,0,0.06790123456790124,83.65432098765434,0)" xlink:href="#ba"/></g><path fill="#a3d977" d="M9 0l6-27h63l36-188-63 39 6-31 66-41h29L110-27h60l-5 27H9" id="bN"/><g id="R"><use transform="matrix(0.06790123456790124,0,0,0.06790123456790124,0,0)" xlink:href="#bN"/><path fill="#a3d977" d="M-1.22 1.7H14.8v1.78H-1.22z"/></g></defs></g></svg>